G04*
G04 #@! TF.GenerationSoftware,Altium Limited,Altium Designer,24.9.1 (31)*
G04*
G04 Layer_Color=65535*
%FSLAX44Y44*%
%MOMM*%
G71*
G04*
G04 #@! TF.SameCoordinates,1B91A79F-B01D-42E7-BC63-43C39E7C3ECD*
G04*
G04*
G04 #@! TF.FilePolarity,Positive*
G04*
G01*
G75*
%ADD10C,0.2000*%
%ADD11C,0.4000*%
%ADD12C,0.2500*%
%ADD13C,0.1000*%
%ADD14C,0.2540*%
D10*
X810238Y957900D02*
G03*
X810238Y959900I0J1000D01*
G01*
D02*
G03*
X810238Y957900I0J-1000D01*
G01*
X831110Y997646D02*
G03*
X831110Y995646I0J-1000D01*
G01*
D02*
G03*
X831110Y997646I0J1000D01*
G01*
Y566350D02*
G03*
X831110Y564350I0J-1000D01*
G01*
D02*
G03*
X831110Y566350I0J1000D01*
G01*
X810240Y526354D02*
G03*
X810240Y528354I0J1000D01*
G01*
D02*
G03*
X810240Y526354I0J-1000D01*
G01*
X901553Y1027004D02*
Y1035476D01*
X920135Y1027004D02*
Y1035476D01*
X737498Y770227D02*
Y790349D01*
X754498Y770227D02*
Y790349D01*
X794122Y757273D02*
Y777395D01*
X777122Y757273D02*
Y777395D01*
X870049Y863972D02*
X890171D01*
X870049Y846972D02*
X890171D01*
X825914Y742588D02*
X845914D01*
X825914Y792588D02*
X845914D01*
Y742588D02*
Y792588D01*
X825914Y742588D02*
Y792588D01*
X735720Y865731D02*
Y885853D01*
X752720Y865731D02*
Y885853D01*
X804244Y831992D02*
X814244D01*
X804244Y817882D02*
X814244D01*
X734897Y816905D02*
X752019D01*
X734897Y832063D02*
X752019D01*
X778540Y845814D02*
X814040D01*
X778540Y876814D02*
X814040D01*
X831441Y919362D02*
X851563D01*
X831441Y936362D02*
X851563D01*
X879923Y882120D02*
Y911120D01*
Y882120D02*
X882837D01*
Y911120D01*
X879923D02*
X882837D01*
X742133Y761348D02*
X740301Y763180D01*
X736635D01*
X734802Y761348D01*
Y754016D01*
X736635Y752184D01*
X740301D01*
X742133Y754016D01*
X753130Y752184D02*
X745799D01*
X753130Y759515D01*
Y761348D01*
X751297Y763180D01*
X747632D01*
X745799Y761348D01*
X783535Y792336D02*
X781702Y794168D01*
X778037D01*
X776204Y792336D01*
Y785005D01*
X778037Y783172D01*
X781702D01*
X783535Y785005D01*
X787201Y792336D02*
X789034Y794168D01*
X792699D01*
X794532Y792336D01*
Y790503D01*
X792699Y788670D01*
X790866D01*
X792699D01*
X794532Y786837D01*
Y785005D01*
X792699Y783172D01*
X789034D01*
X787201Y785005D01*
X878785Y836532D02*
X876953Y838364D01*
X873287D01*
X871454Y836532D01*
Y829201D01*
X873287Y827368D01*
X876953D01*
X878785Y829201D01*
X887949Y827368D02*
Y838364D01*
X882451Y832866D01*
X889782D01*
X831322Y818478D02*
Y829474D01*
X836821D01*
X838653Y827642D01*
Y823976D01*
X836821Y822143D01*
X831322D01*
X834988D02*
X838653Y818478D01*
X849650D02*
X842319D01*
X849650Y825809D01*
Y827642D01*
X847817Y829474D01*
X844152D01*
X842319Y827642D01*
X758225Y806794D02*
Y817790D01*
X763723D01*
X765556Y815957D01*
Y812292D01*
X763723Y810459D01*
X758225D01*
X761890D02*
X765556Y806794D01*
X769221D02*
X772887D01*
X771054D01*
Y817790D01*
X769221Y815957D01*
X787277Y896522D02*
Y886525D01*
X789276Y884526D01*
X793275D01*
X795274Y886525D01*
Y896522D01*
X799273Y884526D02*
X803271D01*
X801272D01*
Y896522D01*
X799273Y894523D01*
X832013Y592426D02*
Y604422D01*
X838011D01*
X840011Y602423D01*
Y598424D01*
X838011Y596425D01*
X832013D01*
X836012D02*
X840011Y592426D01*
X844009Y602423D02*
X846009Y604422D01*
X850007D01*
X852007Y602423D01*
Y600423D01*
X850007Y598424D01*
X848008D01*
X850007D01*
X852007Y596425D01*
Y594425D01*
X850007Y592426D01*
X846009D01*
X844009Y594425D01*
D11*
X835914Y784588D02*
G03*
X835914Y784588I-2000J0D01*
G01*
D12*
X813664Y795138D02*
G03*
X813664Y795138I-1250J0D01*
G01*
X840040Y851564D02*
G03*
X840040Y851564I-1250J0D01*
G01*
X861777Y906120D02*
G03*
X861777Y906120I-1250J0D01*
G01*
D13*
X741788Y953400D02*
X800688D01*
X741788Y1002400D02*
X800688D01*
X840660Y1002146D02*
X899560D01*
X840660Y953146D02*
X899560D01*
X840660Y570850D02*
X899560D01*
X840660Y521850D02*
X899560D01*
X741790Y521854D02*
X800690D01*
X741790Y570854D02*
X800690D01*
D14*
X771746Y1018796D02*
Y1028952D01*
X769207Y1031491D01*
X764128D01*
X761589Y1028952D01*
Y1018796D01*
X764128Y1016256D01*
X769207D01*
X766668Y1021335D02*
X771746Y1016256D01*
X769207D02*
X771746Y1018796D01*
X776824Y1016256D02*
X781903D01*
X779364D01*
Y1031491D01*
X776824Y1028952D01*
X868126Y1015494D02*
Y1025650D01*
X865587Y1028189D01*
X860508D01*
X857969Y1025650D01*
Y1015494D01*
X860508Y1012954D01*
X865587D01*
X863047Y1018033D02*
X868126Y1012954D01*
X865587D02*
X868126Y1015494D01*
X883361Y1012954D02*
X873204D01*
X883361Y1023111D01*
Y1025650D01*
X880822Y1028189D01*
X875743D01*
X873204Y1025650D01*
X898653Y1082800D02*
X896114Y1085340D01*
X891035D01*
X888496Y1082800D01*
Y1072644D01*
X891035Y1070105D01*
X896114D01*
X898653Y1072644D01*
X913888Y1085340D02*
X908810Y1082800D01*
X903731Y1077722D01*
Y1072644D01*
X906270Y1070105D01*
X911349D01*
X913888Y1072644D01*
Y1075183D01*
X911349Y1077722D01*
X903731D01*
X822456Y733803D02*
Y721108D01*
X824995Y718568D01*
X830074D01*
X832613Y721108D01*
Y733803D01*
X837691Y731264D02*
X840230Y733803D01*
X845309D01*
X847848Y731264D01*
Y728725D01*
X845309Y726186D01*
X842769D01*
X845309D01*
X847848Y723647D01*
Y721108D01*
X845309Y718568D01*
X840230D01*
X837691Y721108D01*
X717298Y875538D02*
X714759Y872999D01*
Y867921D01*
X717298Y865381D01*
X727454D01*
X729994Y867921D01*
Y872999D01*
X727454Y875538D01*
X729994Y880616D02*
Y885695D01*
Y883156D01*
X714759D01*
X717298Y880616D01*
X870205Y501648D02*
Y511804D01*
X867666Y514343D01*
X862587D01*
X860048Y511804D01*
Y501648D01*
X862587Y499109D01*
X867666D01*
X865126Y504187D02*
X870205Y499109D01*
X867666D02*
X870205Y501648D01*
X882901Y499109D02*
Y514343D01*
X875283Y506726D01*
X885440D01*
X798070Y925323D02*
X795530Y922784D01*
Y917705D01*
X798070Y915166D01*
X808226D01*
X810766Y917705D01*
Y922784D01*
X808226Y925323D01*
X795530Y940558D02*
Y930401D01*
X803148D01*
X800609Y935480D01*
Y938019D01*
X803148Y940558D01*
X808226D01*
X810766Y938019D01*
Y932940D01*
X808226Y930401D01*
X922271Y908554D02*
X909576D01*
X907037Y906015D01*
Y900936D01*
X909576Y898397D01*
X922271D01*
X907037Y883162D02*
Y893319D01*
X917193Y883162D01*
X919732D01*
X922271Y885701D01*
Y890780D01*
X919732Y893319D01*
X766415Y502414D02*
Y512570D01*
X763876Y515109D01*
X758797D01*
X756258Y512570D01*
Y502414D01*
X758797Y499874D01*
X763876D01*
X761337Y504953D02*
X766415Y499874D01*
X763876D02*
X766415Y502414D01*
X771493Y512570D02*
X774032Y515109D01*
X779111D01*
X781650Y512570D01*
Y510031D01*
X779111Y507492D01*
X776572D01*
X779111D01*
X781650Y504953D01*
Y502414D01*
X779111Y499874D01*
X774032D01*
X771493Y502414D01*
M02*
