G04*
G04 #@! TF.GenerationSoftware,Altium Limited,Altium Designer,24.9.1 (31)*
G04*
G04 Layer_Color=128*
%FSLAX44Y44*%
%MOMM*%
G71*
G04*
G04 #@! TF.SameCoordinates,8590F6A5-7837-48F7-9A02-AE0D2931B4B9*
G04*
G04*
G04 #@! TF.FilePolarity,Positive*
G04*
G01*
G75*
%ADD65C,0.1270*%
D65*
X876090Y855472D02*
X881590D01*
X878840Y852722D02*
Y858222D01*
X840133Y618617D02*
X843633D01*
X841883Y616867D02*
Y620367D01*
X800001Y696087D02*
X803501D01*
X801751Y694337D02*
Y697837D01*
X873927Y1051457D02*
X883927D01*
X878927Y1046457D02*
Y1056457D01*
X819190Y927862D02*
X824190D01*
X821690Y925362D02*
Y930362D01*
X903015Y896366D02*
X905465D01*
X904240Y895141D02*
Y897591D01*
X852215Y884174D02*
X854665D01*
X853440Y882949D02*
Y885399D01*
X795560Y740410D02*
X799560D01*
X797560Y738410D02*
Y742410D01*
X741720Y894842D02*
X746720D01*
X744220Y892342D02*
Y897342D01*
X811304Y1007110D02*
X814804D01*
X813054Y1005360D02*
Y1008860D01*
X864136Y937514D02*
X867636D01*
X865886Y935764D02*
Y939264D01*
X890569Y916940D02*
X893019D01*
X891794Y915715D02*
Y918165D01*
X922354Y1052068D02*
X932354D01*
X927354Y1047068D02*
Y1057068D01*
X783622Y750062D02*
X787622D01*
X785622Y748062D02*
Y752062D01*
X743998Y801878D02*
X747998D01*
X745998Y799878D02*
Y803878D01*
X824275Y838708D02*
X826725D01*
X825500Y837483D02*
Y839933D01*
X852469Y896620D02*
X854919D01*
X853694Y895395D02*
Y897845D01*
X822576Y824992D02*
X825376D01*
X823976Y823592D02*
Y826392D01*
X839245Y875697D02*
X842045D01*
X840645Y874297D02*
Y877097D01*
M02*
