G04*
G04 #@! TF.GenerationSoftware,Altium Limited,Altium Designer,24.9.1 (31)*
G04*
G04 Layer_Color=32768*
%FSLAX44Y44*%
%MOMM*%
G71*
G04*
G04 #@! TF.SameCoordinates,1B91A79F-B01D-42E7-BC63-43C39E7C3ECD*
G04*
G04*
G04 #@! TF.FilePolarity,Positive*
G04*
G01*
G75*
%ADD10C,0.2000*%
%ADD13C,0.1000*%
%ADD60C,0.0500*%
D10*
X896553Y1003949D02*
X925135D01*
Y1058531D01*
X896553D02*
X925135D01*
X896553Y1003949D02*
Y1058531D01*
X751498Y769227D02*
Y791349D01*
X740498Y769227D02*
X751498D01*
X740498D02*
Y791349D01*
X751498D01*
X780122Y756273D02*
Y778395D01*
X791122D01*
Y756273D02*
Y778395D01*
X780122Y756273D02*
X791122D01*
X869049Y849972D02*
X891171D01*
X869049D02*
Y860972D01*
X891171D01*
Y849972D02*
Y860972D01*
X749720Y864731D02*
Y886853D01*
X738720Y864731D02*
X749720D01*
X738720D02*
Y886853D01*
X749720D01*
X800744Y828992D02*
X817744D01*
Y820992D02*
Y828992D01*
X800744Y820992D02*
X817744D01*
X800744D02*
Y828992D01*
X732897Y830063D02*
X754019D01*
Y818905D02*
Y830063D01*
X732897Y818905D02*
X754019D01*
X732897D02*
Y830063D01*
X758790Y843314D02*
X833790D01*
X758790D02*
Y879314D01*
X833790D01*
Y843314D02*
Y879314D01*
X830441Y933362D02*
X852563D01*
Y922362D02*
Y933362D01*
X830441Y922362D02*
X852563D01*
X830441D02*
Y933362D01*
X864526Y881120D02*
Y912120D01*
Y881120D02*
X898234D01*
Y912120D01*
X864526D02*
X898234D01*
D13*
X729588Y943400D02*
X821238D01*
X729588D02*
Y1012400D01*
X821238D01*
Y943400D02*
Y1012400D01*
X820110Y1012146D02*
X911760D01*
Y943146D02*
Y1012146D01*
X820110Y943146D02*
X911760D01*
X820110D02*
Y1012146D01*
X835914Y762588D02*
Y772588D01*
X830914Y767588D02*
X840914D01*
X820110Y580850D02*
X911760D01*
Y511850D02*
Y580850D01*
X820110Y511850D02*
X911760D01*
X820110D02*
Y580850D01*
X838708Y579168D02*
Y585168D01*
X835708Y582168D02*
X841708D01*
X729590Y511854D02*
X821240D01*
X729590D02*
Y580854D01*
X821240D01*
Y511854D02*
Y580854D01*
D60*
X801914Y741588D02*
X869914D01*
X801914Y793588D02*
X869914D01*
Y741588D02*
Y793588D01*
X801914Y741588D02*
Y793588D01*
X831208Y586168D02*
X846208D01*
X831208Y578168D02*
X846208D01*
X831208D02*
Y586168D01*
X846208Y578168D02*
Y586168D01*
M02*
