G04*
G04 #@! TF.GenerationSoftware,Altium Limited,Altium Designer,24.9.1 (31)*
G04*
G04 Layer_Color=2752767*
%FSLAX44Y44*%
%MOMM*%
G71*
G04*
G04 #@! TF.SameCoordinates,8590F6A5-7837-48F7-9A02-AE0D2931B4B9*
G04*
G04*
G04 #@! TF.FilePolarity,Positive*
G04*
G01*
G75*
%ADD65C,0.1270*%
%ADD66C,0.1693*%
D65*
X876300Y852932D02*
Y850392D01*
X881380D01*
Y852932D01*
X883920D01*
Y858012D01*
X881380D01*
Y860552D01*
X876300D01*
Y858012D01*
X873760D01*
Y852932D01*
X876300D01*
X836803Y613537D02*
Y623697D01*
X846963D01*
Y613537D01*
X836803D01*
X796671Y691007D02*
Y701167D01*
X806831D01*
Y691007D01*
X796671D01*
X821690Y922782D02*
X824230Y925322D01*
X826770D01*
X824230Y927862D01*
X826770Y930402D01*
X824230D01*
X821690Y932942D01*
X819150Y930402D01*
X816610D01*
X819150Y927862D01*
X816610Y925322D01*
X819150D01*
X821690Y922782D01*
X899160Y891286D02*
X901700Y896366D01*
X899160Y901446D01*
X904240Y898906D01*
X909320Y901446D01*
X906780Y896366D01*
X909320Y891286D01*
X904240Y893826D01*
X899160Y891286D01*
X848360Y879094D02*
X850900Y884174D01*
X848360Y889254D01*
X853440Y886714D01*
X858520Y889254D01*
X855980Y884174D01*
X858520Y879094D01*
X853440Y881634D01*
X848360Y879094D01*
X792480Y735330D02*
X795020D01*
X797560Y737870D01*
X800100Y735330D01*
X802640D01*
Y737870D01*
X800100Y740410D01*
X802640Y742950D01*
Y745490D01*
X800100D01*
X797560Y742950D01*
X795020Y745490D01*
X792480D01*
Y742950D01*
X795020Y740410D01*
X792480Y737870D01*
Y735330D01*
X744220Y889762D02*
X746760Y892302D01*
X749300D01*
X746760Y894842D01*
X749300Y897382D01*
X746760D01*
X744220Y899922D01*
X741680Y897382D01*
X739140D01*
X741680Y894842D01*
X739140Y892302D01*
X741680D01*
X744220Y889762D01*
X807974Y1002030D02*
Y1012190D01*
X818134D01*
Y1002030D01*
X807974D01*
X860806Y932434D02*
Y942594D01*
X870966D01*
Y932434D01*
X860806D01*
X886714Y911860D02*
X889254Y916940D01*
X886714Y922020D01*
X891794Y919480D01*
X896874Y922020D01*
X894334Y916940D01*
X896874Y911860D01*
X891794Y914400D01*
X886714Y911860D01*
X780542Y744982D02*
X783082D01*
X785622Y747522D01*
X788162Y744982D01*
X790702D01*
Y747522D01*
X788162Y750062D01*
X790702Y752602D01*
Y755142D01*
X788162D01*
X785622Y752602D01*
X783082Y755142D01*
X780542D01*
Y752602D01*
X783082Y750062D01*
X780542Y747522D01*
Y744982D01*
X740918Y796798D02*
X743458D01*
X745998Y799338D01*
X748538Y796798D01*
X751078D01*
Y799338D01*
X748538Y801878D01*
X751078Y804418D01*
Y806958D01*
X748538D01*
X745998Y804418D01*
X743458Y806958D01*
X740918D01*
Y804418D01*
X743458Y801878D01*
X740918Y799338D01*
Y796798D01*
X820420Y833628D02*
X822960Y838708D01*
X820420Y843788D01*
X825500Y841248D01*
X830580Y843788D01*
X828040Y838708D01*
X830580Y833628D01*
X825500Y836168D01*
X820420Y833628D01*
X848614Y891540D02*
X851154Y896620D01*
X848614Y901700D01*
X853694Y899160D01*
X858774Y901700D01*
X856234Y896620D01*
X858774Y891540D01*
X853694Y894080D01*
X848614Y891540D01*
X823976Y819912D02*
X818896Y830072D01*
X829056D01*
X823976Y819912D01*
X840645Y870617D02*
X835565Y880777D01*
X845725D01*
X840645Y870617D01*
D66*
X884007Y1051457D02*
G03*
X884007Y1051457I-5080J0D01*
G01*
X932434Y1052068D02*
G03*
X932434Y1052068I-5080J0D01*
G01*
M02*
