G04*
G04 #@! TF.GenerationSoftware,Altium Limited,Altium Designer,24.9.1 (31)*
G04*
G04 Layer_Physical_Order=1*
G04 Layer_Color=255*
%FSLAX44Y44*%
%MOMM*%
G71*
G04*
G04 #@! TF.SameCoordinates,8590F6A5-7837-48F7-9A02-AE0D2931B4B9*
G04*
G04*
G04 #@! TF.FilePolarity,Positive*
G04*
G01*
G75*
%ADD16R,0.3200X0.2550*%
%ADD17R,3.8100X3.9100*%
%ADD18R,0.7100X0.6100*%
%ADD19R,1.2700X0.6100*%
%ADD20R,0.5000X0.5500*%
%ADD21R,20.0000X14.0000*%
%ADD22R,0.7581X0.8121*%
%ADD23R,20.0000X40.0000*%
G04:AMPARAMS|DCode=24|XSize=0.9397mm|YSize=0.4858mm|CornerRadius=0.2429mm|HoleSize=0mm|Usage=FLASHONLY|Rotation=0.000|XOffset=0mm|YOffset=0mm|HoleType=Round|Shape=RoundedRectangle|*
%AMROUNDEDRECTD24*
21,1,0.9397,0.0000,0,0,0.0*
21,1,0.4539,0.4858,0,0,0.0*
1,1,0.4858,0.2269,0.0000*
1,1,0.4858,-0.2269,0.0000*
1,1,0.4858,-0.2269,0.0000*
1,1,0.4858,0.2269,0.0000*
%
%ADD24ROUNDEDRECTD24*%
%ADD25R,0.9397X0.4858*%
%ADD26R,0.5000X0.6000*%
G04:AMPARAMS|DCode=27|XSize=1.5mm|YSize=0.45mm|CornerRadius=0.0495mm|HoleSize=0mm|Usage=FLASHONLY|Rotation=180.000|XOffset=0mm|YOffset=0mm|HoleType=Round|Shape=RoundedRectangle|*
%AMROUNDEDRECTD27*
21,1,1.5000,0.3510,0,0,180.0*
21,1,1.4010,0.4500,0,0,180.0*
1,1,0.0990,-0.7005,0.1755*
1,1,0.0990,0.7005,0.1755*
1,1,0.0990,0.7005,-0.1755*
1,1,0.0990,-0.7005,-0.1755*
%
%ADD27ROUNDEDRECTD27*%
%ADD28R,0.7596X0.7158*%
%ADD29R,1.8582X1.5055*%
%ADD30O,1.9000X0.6000*%
%ADD31R,0.8121X0.7581*%
%ADD47C,0.4500*%
%ADD48C,0.6000*%
%ADD49C,0.8000*%
%ADD50C,0.4860*%
%ADD51C,0.7000*%
%ADD52C,0.5000*%
%ADD53C,1.8000*%
%ADD54C,0.5500*%
%ADD55C,0.6096*%
%ADD56C,0.8000*%
%ADD57C,0.6100*%
%ADD58C,1.8000*%
%ADD59C,0.4860*%
%ADD60C,0.6000*%
%ADD61C,0.7000*%
%ADD62C,0.4500*%
G36*
X809094Y999969D02*
X807973Y998822D01*
X805646Y996105D01*
X805215Y995440D01*
X804958Y994897D01*
X804898Y994597D01*
X798784Y999969D01*
X799182Y999715D01*
X799645Y999593D01*
X800171Y999604D01*
X800762Y999748D01*
X801417Y1000025D01*
X802137Y1000435D01*
X802921Y1000978D01*
X803769Y1001655D01*
X804681Y1002464D01*
X805658Y1003406D01*
X809094Y999969D01*
D02*
G37*
G36*
X805658Y993931D02*
X805223Y993991D01*
X804962Y994172D01*
X804874Y994474D01*
X804898Y994597D01*
X805658Y993931D01*
D02*
G37*
G36*
X925692Y955548D02*
X894763D01*
Y999744D01*
X925692D01*
Y955548D01*
D02*
G37*
G36*
X848189Y955531D02*
X848064Y955393D01*
X847954Y955164D01*
X847858Y954843D01*
X847777Y954430D01*
X847710Y953926D01*
X847622Y952642D01*
X847592Y950991D01*
X841497D01*
X841481Y951862D01*
X841358Y953330D01*
X841251Y953926D01*
X841112Y954430D01*
X840943Y954843D01*
X840743Y955164D01*
X840512Y955393D01*
X840251Y955531D01*
X839959Y955576D01*
X848329D01*
X848189Y955531D01*
D02*
G37*
G36*
X831472Y923832D02*
X831392Y923838D01*
X830752Y923847D01*
X823472Y923862D01*
Y931862D01*
X831472Y931892D01*
Y923832D01*
D02*
G37*
G36*
X851279Y923786D02*
X851053Y923650D01*
X850854Y923422D01*
X850681Y923103D01*
X850535Y922694D01*
X850415Y922193D01*
X850322Y921601D01*
X850255Y920918D01*
X850202Y919279D01*
X845342D01*
X845329Y920144D01*
X845222Y921601D01*
X845129Y922193D01*
X845009Y922694D01*
X844863Y923103D01*
X844690Y923422D01*
X844491Y923650D01*
X844265Y923786D01*
X844012Y923832D01*
X851532D01*
X851279Y923786D01*
D02*
G37*
G36*
X747725Y891492D02*
X748059Y886102D01*
X748149Y885892D01*
X748250Y885822D01*
X740190D01*
X740291Y885892D01*
X740381Y886102D01*
X740460Y886452D01*
X740529Y886942D01*
X740635Y888342D01*
X740720Y892822D01*
X747720D01*
X747725Y891492D01*
D02*
G37*
G36*
X747912Y865717D02*
X747609Y865582D01*
X747342Y865357D01*
X747111Y865042D01*
X746915Y864637D01*
X746755Y864142D01*
X746630Y863557D01*
X746541Y862882D01*
X746488Y862117D01*
X746470Y861262D01*
X741970D01*
X741952Y862117D01*
X741810Y863557D01*
X741685Y864142D01*
X741525Y864637D01*
X741329Y865042D01*
X741098Y865357D01*
X740831Y865582D01*
X740528Y865717D01*
X740190Y865762D01*
X748250D01*
X747912Y865717D01*
D02*
G37*
G36*
X829362Y849291D02*
X828980Y849156D01*
X828642Y848929D01*
X828350Y848612D01*
X828102Y848204D01*
X827900Y847706D01*
X827742Y847117D01*
X827630Y846437D01*
X827562Y845667D01*
X827540Y844806D01*
X823040D01*
X823017Y845667D01*
X822950Y846437D01*
X822837Y847117D01*
X822680Y847706D01*
X822477Y848204D01*
X822230Y848612D01*
X821937Y848929D01*
X821600Y849156D01*
X821217Y849291D01*
X820790Y849337D01*
X829790D01*
X829362Y849291D01*
D02*
G37*
G36*
X791136Y829565D02*
X790730Y829025D01*
X790478Y828547D01*
X790379Y828133D01*
X790434Y827784D01*
X790643Y827497D01*
X791005Y827274D01*
X791521Y827115D01*
X792191Y827020D01*
X793014Y826988D01*
X783082Y822488D01*
X777650Y826988D01*
X778537Y827020D01*
X779397Y827115D01*
X780231Y827274D01*
X781039Y827497D01*
X781821Y827784D01*
X782576Y828133D01*
X783304Y828547D01*
X784007Y829025D01*
X784682Y829565D01*
X785332Y830170D01*
X791696D01*
X791136Y829565D01*
D02*
G37*
G36*
X816758Y827825D02*
X816893Y827702D01*
X817119Y827595D01*
X817433Y827501D01*
X817839Y827422D01*
X818334Y827357D01*
X819594Y827271D01*
X821214Y827242D01*
Y822742D01*
X820359Y822735D01*
X817839Y822562D01*
X817433Y822483D01*
X817119Y822389D01*
X816893Y822281D01*
X816758Y822159D01*
X816713Y822022D01*
Y827962D01*
X816758Y827825D01*
D02*
G37*
G36*
X801775Y822022D02*
X801730Y822111D01*
X801594Y822190D01*
X801369Y822260D01*
X801055Y822320D01*
X800649Y822372D01*
X799569Y822446D01*
X797274Y822488D01*
Y826988D01*
X798130Y826998D01*
X800154Y827144D01*
X800649Y827231D01*
X801055Y827338D01*
X801369Y827465D01*
X801594Y827611D01*
X801730Y827777D01*
X801775Y827962D01*
Y822022D01*
D02*
G37*
G36*
X752033Y827834D02*
X752168Y827657D01*
X752393Y827500D01*
X752708Y827364D01*
X753113Y827249D01*
X753608Y827155D01*
X754193Y827082D01*
X755633Y826998D01*
X756488Y826988D01*
Y822488D01*
X755633Y822473D01*
X754193Y822348D01*
X753608Y822240D01*
X753113Y822100D01*
X752708Y821929D01*
X752393Y821727D01*
X752168Y821494D01*
X752033Y821230D01*
X751988Y820935D01*
Y828033D01*
X752033Y827834D01*
D02*
G37*
G36*
X749008Y795178D02*
X749256Y791818D01*
X749369Y791278D01*
X749503Y790858D01*
X749657Y790558D01*
X749832Y790378D01*
X750028Y790318D01*
X741968D01*
X742164Y790378D01*
X742339Y790558D01*
X742493Y790858D01*
X742627Y791278D01*
X742740Y791818D01*
X742833Y792478D01*
X742957Y794158D01*
X742998Y796318D01*
X748998D01*
X749008Y795178D01*
D02*
G37*
G36*
X804417Y771344D02*
X804234Y771450D01*
X803977Y771545D01*
X803645Y771629D01*
X803238Y771701D01*
X802202Y771813D01*
X800867Y771880D01*
X799233Y771902D01*
X799747Y776402D01*
X800585Y776406D01*
X804592Y776677D01*
X804898Y776750D01*
X805139Y776831D01*
X804417Y771344D01*
D02*
G37*
G36*
X750073Y777524D02*
X750208Y777297D01*
X750433Y777097D01*
X750748Y776923D01*
X751153Y776776D01*
X751648Y776656D01*
X752233Y776562D01*
X752908Y776495D01*
X754528Y776442D01*
Y771942D01*
X753673Y771925D01*
X752233Y771790D01*
X751648Y771673D01*
X751153Y771521D01*
X750748Y771336D01*
X750433Y771117D01*
X750208Y770864D01*
X750073Y770578D01*
X750028Y770258D01*
Y777778D01*
X750073Y777524D01*
D02*
G37*
G36*
X789697Y777181D02*
X789832Y777018D01*
X790057Y776873D01*
X790372Y776748D01*
X790777Y776643D01*
X791272Y776556D01*
X791857Y776489D01*
X793297Y776412D01*
X794152Y776402D01*
Y771902D01*
X793297Y771881D01*
X792532Y771820D01*
X791857Y771717D01*
X791272Y771573D01*
X790777Y771387D01*
X790372Y771161D01*
X790057Y770893D01*
X789832Y770585D01*
X789697Y770235D01*
X789652Y769844D01*
Y777364D01*
X789697Y777181D01*
D02*
G37*
G36*
X781592Y769844D02*
X781547Y770235D01*
X781412Y770585D01*
X781187Y770893D01*
X780872Y771161D01*
X780467Y771387D01*
X779972Y771573D01*
X779387Y771717D01*
X778712Y771820D01*
X777947Y771881D01*
X777092Y771902D01*
Y776402D01*
X777947Y776412D01*
X779972Y776556D01*
X780467Y776643D01*
X780872Y776748D01*
X781187Y776873D01*
X781412Y777018D01*
X781547Y777181D01*
X781592Y777364D01*
Y769844D01*
D02*
G37*
G36*
X789456Y757244D02*
X789281Y757064D01*
X789127Y756764D01*
X788993Y756344D01*
X788879Y755804D01*
X788787Y755144D01*
X788663Y753464D01*
X788622Y751304D01*
X782622D01*
X782612Y752444D01*
X782364Y755804D01*
X782251Y756344D01*
X782117Y756764D01*
X781963Y757064D01*
X781788Y757244D01*
X781592Y757304D01*
X789652D01*
X789456Y757244D01*
D02*
G37*
G36*
X811404Y745573D02*
X810831Y745800D01*
X810196Y745882D01*
X809501Y745818D01*
X808744Y745609D01*
X807926Y745254D01*
X807047Y744754D01*
X806106Y744109D01*
X805105Y743318D01*
X804043Y742382D01*
X802919Y741300D01*
X797432Y744299D01*
X803320Y750036D01*
X811404Y745573D01*
D02*
G37*
G36*
X924546Y634622D02*
X897123D01*
Y638428D01*
X894633D01*
Y672458D01*
X897123D01*
Y678818D01*
X924546D01*
Y634622D01*
D02*
G37*
D16*
X892983Y634613D02*
D03*
Y676273D02*
D03*
X748111Y676277D02*
D03*
Y634617D02*
D03*
X893110Y998476D02*
D03*
Y956816D02*
D03*
X748238Y957070D02*
D03*
Y998730D02*
D03*
D17*
X875483Y655443D02*
D03*
X765611Y655447D02*
D03*
X875610Y977646D02*
D03*
X765738Y977900D02*
D03*
D18*
X898083Y674493D02*
D03*
Y661793D02*
D03*
Y649093D02*
D03*
Y636393D02*
D03*
X743011Y636397D02*
D03*
Y649097D02*
D03*
Y661797D02*
D03*
Y674497D02*
D03*
X898210Y958596D02*
D03*
Y971296D02*
D03*
Y983996D02*
D03*
Y996696D02*
D03*
X743138Y996950D02*
D03*
Y984250D02*
D03*
Y971550D02*
D03*
Y958850D02*
D03*
D19*
X841883Y636393D02*
D03*
Y649093D02*
D03*
Y661793D02*
D03*
Y674493D02*
D03*
X799211Y674497D02*
D03*
Y661797D02*
D03*
Y649097D02*
D03*
Y636397D02*
D03*
X842010Y996696D02*
D03*
Y983996D02*
D03*
Y971296D02*
D03*
Y958596D02*
D03*
X799338Y958850D02*
D03*
Y971550D02*
D03*
Y984250D02*
D03*
Y996950D02*
D03*
D20*
X825373Y702243D02*
D03*
Y709743D02*
D03*
D21*
X613793Y660019D02*
D03*
X615315Y977900D02*
D03*
D22*
X852584Y855472D02*
D03*
X865124D02*
D03*
X835232Y927862D02*
D03*
X847772D02*
D03*
D23*
X1023493Y815594D02*
D03*
D24*
X892535Y906120D02*
D03*
Y896620D02*
D03*
Y887120D02*
D03*
X870225D02*
D03*
Y896620D02*
D03*
D25*
Y906120D02*
D03*
D26*
X804244Y824992D02*
D03*
X814244D02*
D03*
D27*
X825290Y851564D02*
D03*
Y858064D02*
D03*
Y864564D02*
D03*
Y871064D02*
D03*
X767290D02*
D03*
Y864564D02*
D03*
Y858064D02*
D03*
Y851564D02*
D03*
D28*
X738696Y824484D02*
D03*
X748221D02*
D03*
D29*
X903097Y1051719D02*
D03*
Y1022191D02*
D03*
D30*
X859414Y748538D02*
D03*
Y761238D02*
D03*
Y773938D02*
D03*
Y786638D02*
D03*
X812414Y748538D02*
D03*
Y761238D02*
D03*
Y773938D02*
D03*
Y786638D02*
D03*
D31*
X744220Y882062D02*
D03*
Y869522D02*
D03*
X745998Y786558D02*
D03*
Y774018D02*
D03*
X785622Y761064D02*
D03*
Y773604D02*
D03*
D47*
X668909Y902335D02*
Y917801D01*
X663956Y922754D02*
X668909Y917801D01*
Y902335D02*
X719680Y851564D01*
X645795Y900303D02*
Y957199D01*
X634492Y968502D02*
X645795Y957199D01*
Y900303D02*
X721614Y824484D01*
X625856Y882650D02*
Y967359D01*
X734488Y774018D02*
X745998D01*
X625856Y882650D02*
X734488Y774018D01*
X615315Y977900D02*
X625856Y967359D01*
X616426Y977592D02*
X621792Y996950D01*
X615315Y973582D02*
X617123Y976920D01*
X620268Y982726D01*
X615315Y973582D02*
X616426Y977592D01*
X836220Y864564D02*
X844749Y856035D01*
X852021D02*
X852584Y855472D01*
X825290Y864564D02*
X836220D01*
X844749Y856035D02*
X852021D01*
X634492Y968502D02*
X644144Y958850D01*
X620268Y982726D02*
X634492Y968502D01*
X644144Y958850D02*
X674370D01*
X719680Y851564D02*
X752094D01*
X773644Y774152D02*
X812200D01*
X746172Y774192D02*
X773256D01*
X745998Y774018D02*
X746172Y774192D01*
X773256D02*
X773430Y774366D01*
X773644Y774152D01*
X812200D02*
X812414Y773938D01*
X825290Y839016D02*
Y851564D01*
Y839016D02*
X825500Y838805D01*
Y838708D02*
Y838805D01*
X783082Y824738D02*
X803994D01*
X816408Y858064D02*
X825290D01*
X783082Y824738D02*
X816408Y858064D01*
X748475Y824738D02*
X783082D01*
X814244Y824992D02*
X823976D01*
X744220Y859438D02*
Y869522D01*
Y859438D02*
X752094Y851564D01*
X767290D01*
X721614Y824484D02*
X738696D01*
X803994Y824738D02*
X804244Y824988D01*
X748221Y824484D02*
X748475Y824738D01*
X804244Y824988D02*
Y824992D01*
X825290Y871064D02*
X836012D01*
X840645Y875697D01*
D48*
X891407Y887120D02*
X892535D01*
X890836Y884045D02*
Y886549D01*
X890397Y883605D02*
X890836Y884045D01*
X853253Y709743D02*
X890397Y746887D01*
X890836Y886549D02*
X891407Y887120D01*
X890397Y746887D02*
Y883605D01*
X825373Y687703D02*
Y702243D01*
Y687703D02*
X838583Y674493D01*
X841883D01*
X825373Y709743D02*
X853253D01*
X801751Y696087D02*
X815407Y709743D01*
X825373D01*
X799211Y674497D02*
Y693249D01*
X801751Y695789D01*
X841883Y618617D02*
Y636393D01*
X785622Y761064D02*
Y761334D01*
Y750062D02*
Y761064D01*
X797786Y740410D02*
X805914Y748538D01*
X797560Y740410D02*
X797786D01*
X805914Y748538D02*
X812414D01*
X745998Y786558D02*
Y801878D01*
D49*
X865124Y855472D02*
X878840D01*
X823533Y674493D02*
X838583D01*
X818435Y636397D02*
X831131Y649093D01*
X811787Y662747D02*
X823533Y674493D01*
X828925Y661793D02*
X841883D01*
X816229Y649097D02*
X828925Y661793D01*
X831131Y649093D02*
X841883D01*
X799211Y661797D02*
X800161Y662747D01*
X811787D01*
X799211Y649097D02*
X816229D01*
X799211Y636397D02*
X818435D01*
X903097Y1051719D02*
X903272Y1051893D01*
X927179D02*
X927354Y1052068D01*
X674370Y958850D02*
X743138D01*
X648970Y984250D02*
X743138D01*
X661444Y971550D02*
X743138D01*
X621792Y996950D02*
X743138D01*
X821690Y927862D02*
X835232D01*
X799338Y958850D02*
X817688D01*
X808482Y984250D02*
X820928Y996696D01*
X799338Y984250D02*
X808482D01*
X820928Y996696D02*
X842010D01*
X825500Y983996D02*
X842010D01*
X813054Y971550D02*
X825500Y983996D01*
X799338Y971550D02*
X813054D01*
X817688Y958850D02*
X830134Y971296D01*
X842010D01*
D50*
X960780Y906120D02*
X1029723Y820618D01*
X1047496Y798576D01*
X932967Y906120D02*
X1023493Y815594D01*
X892535Y906120D02*
X932967D01*
X903986Y896620D02*
X904240Y896366D01*
X892535Y896620D02*
X903986D01*
X853440Y884174D02*
X856386Y887120D01*
X870225D01*
X802638Y996950D02*
X812798Y1007110D01*
X813054D01*
X799338Y996950D02*
X802638D01*
X872996Y922530D02*
Y930068D01*
Y922530D02*
X878586Y916940D01*
X865886Y937178D02*
Y937514D01*
Y937178D02*
X872996Y930068D01*
X878586Y916940D02*
X891794D01*
X853694Y896620D02*
X870225D01*
X847772Y919279D02*
X860931Y906120D01*
X847772Y919279D02*
Y927862D01*
D51*
X604901Y649097D02*
X743011D01*
X617601Y636397D02*
X743011D01*
X608457Y674497D02*
X743011D01*
X604901Y649097D02*
X617601Y636397D01*
X595757Y661797D02*
X743011D01*
X593979Y660019D02*
X604901Y649097D01*
X593979Y660019D02*
X595757Y661797D01*
X608457Y674497D01*
X744220Y882062D02*
Y894842D01*
D52*
X801751Y695789D02*
Y696087D01*
X674370Y958850D02*
X686562Y946658D01*
X648970Y984250D02*
X674370Y958850D01*
X686562Y946432D02*
Y946658D01*
X711644Y921576D02*
X727100Y906120D01*
X711418Y921576D02*
X711644D01*
X727100Y906120D02*
X860931D01*
X686562Y946432D02*
X711418Y921576D01*
X860931Y906120D02*
X870225D01*
D53*
X879102Y1051631D02*
X903010D01*
X903272Y1051893D02*
X927179D01*
X903097Y991108D02*
Y1022191D01*
D54*
X859414Y761238D02*
X872236D01*
X880618Y769620D02*
Y793348D01*
X872236Y761238D02*
X880618Y769620D01*
X852584Y821382D02*
X880618Y793348D01*
X852584Y821382D02*
Y855472D01*
D55*
X842010Y958596D02*
X844542D01*
X844545Y950991D02*
Y958594D01*
X848115Y947420D02*
X858774D01*
X865885Y937515D02*
Y940309D01*
X844545Y950991D02*
X848115Y947420D01*
X844542Y958596D02*
X844545Y958594D01*
X858774Y947420D02*
X865885Y940309D01*
Y937515D02*
X865886Y937514D01*
D56*
X878840Y855472D02*
D03*
X821690Y927862D02*
D03*
D57*
X841883Y618617D02*
D03*
X801751Y696087D02*
D03*
X813054Y1007110D02*
D03*
X865886Y937514D02*
D03*
D58*
X878927Y1051457D02*
D03*
X927354Y1052068D02*
D03*
D59*
X904240Y896366D02*
D03*
X853440Y884174D02*
D03*
X891794Y916940D02*
D03*
X825500Y838708D02*
D03*
X853694Y896620D02*
D03*
D60*
X797560Y740410D02*
D03*
X785622Y750062D02*
D03*
X745998Y801878D02*
D03*
D61*
X744220Y894842D02*
D03*
D62*
X823976Y824992D02*
D03*
X840645Y875697D02*
D03*
M02*
