G04*
G04 #@! TF.GenerationSoftware,Altium Limited,Altium Designer,24.9.1 (31)*
G04*
G04 Layer_Physical_Order=2*
G04 Layer_Color=36540*
%FSLAX44Y44*%
%MOMM*%
G71*
G04*
G04 #@! TF.SameCoordinates,1B91A79F-B01D-42E7-BC63-43C39E7C3ECD*
G04*
G04*
G04 #@! TF.FilePolarity,Positive*
G04*
G01*
G75*
%ADD53C,0.4860*%
%ADD54C,0.6000*%
%ADD55C,0.7000*%
%ADD56C,0.6100*%
%ADD57C,0.8000*%
%ADD58C,1.8000*%
%ADD59C,0.4500*%
G36*
X1269492Y404876D02*
X283464D01*
Y1115314D01*
X1269492D01*
Y404876D01*
D02*
G37*
%LPC*%
G36*
X814166Y1012700D02*
X811942D01*
X809887Y1011849D01*
X808315Y1010276D01*
X807464Y1008222D01*
Y1005998D01*
X808315Y1003943D01*
X809887Y1002371D01*
X811942Y1001520D01*
X814166D01*
X816220Y1002371D01*
X817793Y1003943D01*
X818644Y1005998D01*
Y1008222D01*
X817793Y1010276D01*
X816220Y1011849D01*
X814166Y1012700D01*
D02*
G37*
G36*
X866998Y943104D02*
X864774D01*
X862719Y942253D01*
X861147Y940680D01*
X860296Y938626D01*
Y936402D01*
X861147Y934348D01*
X862719Y932775D01*
X864774Y931924D01*
X866998D01*
X869053Y932775D01*
X870625Y934348D01*
X871476Y936402D01*
Y938626D01*
X870625Y940680D01*
X869053Y942253D01*
X866998Y943104D01*
D02*
G37*
G36*
X892783Y921910D02*
X890805D01*
X888979Y921153D01*
X887581Y919755D01*
X886824Y917929D01*
Y915951D01*
X887581Y914125D01*
X888979Y912727D01*
X890805Y911970D01*
X892783D01*
X894609Y912727D01*
X896007Y914125D01*
X896764Y915951D01*
Y917929D01*
X896007Y919755D01*
X894609Y921153D01*
X892783Y921910D01*
D02*
G37*
G36*
X905229Y901336D02*
X903251D01*
X901425Y900579D01*
X900027Y899181D01*
X899270Y897355D01*
Y895377D01*
X900027Y893551D01*
X901425Y892153D01*
X903251Y891396D01*
X905229D01*
X907055Y892153D01*
X908453Y893551D01*
X909210Y895377D01*
Y897355D01*
X908453Y899181D01*
X907055Y900579D01*
X905229Y901336D01*
D02*
G37*
G36*
X854429Y889144D02*
X852451D01*
X850625Y888387D01*
X849227Y886989D01*
X848470Y885163D01*
Y883185D01*
X849227Y881359D01*
X850625Y879961D01*
X852451Y879204D01*
X854429D01*
X856255Y879961D01*
X857653Y881359D01*
X858410Y883185D01*
Y885163D01*
X857653Y886989D01*
X856255Y888387D01*
X854429Y889144D01*
D02*
G37*
G36*
X826489Y843678D02*
X824511D01*
X822685Y842921D01*
X821287Y841523D01*
X820530Y839697D01*
Y837719D01*
X821287Y835893D01*
X822685Y834495D01*
X824511Y833738D01*
X826489D01*
X828315Y834495D01*
X829713Y835893D01*
X830470Y837719D01*
Y839697D01*
X829713Y841523D01*
X828315Y842921D01*
X826489Y843678D01*
D02*
G37*
G36*
X815182Y590552D02*
X812958D01*
X810903Y589701D01*
X809331Y588129D01*
X808480Y586074D01*
Y583850D01*
X809331Y581796D01*
X810903Y580223D01*
X812958Y579372D01*
X815182D01*
X817236Y580223D01*
X818809Y581796D01*
X819660Y583850D01*
Y586074D01*
X818809Y588129D01*
X817236Y589701D01*
X815182Y590552D01*
D02*
G37*
G36*
X830168Y522988D02*
X827944D01*
X825890Y522137D01*
X824317Y520564D01*
X823466Y518510D01*
Y516286D01*
X824317Y514231D01*
X825890Y512659D01*
X827944Y511808D01*
X830168D01*
X832223Y512659D01*
X833795Y514231D01*
X834646Y516286D01*
Y518510D01*
X833795Y520564D01*
X832223Y522137D01*
X830168Y522988D01*
D02*
G37*
%LPD*%
D53*
X904240Y896366D02*
D03*
X853440Y884174D02*
D03*
X891794Y916940D02*
D03*
X825500Y838708D02*
D03*
X853694Y896620D02*
D03*
D54*
X797560Y740410D02*
D03*
X785622Y750062D02*
D03*
X745998Y801878D02*
D03*
D55*
X744220Y894842D02*
D03*
D56*
X813054Y1007110D02*
D03*
X829056Y517398D02*
D03*
X814070Y584962D02*
D03*
X865886Y937514D02*
D03*
D57*
X899922Y855472D02*
D03*
X821690Y927862D02*
D03*
D58*
X879856Y1046988D02*
D03*
D59*
X823976Y824992D02*
D03*
X840645Y875697D02*
D03*
M02*
