G04*
G04 #@! TF.GenerationSoftware,Altium Limited,Altium Designer,24.9.1 (31)*
G04*
G04 Layer_Color=8388736*
%FSLAX44Y44*%
%MOMM*%
G71*
G04*
G04 #@! TF.SameCoordinates,8590F6A5-7837-48F7-9A02-AE0D2931B4B9*
G04*
G04*
G04 #@! TF.FilePolarity,Negative*
G04*
G01*
G75*
%ADD22R,0.7581X0.8121*%
G04:AMPARAMS|DCode=24|XSize=0.9397mm|YSize=0.4858mm|CornerRadius=0.2429mm|HoleSize=0mm|Usage=FLASHONLY|Rotation=0.000|XOffset=0mm|YOffset=0mm|HoleType=Round|Shape=RoundedRectangle|*
%AMROUNDEDRECTD24*
21,1,0.9397,0.0000,0,0,0.0*
21,1,0.4539,0.4858,0,0,0.0*
1,1,0.4858,0.2269,0.0000*
1,1,0.4858,-0.2269,0.0000*
1,1,0.4858,-0.2269,0.0000*
1,1,0.4858,0.2269,0.0000*
%
%ADD24ROUNDEDRECTD24*%
%ADD25R,0.9397X0.4858*%
%ADD26R,0.5000X0.6000*%
G04:AMPARAMS|DCode=27|XSize=1.5mm|YSize=0.45mm|CornerRadius=0.0495mm|HoleSize=0mm|Usage=FLASHONLY|Rotation=180.000|XOffset=0mm|YOffset=0mm|HoleType=Round|Shape=RoundedRectangle|*
%AMROUNDEDRECTD27*
21,1,1.5000,0.3510,0,0,180.0*
21,1,1.4010,0.4500,0,0,180.0*
1,1,0.0990,-0.7005,0.1755*
1,1,0.0990,0.7005,0.1755*
1,1,0.0990,0.7005,-0.1755*
1,1,0.0990,-0.7005,-0.1755*
%
%ADD27ROUNDEDRECTD27*%
%ADD28R,0.7596X0.7158*%
%ADD29R,1.8582X1.5055*%
%ADD31R,0.8121X0.7581*%
%ADD32R,0.5232X0.4582*%
%ADD33R,4.0132X4.1132*%
%ADD34R,0.9132X0.8132*%
%ADD35R,1.4732X0.8132*%
%ADD36R,0.7032X0.7532*%
%ADD37R,20.2032X14.2032*%
%ADD38R,20.2032X40.2032*%
%ADD39O,2.1032X0.8032*%
%ADD40C,1.0032*%
%ADD41C,0.8132*%
%ADD42C,2.0032*%
%ADD43C,0.6892*%
%ADD44C,0.8032*%
%ADD45C,0.9032*%
%ADD46C,0.6532*%
D22*
X852584Y855472D02*
D03*
X865124D02*
D03*
X835232Y927862D02*
D03*
X847772D02*
D03*
D24*
X892535Y906120D02*
D03*
Y896620D02*
D03*
Y887120D02*
D03*
X870225D02*
D03*
Y896620D02*
D03*
D25*
Y906120D02*
D03*
D26*
X804244Y824992D02*
D03*
X814244D02*
D03*
D27*
X825290Y851564D02*
D03*
Y858064D02*
D03*
Y864564D02*
D03*
Y871064D02*
D03*
X767290D02*
D03*
Y864564D02*
D03*
Y858064D02*
D03*
Y851564D02*
D03*
D28*
X738696Y824484D02*
D03*
X748221D02*
D03*
D29*
X903097Y1051719D02*
D03*
Y1022191D02*
D03*
D31*
X744220Y882062D02*
D03*
Y869522D02*
D03*
X745998Y786558D02*
D03*
Y774018D02*
D03*
X785622Y761064D02*
D03*
Y773604D02*
D03*
D32*
X892983Y634613D02*
D03*
Y676273D02*
D03*
X748111Y676277D02*
D03*
Y634617D02*
D03*
X893110Y998476D02*
D03*
Y956816D02*
D03*
X748238Y957070D02*
D03*
Y998730D02*
D03*
D33*
X875483Y655443D02*
D03*
X765611Y655447D02*
D03*
X875610Y977646D02*
D03*
X765738Y977900D02*
D03*
D34*
X898083Y674493D02*
D03*
Y661793D02*
D03*
Y649093D02*
D03*
Y636393D02*
D03*
X743011Y636397D02*
D03*
Y649097D02*
D03*
Y661797D02*
D03*
Y674497D02*
D03*
X898210Y958596D02*
D03*
Y971296D02*
D03*
Y983996D02*
D03*
Y996696D02*
D03*
X743138Y996950D02*
D03*
Y984250D02*
D03*
Y971550D02*
D03*
Y958850D02*
D03*
D35*
X841883Y636393D02*
D03*
Y649093D02*
D03*
Y661793D02*
D03*
Y674493D02*
D03*
X799211Y674497D02*
D03*
Y661797D02*
D03*
Y649097D02*
D03*
Y636397D02*
D03*
X842010Y996696D02*
D03*
Y983996D02*
D03*
Y971296D02*
D03*
Y958596D02*
D03*
X799338Y958850D02*
D03*
Y971550D02*
D03*
Y984250D02*
D03*
Y996950D02*
D03*
D36*
X825373Y702243D02*
D03*
Y709743D02*
D03*
D37*
X613793Y660019D02*
D03*
X615315Y977900D02*
D03*
D38*
X1023493Y815594D02*
D03*
D39*
X859414Y748538D02*
D03*
Y761238D02*
D03*
Y773938D02*
D03*
Y786638D02*
D03*
X812414Y748538D02*
D03*
Y761238D02*
D03*
Y773938D02*
D03*
Y786638D02*
D03*
D40*
X878840Y855472D02*
D03*
X821690Y927862D02*
D03*
D41*
X841883Y618617D02*
D03*
X801751Y696087D02*
D03*
X813054Y1007110D02*
D03*
X865886Y937514D02*
D03*
D42*
X878927Y1051457D02*
D03*
X927354Y1052068D02*
D03*
D43*
X904240Y896366D02*
D03*
X853440Y884174D02*
D03*
X891794Y916940D02*
D03*
X825500Y838708D02*
D03*
X853694Y896620D02*
D03*
D44*
X797560Y740410D02*
D03*
X785622Y750062D02*
D03*
X745998Y801878D02*
D03*
D45*
X744220Y894842D02*
D03*
D46*
X823976Y824992D02*
D03*
X840645Y875697D02*
D03*
M02*
