G04*
G04 #@! TF.GenerationSoftware,Altium Limited,Altium Designer,24.9.1 (31)*
G04*
G04 Layer_Color=8388736*
%FSLAX44Y44*%
%MOMM*%
G71*
G04*
G04 #@! TF.SameCoordinates,1B91A79F-B01D-42E7-BC63-43C39E7C3ECD*
G04*
G04*
G04 #@! TF.FilePolarity,Negative*
G04*
G01*
G75*
%ADD19R,1.8582X1.5055*%
%ADD20R,0.8121X0.7581*%
%ADD21R,0.7581X0.8121*%
%ADD23R,0.5000X0.6000*%
%ADD24R,0.7596X0.7158*%
G04:AMPARAMS|DCode=25|XSize=1.5mm|YSize=0.45mm|CornerRadius=0.0495mm|HoleSize=0mm|Usage=FLASHONLY|Rotation=180.000|XOffset=0mm|YOffset=0mm|HoleType=Round|Shape=RoundedRectangle|*
%AMROUNDEDRECTD25*
21,1,1.5000,0.3510,0,0,180.0*
21,1,1.4010,0.4500,0,0,180.0*
1,1,0.0990,-0.7005,0.1755*
1,1,0.0990,0.7005,0.1755*
1,1,0.0990,0.7005,-0.1755*
1,1,0.0990,-0.7005,-0.1755*
%
%ADD25ROUNDEDRECTD25*%
G04:AMPARAMS|DCode=26|XSize=0.9397mm|YSize=0.4858mm|CornerRadius=0.2429mm|HoleSize=0mm|Usage=FLASHONLY|Rotation=0.000|XOffset=0mm|YOffset=0mm|HoleType=Round|Shape=RoundedRectangle|*
%AMROUNDEDRECTD26*
21,1,0.9397,0.0000,0,0,0.0*
21,1,0.4539,0.4858,0,0,0.0*
1,1,0.4858,0.2269,0.0000*
1,1,0.4858,-0.2269,0.0000*
1,1,0.4858,-0.2269,0.0000*
1,1,0.4858,0.2269,0.0000*
%
%ADD26ROUNDEDRECTD26*%
%ADD27R,0.9397X0.4858*%
%ADD29R,1.4732X0.8132*%
%ADD30R,0.9132X0.8132*%
%ADD31R,4.0132X4.1132*%
%ADD32R,0.5232X0.4582*%
%ADD33O,2.1032X0.8032*%
%ADD34R,0.7532X0.7032*%
%ADD35C,0.6892*%
%ADD36C,0.8032*%
%ADD37C,0.9032*%
%ADD38C,0.8132*%
%ADD39C,1.0032*%
%ADD40C,2.0032*%
%ADD41C,0.6532*%
G36*
X692283Y1110990D02*
X692413Y1110964D01*
X692540Y1110921D01*
X692659Y1110862D01*
X692770Y1110788D01*
X692870Y1110700D01*
X692958Y1110600D01*
X693032Y1110489D01*
X693091Y1110370D01*
X693133Y1110244D01*
X693159Y1110113D01*
X693168Y1109980D01*
Y845820D01*
X693159Y845687D01*
X693133Y845556D01*
X693091Y845430D01*
X693032Y845311D01*
X692958Y845200D01*
X692870Y845100D01*
X692770Y845012D01*
X692659Y844938D01*
X692540Y844879D01*
X692413Y844837D01*
X692283Y844810D01*
X692150Y844802D01*
X288036D01*
X288036Y844802D01*
X288035Y844802D01*
X287968Y844806D01*
X287903Y844810D01*
X287903Y844811D01*
X287902Y844811D01*
X287838Y844824D01*
X287773Y844837D01*
X287772Y844837D01*
X287771Y844837D01*
X287711Y844857D01*
X287646Y844879D01*
X287646Y844880D01*
X287645Y844880D01*
X287585Y844909D01*
X287527Y844938D01*
X287526Y844939D01*
X287526Y844939D01*
X287463Y844981D01*
X287416Y845012D01*
X287416Y845013D01*
X287415Y845013D01*
X287360Y845062D01*
X287316Y845100D01*
X287316Y845100D01*
X287315Y845101D01*
X287276Y845145D01*
X287228Y845200D01*
X287228Y845201D01*
X287228Y845201D01*
X287196Y845248D01*
X287154Y845311D01*
X287154Y845311D01*
X287154Y845312D01*
X287125Y845371D01*
X287095Y845430D01*
X287095Y845431D01*
X287095Y845431D01*
X287073Y845497D01*
X287052Y845556D01*
X287052Y845557D01*
X287052Y845557D01*
X287039Y845624D01*
X287027Y845687D01*
X287027Y845688D01*
X287026Y845688D01*
X287022Y845754D01*
X287018Y845820D01*
X287018Y845820D01*
X287018Y845821D01*
X287272Y1109981D01*
X287276Y1110048D01*
X287281Y1110113D01*
X287281Y1110113D01*
X287281Y1110114D01*
X287293Y1110178D01*
X287306Y1110244D01*
X287307Y1110244D01*
X287307Y1110245D01*
X287327Y1110305D01*
X287349Y1110370D01*
X287349Y1110370D01*
X287350Y1110371D01*
X287382Y1110437D01*
X287408Y1110489D01*
X287408Y1110489D01*
X287409Y1110490D01*
X287455Y1110558D01*
X287482Y1110600D01*
X287482Y1110600D01*
X287483Y1110601D01*
X287532Y1110656D01*
X287570Y1110700D01*
X287570Y1110700D01*
X287571Y1110701D01*
X287622Y1110745D01*
X287670Y1110788D01*
X287670Y1110788D01*
X287671Y1110788D01*
X287729Y1110827D01*
X287781Y1110862D01*
X287781Y1110862D01*
X287782Y1110862D01*
X287841Y1110891D01*
X287900Y1110921D01*
X287901Y1110921D01*
X287901Y1110921D01*
X287967Y1110943D01*
X288027Y1110964D01*
X288027Y1110964D01*
X288027Y1110964D01*
X288094Y1110977D01*
X288157Y1110990D01*
X288158Y1110990D01*
X288158Y1110990D01*
X288224Y1110994D01*
X288290Y1110998D01*
X692150D01*
X692283Y1110990D01*
D02*
G37*
G36*
X1267085Y1073652D02*
X1267215Y1073625D01*
X1267342Y1073583D01*
X1267461Y1073524D01*
X1267572Y1073450D01*
X1267672Y1073362D01*
X1267760Y1073262D01*
X1267834Y1073151D01*
X1267893Y1073032D01*
X1267935Y1072906D01*
X1267962Y1072775D01*
X1267970Y1072642D01*
Y452882D01*
X1267962Y452749D01*
X1267935Y452618D01*
X1267893Y452492D01*
X1267834Y452373D01*
X1267760Y452262D01*
X1267672Y452162D01*
X1267572Y452074D01*
X1267461Y452000D01*
X1267342Y451941D01*
X1267215Y451898D01*
X1267085Y451872D01*
X1266952Y451864D01*
X927354D01*
X927221Y451872D01*
X927091Y451898D01*
X926964Y451941D01*
X926845Y452000D01*
X926734Y452074D01*
X926634Y452162D01*
X926546Y452262D01*
X926472Y452373D01*
X926413Y452492D01*
X926370Y452618D01*
X926345Y452749D01*
X926336Y452882D01*
Y1072642D01*
X926345Y1072775D01*
X926370Y1072906D01*
X926413Y1073032D01*
X926472Y1073151D01*
X926546Y1073262D01*
X926634Y1073362D01*
X926734Y1073450D01*
X926845Y1073524D01*
X926964Y1073583D01*
X927091Y1073625D01*
X927221Y1073652D01*
X927354Y1073660D01*
X1266952D01*
X1267085Y1073652D01*
D02*
G37*
G36*
X692283Y676142D02*
X692413Y676115D01*
X692540Y676073D01*
X692659Y676014D01*
X692770Y675940D01*
X692870Y675852D01*
X692958Y675752D01*
X693032Y675641D01*
X693091Y675522D01*
X693133Y675396D01*
X693159Y675265D01*
X693168Y675132D01*
Y410972D01*
X693159Y410839D01*
X693133Y410709D01*
X693091Y410582D01*
X693032Y410463D01*
X692958Y410352D01*
X692870Y410252D01*
X692770Y410164D01*
X692659Y410090D01*
X692540Y410031D01*
X692413Y409989D01*
X692283Y409963D01*
X692150Y409954D01*
X288036D01*
X288036Y409954D01*
X288035Y409954D01*
X287968Y409958D01*
X287903Y409963D01*
X287903Y409963D01*
X287902Y409963D01*
X287838Y409976D01*
X287773Y409989D01*
X287772Y409989D01*
X287771Y409989D01*
X287711Y410009D01*
X287646Y410031D01*
X287646Y410032D01*
X287645Y410032D01*
X287585Y410061D01*
X287527Y410090D01*
X287526Y410090D01*
X287526Y410091D01*
X287463Y410133D01*
X287416Y410164D01*
X287416Y410164D01*
X287415Y410165D01*
X287360Y410214D01*
X287316Y410252D01*
X287316Y410252D01*
X287315Y410253D01*
X287276Y410297D01*
X287228Y410352D01*
X287228Y410353D01*
X287228Y410353D01*
X287196Y410401D01*
X287154Y410463D01*
X287154Y410463D01*
X287154Y410464D01*
X287125Y410523D01*
X287095Y410582D01*
X287095Y410583D01*
X287095Y410583D01*
X287073Y410649D01*
X287052Y410709D01*
X287052Y410709D01*
X287052Y410709D01*
X287039Y410776D01*
X287027Y410839D01*
X287027Y410840D01*
X287026Y410840D01*
X287022Y410906D01*
X287018Y410972D01*
X287018Y410973D01*
X287018Y410973D01*
X287272Y675133D01*
X287276Y675200D01*
X287281Y675265D01*
X287281Y675265D01*
X287281Y675266D01*
X287293Y675330D01*
X287306Y675396D01*
X287307Y675396D01*
X287307Y675396D01*
X287327Y675457D01*
X287349Y675522D01*
X287349Y675522D01*
X287350Y675523D01*
X287382Y675589D01*
X287408Y675641D01*
X287408Y675641D01*
X287409Y675642D01*
X287455Y675711D01*
X287482Y675752D01*
X287482Y675752D01*
X287483Y675753D01*
X287532Y675808D01*
X287570Y675852D01*
X287570Y675852D01*
X287571Y675853D01*
X287622Y675897D01*
X287670Y675940D01*
X287670Y675940D01*
X287671Y675940D01*
X287729Y675979D01*
X287781Y676014D01*
X287781Y676014D01*
X287782Y676014D01*
X287841Y676043D01*
X287900Y676073D01*
X287901Y676073D01*
X287901Y676073D01*
X287967Y676095D01*
X288027Y676115D01*
X288027Y676116D01*
X288027Y676116D01*
X288094Y676129D01*
X288157Y676142D01*
X288158Y676142D01*
X288158Y676142D01*
X288224Y676146D01*
X288290Y676150D01*
X692150D01*
X692283Y676142D01*
D02*
G37*
D19*
X910844Y1046004D02*
D03*
Y1016476D02*
D03*
D20*
X745998Y786558D02*
D03*
Y774018D02*
D03*
X785622Y761064D02*
D03*
Y773604D02*
D03*
X744220Y882062D02*
D03*
Y869522D02*
D03*
D21*
X886380Y855472D02*
D03*
X873840D02*
D03*
X835232Y927862D02*
D03*
X847772D02*
D03*
D23*
X804244Y824992D02*
D03*
X814244D02*
D03*
D24*
X738696Y824484D02*
D03*
X748221D02*
D03*
D25*
X825290Y851564D02*
D03*
Y858064D02*
D03*
Y864564D02*
D03*
Y871064D02*
D03*
X767290D02*
D03*
Y864564D02*
D03*
Y858064D02*
D03*
Y851564D02*
D03*
D26*
X892535Y906120D02*
D03*
Y896620D02*
D03*
Y887120D02*
D03*
X870225D02*
D03*
Y896620D02*
D03*
D27*
Y906120D02*
D03*
D29*
X799338Y958850D02*
D03*
Y971550D02*
D03*
Y984250D02*
D03*
Y996950D02*
D03*
X842010Y996696D02*
D03*
Y983996D02*
D03*
Y971296D02*
D03*
Y958596D02*
D03*
Y565400D02*
D03*
Y552700D02*
D03*
Y540000D02*
D03*
Y527300D02*
D03*
X799340Y527304D02*
D03*
Y540004D02*
D03*
Y552704D02*
D03*
Y565404D02*
D03*
D30*
X743138Y996950D02*
D03*
Y984250D02*
D03*
Y971550D02*
D03*
Y958850D02*
D03*
X898210Y958596D02*
D03*
Y971296D02*
D03*
Y983996D02*
D03*
Y996696D02*
D03*
Y527300D02*
D03*
Y540000D02*
D03*
Y552700D02*
D03*
Y565400D02*
D03*
X743140Y565404D02*
D03*
Y552704D02*
D03*
Y540004D02*
D03*
Y527304D02*
D03*
D31*
X765738Y977900D02*
D03*
X875610Y977646D02*
D03*
Y546350D02*
D03*
X765740Y546354D02*
D03*
D32*
X748238Y957070D02*
D03*
Y998730D02*
D03*
X893110Y998476D02*
D03*
Y956816D02*
D03*
Y567180D02*
D03*
Y525520D02*
D03*
X748240Y525524D02*
D03*
Y567184D02*
D03*
D33*
X859414Y748538D02*
D03*
Y761238D02*
D03*
Y773938D02*
D03*
Y786638D02*
D03*
X812414Y748538D02*
D03*
Y761238D02*
D03*
Y773938D02*
D03*
Y786638D02*
D03*
D34*
X834958Y582168D02*
D03*
X842458D02*
D03*
D35*
X904240Y896366D02*
D03*
X853440Y884174D02*
D03*
X891794Y916940D02*
D03*
X825500Y838708D02*
D03*
X853694Y896620D02*
D03*
D36*
X797560Y740410D02*
D03*
X785622Y750062D02*
D03*
X745998Y801878D02*
D03*
D37*
X744220Y894842D02*
D03*
D38*
X813054Y1007110D02*
D03*
X829056Y517398D02*
D03*
X814070Y584962D02*
D03*
X865886Y937514D02*
D03*
D39*
X899922Y855472D02*
D03*
X821690Y927862D02*
D03*
D40*
X879856Y1046988D02*
D03*
D41*
X823976Y824992D02*
D03*
X840645Y875697D02*
D03*
M02*
