G04*
G04 #@! TF.GenerationSoftware,Altium Limited,Altium Designer,24.9.1 (31)*
G04*
G04 Layer_Color=16711935*
%FSLAX44Y44*%
%MOMM*%
G71*
G04*
G04 #@! TF.SameCoordinates,8590F6A5-7837-48F7-9A02-AE0D2931B4B9*
G04*
G04*
G04 #@! TF.FilePolarity,Negative*
G04*
G01*
G75*
%ADD37R,20.2032X14.2032*%
%ADD38R,20.2032X40.2032*%
%ADD40C,1.0032*%
%ADD41C,0.8132*%
%ADD42C,2.0032*%
%ADD43C,0.6892*%
%ADD44C,0.8032*%
%ADD45C,0.9032*%
%ADD46C,0.6532*%
D37*
X615320Y977900D02*
D03*
X613790Y660020D02*
D03*
D38*
X1023490Y815590D02*
D03*
D40*
X878840Y855472D02*
D03*
X821690Y927862D02*
D03*
D41*
X841883Y618617D02*
D03*
X801751Y696087D02*
D03*
X813054Y1007110D02*
D03*
X865886Y937514D02*
D03*
D42*
X878927Y1051457D02*
D03*
X927354Y1052068D02*
D03*
D43*
X904240Y896366D02*
D03*
X853440Y884174D02*
D03*
X891794Y916940D02*
D03*
X825500Y838708D02*
D03*
X853694Y896620D02*
D03*
D44*
X797560Y740410D02*
D03*
X785622Y750062D02*
D03*
X745998Y801878D02*
D03*
D45*
X744220Y894842D02*
D03*
D46*
X823976Y824992D02*
D03*
X840645Y875697D02*
D03*
M02*
