G04*
G04 #@! TF.GenerationSoftware,Altium Limited,Altium Designer,24.9.1 (31)*
G04*
G04 Layer_Physical_Order=2*
G04 Layer_Color=36540*
%FSLAX44Y44*%
%MOMM*%
G71*
G04*
G04 #@! TF.SameCoordinates,8590F6A5-7837-48F7-9A02-AE0D2931B4B9*
G04*
G04*
G04 #@! TF.FilePolarity,Positive*
G04*
G01*
G75*
%ADD56C,0.8000*%
%ADD57C,0.6100*%
%ADD58C,1.8000*%
%ADD59C,0.4860*%
%ADD60C,0.6000*%
%ADD61C,0.7000*%
%ADD62C,0.4500*%
G36*
X1128649Y574675D02*
X510540D01*
Y1064006D01*
X1128649D01*
Y574675D01*
D02*
G37*
%LPC*%
G36*
X814166Y1012700D02*
X811942D01*
X809887Y1011849D01*
X808315Y1010276D01*
X807464Y1008222D01*
Y1005998D01*
X808315Y1003943D01*
X809887Y1002371D01*
X811942Y1001520D01*
X814166D01*
X816220Y1002371D01*
X817793Y1003943D01*
X818644Y1005998D01*
Y1008222D01*
X817793Y1010276D01*
X816220Y1011849D01*
X814166Y1012700D01*
D02*
G37*
G36*
X866998Y943104D02*
X864774D01*
X862719Y942253D01*
X861147Y940680D01*
X860296Y938626D01*
Y936402D01*
X861147Y934348D01*
X862719Y932775D01*
X864774Y931924D01*
X866998D01*
X869053Y932775D01*
X870625Y934348D01*
X871476Y936402D01*
Y938626D01*
X870625Y940680D01*
X869053Y942253D01*
X866998Y943104D01*
D02*
G37*
G36*
X892783Y921910D02*
X890805D01*
X888979Y921153D01*
X887581Y919755D01*
X886824Y917929D01*
Y915951D01*
X887581Y914125D01*
X888979Y912727D01*
X890805Y911970D01*
X892783D01*
X894609Y912727D01*
X896007Y914125D01*
X896764Y915951D01*
Y917929D01*
X896007Y919755D01*
X894609Y921153D01*
X892783Y921910D01*
D02*
G37*
G36*
X905229Y901336D02*
X903251D01*
X901425Y900579D01*
X900027Y899181D01*
X899270Y897355D01*
Y895377D01*
X900027Y893551D01*
X901425Y892153D01*
X903251Y891396D01*
X905229D01*
X907055Y892153D01*
X908453Y893551D01*
X909210Y895377D01*
Y897355D01*
X908453Y899181D01*
X907055Y900579D01*
X905229Y901336D01*
D02*
G37*
G36*
X854429Y889144D02*
X852451D01*
X850625Y888387D01*
X849227Y886989D01*
X848470Y885163D01*
Y883185D01*
X849227Y881359D01*
X850625Y879961D01*
X852451Y879204D01*
X854429D01*
X856255Y879961D01*
X857653Y881359D01*
X858410Y883185D01*
Y885163D01*
X857653Y886989D01*
X856255Y888387D01*
X854429Y889144D01*
D02*
G37*
G36*
X826489Y843678D02*
X824511D01*
X822685Y842921D01*
X821287Y841523D01*
X820530Y839697D01*
Y837719D01*
X821287Y835893D01*
X822685Y834495D01*
X824511Y833738D01*
X826489D01*
X828315Y834495D01*
X829713Y835893D01*
X830470Y837719D01*
Y839697D01*
X829713Y841523D01*
X828315Y842921D01*
X826489Y843678D01*
D02*
G37*
G36*
X802863Y701677D02*
X800639D01*
X798585Y700826D01*
X797012Y699253D01*
X796161Y697199D01*
Y694975D01*
X797012Y692921D01*
X798585Y691348D01*
X800639Y690497D01*
X802863D01*
X804918Y691348D01*
X806490Y692921D01*
X807341Y694975D01*
Y697199D01*
X806490Y699253D01*
X804918Y700826D01*
X802863Y701677D01*
D02*
G37*
G36*
X842995Y624207D02*
X840771D01*
X838717Y623356D01*
X837144Y621783D01*
X836293Y619729D01*
Y617505D01*
X837144Y615451D01*
X838717Y613878D01*
X840771Y613027D01*
X842995D01*
X845050Y613878D01*
X846622Y615451D01*
X847473Y617505D01*
Y619729D01*
X846622Y621783D01*
X845050Y623356D01*
X842995Y624207D01*
D02*
G37*
%LPD*%
D56*
X878840Y855472D02*
D03*
X821690Y927862D02*
D03*
D57*
X841883Y618617D02*
D03*
X801751Y696087D02*
D03*
X813054Y1007110D02*
D03*
X865886Y937514D02*
D03*
D58*
X878927Y1051457D02*
D03*
X927354Y1052068D02*
D03*
D59*
X904240Y896366D02*
D03*
X853440Y884174D02*
D03*
X891794Y916940D02*
D03*
X825500Y838708D02*
D03*
X853694Y896620D02*
D03*
D60*
X797560Y740410D02*
D03*
X785622Y750062D02*
D03*
X745998Y801878D02*
D03*
D61*
X744220Y894842D02*
D03*
D62*
X823976Y824992D02*
D03*
X840645Y875697D02*
D03*
M02*
