G04*
G04 #@! TF.GenerationSoftware,Altium Limited,Altium Designer,24.9.1 (31)*
G04*
G04 Layer_Color=65535*
%FSLAX44Y44*%
%MOMM*%
G71*
G04*
G04 #@! TF.SameCoordinates,8590F6A5-7837-48F7-9A02-AE0D2931B4B9*
G04*
G04*
G04 #@! TF.FilePolarity,Positive*
G04*
G01*
G75*
%ADD10C,0.2000*%
%ADD11C,0.2500*%
%ADD12C,0.4000*%
%ADD13C,0.1000*%
%ADD14C,0.2540*%
%ADD15C,0.1800*%
G36*
X584105Y840329D02*
X584155Y840313D01*
X584364Y840288D01*
X584448Y840271D01*
X584548Y840254D01*
X584815Y840187D01*
X585007Y840129D01*
X585091Y840096D01*
X585199Y840054D01*
X585283Y840020D01*
X585466Y839937D01*
X585759Y839778D01*
X586101Y839553D01*
X586126Y839528D01*
X586160Y839511D01*
X586193Y839478D01*
X586226Y839461D01*
X586293Y839394D01*
X586326Y839377D01*
X586393Y839311D01*
X586427Y839294D01*
X586819Y838901D01*
X586836Y838868D01*
X586903Y838801D01*
X586919Y838768D01*
X586986Y838701D01*
X587003Y838668D01*
X587036Y838634D01*
X587053Y838601D01*
X587103Y838551D01*
X587120Y838517D01*
X587287Y838283D01*
X587304Y838250D01*
X587387Y838133D01*
X587554Y837833D01*
X587871Y837181D01*
X587905Y837098D01*
X588005Y836864D01*
X588063Y836705D01*
X588147Y836471D01*
X588306Y835945D01*
X588339Y835828D01*
X588423Y835494D01*
X588456Y835378D01*
X588481Y835269D01*
X588531Y835018D01*
X588548Y834952D01*
X588581Y834785D01*
X588648Y834384D01*
X588665Y834300D01*
X588740Y833707D01*
X588756Y833641D01*
X588782Y833365D01*
X588798Y833198D01*
X588815Y832998D01*
X588848Y832563D01*
X588865Y832213D01*
X588882Y831795D01*
X588890Y830284D01*
X588873Y830234D01*
X588857Y829432D01*
X588840Y829382D01*
X588815Y828906D01*
X588782Y828421D01*
X588765Y828204D01*
X588748Y827971D01*
X588731Y827754D01*
X588698Y827286D01*
X588681Y827069D01*
X588665Y827035D01*
X587980Y828338D01*
X587771Y828730D01*
X587688Y828864D01*
X587671Y828897D01*
X587604Y828998D01*
X587587Y829031D01*
X587504Y829148D01*
X587487Y829181D01*
X587404Y829298D01*
X587387Y829332D01*
X587354Y829365D01*
X587337Y829398D01*
X587011Y829841D01*
X586986Y829866D01*
X586969Y829900D01*
X586936Y829933D01*
X586919Y829966D01*
X586869Y830016D01*
X586853Y830050D01*
X586802Y830100D01*
X586786Y830133D01*
X586719Y830200D01*
X586702Y830234D01*
X586636Y830300D01*
X586619Y830334D01*
X586535Y830417D01*
X586519Y830451D01*
X586418Y830551D01*
X586402Y830584D01*
X586235Y830751D01*
X586218Y830785D01*
X585558Y831444D01*
X585525Y831461D01*
X585391Y831595D01*
X585358Y831611D01*
X585241Y831728D01*
X585207Y831745D01*
X585158Y831795D01*
X585124Y831812D01*
X585074Y831862D01*
X585041Y831879D01*
X584990Y831929D01*
X584957Y831945D01*
X584924Y831979D01*
X584890Y831995D01*
X584423Y832330D01*
X584389Y832346D01*
X584256Y832430D01*
X584222Y832447D01*
X584122Y832513D01*
X584089Y832530D01*
X583905Y832630D01*
X583287Y832931D01*
X583203Y832964D01*
X583087Y833014D01*
X582828Y833106D01*
X582686Y833148D01*
X582335Y833248D01*
X582268Y833265D01*
X582160Y833290D01*
X582076Y833307D01*
X582009Y833323D01*
X581809Y833357D01*
X581466Y833398D01*
X581300Y833415D01*
X580982Y833432D01*
X580214Y833415D01*
X580164Y833398D01*
X579930Y833382D01*
X579880Y833365D01*
X579688Y833340D01*
X579588Y833323D01*
X579421Y833290D01*
X579354Y833273D01*
X579479Y833198D01*
X579512Y833181D01*
X579646Y833098D01*
X579679Y833081D01*
X579813Y832998D01*
X579846Y832981D01*
X579980Y832897D01*
X580014Y832881D01*
X580114Y832814D01*
X580147Y832797D01*
X580331Y832680D01*
X580364Y832664D01*
X580548Y832547D01*
X580581Y832530D01*
X580698Y832447D01*
X580815Y832380D01*
X580915Y832313D01*
X580949Y832296D01*
X581066Y832213D01*
X581099Y832196D01*
X581216Y832113D01*
X581249Y832096D01*
X581366Y832012D01*
X581483Y831945D01*
X581600Y831862D01*
X581633Y831845D01*
X581667Y831812D01*
X581700Y831795D01*
X581817Y831712D01*
X581851Y831695D01*
X581968Y831611D01*
X582001Y831595D01*
X582352Y831344D01*
X582385Y831328D01*
X582419Y831294D01*
X582452Y831277D01*
X583128Y830785D01*
X583228Y830718D01*
X583254Y830693D01*
X583287Y830676D01*
X583320Y830643D01*
X583354Y830626D01*
X583387Y830593D01*
X583420Y830576D01*
X583454Y830543D01*
X583487Y830526D01*
X583537Y830476D01*
X583571Y830459D01*
X583604Y830426D01*
X583638Y830409D01*
X583671Y830376D01*
X583704Y830359D01*
X583738Y830325D01*
X583771Y830309D01*
X583805Y830275D01*
X583838Y830259D01*
X583888Y830209D01*
X583922Y830192D01*
X583955Y830158D01*
X583988Y830142D01*
X584039Y830092D01*
X584072Y830075D01*
X584105Y830042D01*
X584139Y830025D01*
X584189Y829975D01*
X584222Y829958D01*
X584272Y829908D01*
X584306Y829891D01*
X584356Y829841D01*
X584389Y829824D01*
X584439Y829774D01*
X584473Y829758D01*
X584523Y829707D01*
X584556Y829691D01*
X584606Y829641D01*
X584640Y829624D01*
X584690Y829574D01*
X584723Y829557D01*
X584773Y829507D01*
X584807Y829490D01*
X584874Y829424D01*
X584907Y829407D01*
X584974Y829340D01*
X585007Y829323D01*
X585074Y829257D01*
X585107Y829240D01*
X585174Y829173D01*
X585207Y829156D01*
X585291Y829073D01*
X585325Y829056D01*
X585408Y828973D01*
X585441Y828956D01*
X585525Y828872D01*
X585558Y828856D01*
X585642Y828772D01*
X585675Y828755D01*
X585759Y828672D01*
X585792Y828655D01*
X585909Y828538D01*
X585942Y828522D01*
X586059Y828405D01*
X586093Y828388D01*
X586210Y828271D01*
X586243Y828254D01*
X586393Y828104D01*
X586427Y828087D01*
X586594Y827921D01*
X586627Y827904D01*
X586828Y827703D01*
X586861Y827687D01*
X587178Y827369D01*
X587212Y827353D01*
X588122Y826442D01*
X588139Y826409D01*
X588539Y826008D01*
X588556Y825975D01*
X588756Y825774D01*
X588773Y825741D01*
X588974Y825541D01*
X588990Y825507D01*
X589157Y825340D01*
X589174Y825307D01*
X589291Y825190D01*
X589308Y825156D01*
X589408Y825056D01*
X589425Y825023D01*
X589542Y824906D01*
X589558Y824873D01*
X589658Y824772D01*
X589675Y824739D01*
X589792Y824622D01*
X589809Y824589D01*
X589875Y824522D01*
X589892Y824488D01*
X589976Y824405D01*
X589992Y824371D01*
X590059Y824305D01*
X590076Y824271D01*
X590143Y824204D01*
X590159Y824171D01*
X590243Y824088D01*
X590260Y824054D01*
X590326Y823987D01*
X590343Y823954D01*
X590410Y823887D01*
X590427Y823854D01*
X590493Y823787D01*
X590510Y823754D01*
X590560Y823704D01*
X590577Y823670D01*
X590627Y823620D01*
X590644Y823587D01*
X590694Y823537D01*
X590711Y823503D01*
X590761Y823453D01*
X590777Y823419D01*
X590827Y823369D01*
X590844Y823336D01*
X590886Y823294D01*
X590894Y823286D01*
X590911Y823252D01*
X590961Y823202D01*
X590978Y823169D01*
X591028Y823119D01*
X591045Y823085D01*
X591095Y823035D01*
X591111Y823002D01*
X591145Y822969D01*
X591161Y822935D01*
X591195Y822902D01*
X591212Y822868D01*
X591245Y822835D01*
X591262Y822802D01*
X591295Y822768D01*
X591312Y822735D01*
X591345Y822701D01*
X591362Y822668D01*
X591395Y822635D01*
X591412Y822601D01*
X591462Y822551D01*
X591479Y822518D01*
X591512Y822484D01*
X591529Y822451D01*
X591562Y822418D01*
X591579Y822384D01*
X591612Y822351D01*
X591629Y822317D01*
X591662Y822284D01*
X591679Y822251D01*
X591713Y822217D01*
X591729Y822184D01*
X591763Y822150D01*
X591779Y822117D01*
X592105Y821674D01*
X592172Y821574D01*
X592197Y821549D01*
X592214Y821516D01*
X592464Y821165D01*
X592481Y821132D01*
X592648Y820898D01*
X592665Y820864D01*
X592748Y820747D01*
X592765Y820714D01*
X592798Y820681D01*
X592815Y820647D01*
X592898Y820530D01*
X592915Y820497D01*
X592982Y820397D01*
X592999Y820363D01*
X593082Y820246D01*
X593099Y820213D01*
X593182Y820096D01*
X593249Y819979D01*
X593333Y819862D01*
X593349Y819829D01*
X593416Y819729D01*
X593433Y819695D01*
X593500Y819595D01*
X593516Y819562D01*
X593583Y819461D01*
X593600Y819428D01*
X593717Y819244D01*
X593733Y819211D01*
X593850Y819027D01*
X593867Y818994D01*
X593984Y818810D01*
X594084Y818626D01*
X594168Y818493D01*
X594251Y818342D01*
X594318Y818225D01*
X594402Y818092D01*
X594602Y817725D01*
X594685Y817574D01*
X594786Y817390D01*
X594869Y817240D01*
X594986Y817023D01*
X595237Y816539D01*
X595905Y815186D01*
X595988Y815002D01*
X596088Y814785D01*
X596172Y814601D01*
X596272Y814384D01*
X596673Y813449D01*
X597074Y812447D01*
X597115Y812338D01*
X597366Y811670D01*
X597449Y811436D01*
X597617Y810952D01*
X597825Y810309D01*
X598042Y809624D01*
X598076Y809508D01*
X598126Y809341D01*
X598226Y808990D01*
X598276Y808823D01*
X598343Y808589D01*
X598376Y808455D01*
X598410Y808338D01*
X598460Y808138D01*
X598493Y808021D01*
X598527Y807887D01*
X598560Y807771D01*
X598627Y807503D01*
X598652Y807395D01*
X598702Y807194D01*
X598719Y807111D01*
X598802Y806777D01*
X598819Y806693D01*
X598836Y806627D01*
X598869Y806460D01*
X598886Y806393D01*
X598936Y806142D01*
X598952Y806076D01*
X598986Y805908D01*
X599003Y805842D01*
X599053Y805591D01*
X599069Y805491D01*
X599103Y805324D01*
X599120Y805224D01*
X599153Y805057D01*
X599170Y804957D01*
X599203Y804790D01*
X599287Y804288D01*
X599320Y804071D01*
X599370Y803771D01*
X599412Y803428D01*
X599428Y803362D01*
X599454Y803169D01*
X599512Y802693D01*
X599529Y802627D01*
X599554Y802384D01*
X599621Y801783D01*
X599637Y801616D01*
X599654Y801433D01*
X599671Y801232D01*
X599687Y801048D01*
X599704Y800848D01*
X599721Y800664D01*
X599754Y800130D01*
X599771Y799846D01*
X599788Y799545D01*
X599821Y798660D01*
X599829Y796514D01*
X599813Y796464D01*
X599788Y795621D01*
X599771Y795303D01*
X599721Y794502D01*
X599704Y794301D01*
X599687Y794118D01*
X599671Y793917D01*
X599654Y793733D01*
X599637Y793533D01*
X599520Y792481D01*
X599479Y792138D01*
X599462Y792072D01*
X599437Y791880D01*
X599420Y791746D01*
X599353Y791295D01*
X599320Y791095D01*
X599287Y790878D01*
X599203Y790376D01*
X599186Y790293D01*
X599170Y790193D01*
X599136Y790026D01*
X599120Y789926D01*
X599086Y789759D01*
X599069Y789658D01*
X598986Y789241D01*
X598969Y789174D01*
X598936Y789007D01*
X598919Y788940D01*
X598886Y788773D01*
X598869Y788706D01*
X598819Y788456D01*
X598752Y788189D01*
X598735Y788105D01*
X598669Y787838D01*
X598652Y787754D01*
X598535Y787287D01*
X598510Y787195D01*
X598460Y786994D01*
X598427Y786878D01*
X598393Y786744D01*
X598360Y786627D01*
X598326Y786493D01*
X598276Y786326D01*
X598176Y785976D01*
X598126Y785809D01*
X598059Y785575D01*
X597859Y784940D01*
X597550Y784030D01*
X597399Y783596D01*
X597299Y783329D01*
X597232Y783145D01*
X597032Y782610D01*
X596665Y781692D01*
X596230Y780690D01*
X596021Y780230D01*
X595921Y780013D01*
X595738Y779629D01*
X594953Y778076D01*
X594852Y777892D01*
X594769Y777742D01*
X594669Y777558D01*
X594585Y777408D01*
X594485Y777224D01*
X594418Y777107D01*
X594335Y776974D01*
X594251Y776824D01*
X594118Y776590D01*
X594034Y776456D01*
X593951Y776306D01*
X593834Y776122D01*
X593817Y776089D01*
X593700Y775905D01*
X593683Y775872D01*
X593567Y775688D01*
X593550Y775654D01*
X593433Y775471D01*
X593416Y775437D01*
X593333Y775320D01*
X593316Y775287D01*
X593091Y774945D01*
X593007Y774811D01*
X592673Y774310D01*
X592648Y774285D01*
X592631Y774251D01*
X592548Y774135D01*
X592531Y774101D01*
X592364Y773867D01*
X592347Y773834D01*
X591771Y773041D01*
X591704Y772941D01*
X591679Y772915D01*
X591662Y772882D01*
X591629Y772849D01*
X591612Y772815D01*
X591562Y772765D01*
X591546Y772732D01*
X591512Y772698D01*
X591496Y772665D01*
X591462Y772632D01*
X591445Y772598D01*
X591412Y772565D01*
X591395Y772531D01*
X591362Y772498D01*
X591345Y772465D01*
X591312Y772431D01*
X591295Y772398D01*
X591262Y772364D01*
X591245Y772331D01*
X591212Y772298D01*
X591195Y772264D01*
X591145Y772214D01*
X591128Y772181D01*
X591095Y772147D01*
X591078Y772114D01*
X591028Y772064D01*
X591011Y772030D01*
X590961Y771980D01*
X590944Y771947D01*
X590894Y771897D01*
X590878Y771863D01*
X590827Y771813D01*
X590811Y771780D01*
X590761Y771730D01*
X590744Y771696D01*
X590694Y771646D01*
X590677Y771613D01*
X590627Y771563D01*
X590610Y771529D01*
X590560Y771479D01*
X590544Y771446D01*
X590493Y771396D01*
X590477Y771362D01*
X590427Y771312D01*
X590410Y771279D01*
X590343Y771212D01*
X590326Y771179D01*
X590260Y771112D01*
X590243Y771078D01*
X590159Y770995D01*
X590143Y770961D01*
X590076Y770895D01*
X590059Y770861D01*
X589992Y770794D01*
X589976Y770761D01*
X589892Y770677D01*
X589875Y770644D01*
X589809Y770577D01*
X589792Y770544D01*
X589692Y770444D01*
X589675Y770410D01*
X589558Y770293D01*
X589542Y770260D01*
X589441Y770160D01*
X589425Y770126D01*
X589308Y770010D01*
X589291Y769976D01*
X589191Y769876D01*
X589174Y769843D01*
X589007Y769675D01*
X588990Y769642D01*
X588807Y769458D01*
X588790Y769425D01*
X588590Y769224D01*
X588573Y769191D01*
X588256Y768874D01*
X588239Y768840D01*
X587162Y767763D01*
X587128Y767746D01*
X586811Y767429D01*
X586777Y767412D01*
X586577Y767212D01*
X586544Y767195D01*
X586343Y766995D01*
X586310Y766978D01*
X586160Y766828D01*
X586126Y766811D01*
X586009Y766694D01*
X585976Y766678D01*
X585876Y766577D01*
X585842Y766561D01*
X585725Y766444D01*
X585692Y766427D01*
X585592Y766327D01*
X585558Y766310D01*
X585458Y766210D01*
X585425Y766193D01*
X585341Y766110D01*
X585308Y766093D01*
X585241Y766026D01*
X585207Y766010D01*
X585141Y765943D01*
X585107Y765926D01*
X585024Y765843D01*
X584990Y765826D01*
X584924Y765759D01*
X584890Y765742D01*
X584823Y765676D01*
X584790Y765659D01*
X584706Y765575D01*
X584673Y765559D01*
X584623Y765508D01*
X584590Y765492D01*
X584539Y765442D01*
X584506Y765425D01*
X584456Y765375D01*
X584423Y765358D01*
X584372Y765308D01*
X584339Y765291D01*
X584289Y765241D01*
X584256Y765225D01*
X584206Y765174D01*
X584172Y765158D01*
X584122Y765108D01*
X584089Y765091D01*
X584039Y765041D01*
X584005Y765024D01*
X583955Y764974D01*
X583922Y764957D01*
X583888Y764924D01*
X583855Y764907D01*
X583805Y764857D01*
X583771Y764840D01*
X583738Y764807D01*
X583704Y764790D01*
X583671Y764757D01*
X583638Y764740D01*
X583604Y764707D01*
X583571Y764690D01*
X583537Y764657D01*
X583504Y764640D01*
X583471Y764607D01*
X583437Y764590D01*
X583387Y764540D01*
X583354Y764523D01*
X583320Y764490D01*
X583287Y764473D01*
X583254Y764440D01*
X583220Y764423D01*
X583187Y764389D01*
X583153Y764373D01*
X583120Y764339D01*
X583087Y764323D01*
X583053Y764289D01*
X583020Y764273D01*
X582986Y764239D01*
X582953Y764222D01*
X582393Y763813D01*
X582293Y763747D01*
X582268Y763721D01*
X582235Y763705D01*
X582001Y763538D01*
X581968Y763521D01*
X581851Y763438D01*
X581817Y763421D01*
X581784Y763388D01*
X581750Y763371D01*
X581633Y763287D01*
X581600Y763271D01*
X581366Y763104D01*
X581333Y763087D01*
X580807Y762745D01*
X580707Y762678D01*
X580573Y762594D01*
X580389Y762477D01*
X580222Y762377D01*
X579955Y762210D01*
X579663Y762035D01*
X579629Y762018D01*
X579496Y761935D01*
X579346Y761851D01*
X579229Y761784D01*
X579095Y761701D01*
X578945Y761617D01*
X578828Y761550D01*
X578677Y761467D01*
X578494Y761367D01*
X578343Y761283D01*
X577976Y761083D01*
X577659Y760916D01*
X577208Y760682D01*
X576122Y760147D01*
X575905Y760047D01*
X575538Y759880D01*
X575321Y759780D01*
X575170Y759713D01*
X574235Y759312D01*
X573316Y758945D01*
X573208Y758903D01*
X572941Y758803D01*
X572757Y758736D01*
X572490Y758636D01*
X572256Y758552D01*
X571772Y758385D01*
X571129Y758177D01*
X570444Y757960D01*
X570210Y757893D01*
X570043Y757843D01*
X569692Y757742D01*
X569525Y757692D01*
X569458Y757676D01*
X569342Y757642D01*
X569141Y757592D01*
X569024Y757559D01*
X568891Y757525D01*
X568774Y757492D01*
X568172Y757342D01*
X568064Y757317D01*
X567864Y757266D01*
X567780Y757250D01*
X567579Y757200D01*
X567496Y757183D01*
X567429Y757166D01*
X567262Y757133D01*
X567195Y757116D01*
X567028Y757083D01*
X566962Y757066D01*
X566711Y757016D01*
X566644Y756999D01*
X566477Y756966D01*
X566377Y756949D01*
X566210Y756916D01*
X566110Y756899D01*
X565943Y756866D01*
X565843Y756849D01*
X565676Y756816D01*
X565575Y756799D01*
X565492Y756782D01*
X565275Y756749D01*
X564974Y756699D01*
X564757Y756665D01*
X564557Y756632D01*
X564331Y756607D01*
X564264Y756590D01*
X564072Y756565D01*
X563596Y756507D01*
X563530Y756490D01*
X563287Y756465D01*
X562686Y756398D01*
X562552Y756381D01*
X562369Y756365D01*
X562168Y756348D01*
X561985Y756331D01*
X561784Y756315D01*
X561601Y756298D01*
X561367Y756281D01*
X561100Y756264D01*
X560816Y756248D01*
X560548Y756231D01*
X560148Y756214D01*
X559697Y756198D01*
X558862Y756181D01*
X557835Y756173D01*
X557784Y756189D01*
X556682Y756206D01*
X556632Y756223D01*
X556031Y756239D01*
X555981Y756256D01*
X555513Y756273D01*
X555463Y756290D01*
X555054Y756315D01*
X554503Y756365D01*
X554002Y756415D01*
X553868Y756432D01*
X553567Y756465D01*
X553033Y756532D01*
X552114Y756665D01*
X551897Y756699D01*
X551296Y756799D01*
X551213Y756816D01*
X551112Y756832D01*
X551029Y756849D01*
X550929Y756866D01*
X550845Y756882D01*
X550745Y756899D01*
X549993Y757049D01*
X549926Y757066D01*
X549759Y757100D01*
X549693Y757116D01*
X549609Y757133D01*
X549542Y757150D01*
X549459Y757166D01*
X549392Y757183D01*
X549309Y757200D01*
X549242Y757216D01*
X549158Y757233D01*
X548958Y757283D01*
X548874Y757300D01*
X547872Y757550D01*
X547780Y757576D01*
X547647Y757609D01*
X547413Y757676D01*
X547346Y757692D01*
X546879Y757826D01*
X546377Y757976D01*
X545943Y758110D01*
X544833Y758486D01*
X544549Y758586D01*
X544315Y758669D01*
X544131Y758736D01*
X543730Y758886D01*
X543647Y758920D01*
X543380Y759020D01*
X542712Y759287D01*
X542570Y759346D01*
X542453Y759396D01*
X542369Y759429D01*
X541902Y759630D01*
X541451Y759830D01*
X541367Y759864D01*
X541317Y759813D01*
X541284Y759797D01*
X541184Y759697D01*
X541150Y759680D01*
X541067Y759596D01*
X541033Y759580D01*
X540950Y759496D01*
X540916Y759479D01*
X540833Y759396D01*
X540799Y759379D01*
X540732Y759312D01*
X540699Y759296D01*
X540632Y759229D01*
X540599Y759212D01*
X540532Y759145D01*
X540499Y759129D01*
X540432Y759062D01*
X540398Y759045D01*
X540348Y758995D01*
X540315Y758978D01*
X540248Y758912D01*
X540215Y758895D01*
X540165Y758845D01*
X540131Y758828D01*
X540081Y758778D01*
X540048Y758761D01*
X539998Y758711D01*
X539964Y758695D01*
X539914Y758644D01*
X539881Y758628D01*
X539847Y758594D01*
X539814Y758578D01*
X539764Y758528D01*
X539730Y758511D01*
X539697Y758477D01*
X539664Y758461D01*
X539614Y758410D01*
X539580Y758394D01*
X539547Y758360D01*
X539513Y758344D01*
X539480Y758310D01*
X539447Y758294D01*
X539413Y758260D01*
X539380Y758243D01*
X539346Y758210D01*
X539313Y758193D01*
X539280Y758160D01*
X539246Y758143D01*
X539213Y758110D01*
X539179Y758093D01*
X539146Y758060D01*
X539113Y758043D01*
X538904Y757885D01*
X538804Y757818D01*
X538511Y757609D01*
X538478Y757592D01*
X538244Y757425D01*
X538211Y757409D01*
X538094Y757325D01*
X538060Y757308D01*
X537943Y757225D01*
X537827Y757158D01*
X537710Y757075D01*
X537593Y757008D01*
X537409Y756891D01*
X537376Y756874D01*
X537242Y756790D01*
X537209Y756774D01*
X537075Y756690D01*
X536891Y756590D01*
X536774Y756523D01*
X536407Y756323D01*
X535622Y755939D01*
X535455Y755872D01*
X535296Y755814D01*
X534854Y755672D01*
X534737Y755638D01*
X534670Y755621D01*
X534553Y755588D01*
X534486Y755571D01*
X534378Y755546D01*
X534311Y755530D01*
X534144Y755496D01*
X533843Y755446D01*
X533693Y755429D01*
X533509Y755413D01*
X532816Y755404D01*
X532766Y755421D01*
X532524Y755446D01*
X532424Y755463D01*
X532340Y755480D01*
X532273Y755496D01*
X532190Y755513D01*
X532123Y755530D01*
X532031Y755555D01*
X531823Y755630D01*
X531689Y755680D01*
X531505Y755763D01*
X531363Y755839D01*
X531246Y755905D01*
X531129Y755989D01*
X531096Y756006D01*
X530829Y756206D01*
X530737Y756281D01*
X530662Y756356D01*
X530628Y756373D01*
X530486Y756515D01*
X530470Y756548D01*
X530336Y756682D01*
X530319Y756715D01*
X530253Y756782D01*
X530236Y756816D01*
X530202Y756849D01*
X530186Y756882D01*
X530152Y756916D01*
X530136Y756949D01*
X530102Y756983D01*
X530086Y757016D01*
X529935Y757233D01*
X529919Y757266D01*
X529852Y757367D01*
X529835Y757400D01*
X529752Y757550D01*
X529468Y758135D01*
X529418Y758252D01*
X529317Y758502D01*
X529117Y759120D01*
X529017Y759471D01*
X528983Y759605D01*
X528958Y759713D01*
X528908Y759914D01*
X528808Y760415D01*
X528758Y760715D01*
X528725Y760932D01*
X528683Y761275D01*
X528666Y761342D01*
X528641Y761567D01*
X528608Y761901D01*
X528591Y762085D01*
X528574Y762302D01*
X528558Y762536D01*
X528541Y762820D01*
X528524Y763187D01*
X528507Y763788D01*
X528499Y764665D01*
X528516Y764715D01*
X528532Y765784D01*
X528549Y765834D01*
X528566Y766352D01*
X528574Y766360D01*
X528599Y766335D01*
X528716Y766118D01*
X528783Y766001D01*
X528866Y765868D01*
X528883Y765834D01*
X528967Y765717D01*
X528983Y765684D01*
X529125Y765475D01*
X529259Y765275D01*
X529284Y765250D01*
X529301Y765216D01*
X529459Y765007D01*
X529501Y764949D01*
X529618Y764799D01*
X529693Y764707D01*
X529735Y764648D01*
X529768Y764615D01*
X529785Y764582D01*
X529835Y764531D01*
X529852Y764498D01*
X529935Y764415D01*
X529952Y764381D01*
X530036Y764298D01*
X530052Y764264D01*
X530169Y764147D01*
X530186Y764114D01*
X530336Y763964D01*
X530353Y763930D01*
X530862Y763421D01*
X530896Y763404D01*
X531079Y763221D01*
X531113Y763204D01*
X531230Y763087D01*
X531263Y763070D01*
X531330Y763003D01*
X531363Y762987D01*
X531413Y762936D01*
X531447Y762920D01*
X531480Y762886D01*
X531513Y762870D01*
X531564Y762820D01*
X531597Y762803D01*
X531631Y762769D01*
X531664Y762753D01*
X531998Y762519D01*
X532031Y762502D01*
X532148Y762419D01*
X532182Y762402D01*
X532315Y762319D01*
X532499Y762218D01*
X533217Y761868D01*
X533334Y761818D01*
X533418Y761784D01*
X533576Y761726D01*
X533710Y761676D01*
X533777Y761659D01*
X534136Y761550D01*
X534470Y761467D01*
X534837Y761400D01*
X534954Y761383D01*
X535021Y761367D01*
X535280Y761342D01*
X535480Y761325D01*
X536440Y761317D01*
X536491Y761333D01*
X536808Y761350D01*
X536858Y761367D01*
X537067Y761392D01*
X537284Y761425D01*
X537384Y761442D01*
X537635Y761492D01*
X537701Y761509D01*
X537785Y761525D01*
X537985Y761575D01*
X537977Y761600D01*
X537793Y761701D01*
X537676Y761768D01*
X537543Y761851D01*
X537359Y761951D01*
X537175Y762068D01*
X537142Y762085D01*
X537008Y762168D01*
X536975Y762185D01*
X536841Y762269D01*
X536808Y762285D01*
X536624Y762402D01*
X536591Y762419D01*
X536491Y762486D01*
X536457Y762502D01*
X536273Y762619D01*
X536240Y762636D01*
X536123Y762719D01*
X536090Y762736D01*
X535564Y763079D01*
X535062Y763412D01*
X534887Y763538D01*
X534854Y763555D01*
X534620Y763721D01*
X534586Y763738D01*
X534553Y763772D01*
X534520Y763788D01*
X533843Y764281D01*
X533785Y764323D01*
X533459Y764565D01*
X533401Y764607D01*
X533251Y764724D01*
X533042Y764882D01*
X533017Y764907D01*
X532983Y764924D01*
X532950Y764957D01*
X532916Y764974D01*
X532883Y765007D01*
X532850Y765024D01*
X532799Y765074D01*
X532766Y765091D01*
X532716Y765141D01*
X532683Y765158D01*
X532632Y765208D01*
X532599Y765225D01*
X532549Y765275D01*
X532516Y765291D01*
X532466Y765341D01*
X532432Y765358D01*
X532382Y765408D01*
X532349Y765425D01*
X532299Y765475D01*
X532265Y765492D01*
X532198Y765559D01*
X532165Y765575D01*
X532115Y765625D01*
X532081Y765642D01*
X532015Y765709D01*
X531981Y765726D01*
X531914Y765792D01*
X531881Y765809D01*
X531814Y765876D01*
X531781Y765893D01*
X531714Y765959D01*
X531680Y765976D01*
X531614Y766043D01*
X531580Y766060D01*
X531497Y766143D01*
X531464Y766160D01*
X531380Y766243D01*
X531347Y766260D01*
X531263Y766344D01*
X531230Y766360D01*
X531129Y766460D01*
X531096Y766477D01*
X530979Y766594D01*
X530946Y766611D01*
X530829Y766728D01*
X530795Y766744D01*
X530678Y766861D01*
X530645Y766878D01*
X530495Y767028D01*
X530461Y767045D01*
X530294Y767212D01*
X530261Y767229D01*
X530044Y767446D01*
X530010Y767462D01*
X529693Y767780D01*
X529660Y767797D01*
X528733Y768724D01*
X528716Y768757D01*
X528315Y769158D01*
X528299Y769191D01*
X528098Y769391D01*
X528082Y769425D01*
X527881Y769625D01*
X527864Y769659D01*
X527697Y769826D01*
X527681Y769859D01*
X527564Y769976D01*
X527547Y770010D01*
X527447Y770110D01*
X527430Y770143D01*
X527313Y770260D01*
X527296Y770293D01*
X527180Y770410D01*
X527163Y770444D01*
X527063Y770544D01*
X527046Y770577D01*
X526979Y770644D01*
X526963Y770677D01*
X526879Y770761D01*
X526862Y770794D01*
X526796Y770861D01*
X526779Y770895D01*
X526712Y770961D01*
X526695Y770995D01*
X526628Y771062D01*
X526612Y771095D01*
X526528Y771179D01*
X526512Y771212D01*
X526445Y771279D01*
X526428Y771312D01*
X526361Y771379D01*
X526345Y771412D01*
X526295Y771462D01*
X526278Y771496D01*
X526228Y771546D01*
X526211Y771579D01*
X526161Y771629D01*
X526144Y771663D01*
X526094Y771713D01*
X526077Y771746D01*
X526044Y771780D01*
X526027Y771813D01*
X525977Y771863D01*
X525960Y771897D01*
X525910Y771947D01*
X525894Y771980D01*
X525844Y772030D01*
X525827Y772064D01*
X525777Y772114D01*
X525760Y772147D01*
X525710Y772197D01*
X525693Y772231D01*
X525660Y772264D01*
X525643Y772298D01*
X525610Y772331D01*
X525593Y772364D01*
X525560Y772398D01*
X525543Y772431D01*
X525509Y772465D01*
X525493Y772498D01*
X525459Y772531D01*
X525443Y772565D01*
X525393Y772615D01*
X525376Y772648D01*
X525342Y772682D01*
X525326Y772715D01*
X525292Y772748D01*
X525276Y772782D01*
X525242Y772815D01*
X525226Y772849D01*
X525192Y772882D01*
X525176Y772915D01*
X525142Y772949D01*
X525125Y772982D01*
X525092Y773016D01*
X525075Y773049D01*
X524750Y773492D01*
X524683Y773592D01*
X524658Y773617D01*
X524641Y773650D01*
X524390Y774001D01*
X524374Y774034D01*
X524207Y774268D01*
X524190Y774302D01*
X524107Y774418D01*
X524090Y774452D01*
X524057Y774485D01*
X524040Y774519D01*
X523956Y774636D01*
X523940Y774669D01*
X523873Y774769D01*
X523856Y774803D01*
X523773Y774920D01*
X523756Y774953D01*
X523672Y775070D01*
X523606Y775187D01*
X523522Y775304D01*
X523505Y775337D01*
X523439Y775437D01*
X523422Y775471D01*
X523355Y775571D01*
X523338Y775604D01*
X523222Y775788D01*
X523205Y775821D01*
X523088Y776005D01*
X523071Y776039D01*
X522954Y776222D01*
X522938Y776256D01*
X522854Y776389D01*
X522837Y776423D01*
X522704Y776656D01*
X522620Y776790D01*
X522537Y776940D01*
X522336Y777291D01*
X522236Y777475D01*
X522153Y777625D01*
X522052Y777809D01*
X521969Y777959D01*
X521835Y778210D01*
X521601Y778661D01*
X520950Y779980D01*
X520783Y780347D01*
X520683Y780564D01*
X520599Y780748D01*
X520533Y780899D01*
X520182Y781717D01*
X519781Y782719D01*
X519739Y782828D01*
X519689Y782961D01*
X519622Y783145D01*
X519472Y783546D01*
X519372Y783830D01*
X519205Y784314D01*
X519046Y784807D01*
X518846Y785441D01*
X518779Y785658D01*
X518712Y785892D01*
X518662Y786059D01*
X518595Y786293D01*
X518545Y786460D01*
X518529Y786527D01*
X518495Y786644D01*
X518462Y786777D01*
X518428Y786894D01*
X518378Y787095D01*
X518345Y787212D01*
X518311Y787345D01*
X518278Y787462D01*
X518245Y787596D01*
X518219Y787704D01*
X518169Y787905D01*
X518153Y787988D01*
X518086Y788255D01*
X518069Y788339D01*
X518036Y788473D01*
X518019Y788556D01*
X518002Y788623D01*
X517969Y788790D01*
X517952Y788857D01*
X517902Y789107D01*
X517886Y789174D01*
X517852Y789341D01*
X517835Y789408D01*
X517819Y789491D01*
X517802Y789592D01*
X517769Y789759D01*
X517752Y789859D01*
X517718Y790026D01*
X517702Y790126D01*
X517668Y790293D01*
X517652Y790393D01*
X517635Y790477D01*
X517618Y790577D01*
X517585Y790794D01*
X517535Y791095D01*
X517501Y791312D01*
X517485Y791412D01*
X517426Y791871D01*
X517410Y791938D01*
X517384Y792130D01*
X517368Y792264D01*
X517343Y792489D01*
X517326Y792556D01*
X517301Y792798D01*
X517234Y793399D01*
X517217Y793566D01*
X517201Y793750D01*
X517184Y793951D01*
X517167Y794134D01*
X517134Y794535D01*
X517084Y795337D01*
X517067Y795671D01*
X517034Y796556D01*
X517025Y798602D01*
X517042Y798652D01*
X517067Y799495D01*
X517084Y799812D01*
X517100Y800097D01*
X517134Y800631D01*
X517151Y800831D01*
X517167Y801015D01*
X517184Y801215D01*
X517201Y801399D01*
X517217Y801600D01*
X517234Y801767D01*
X517267Y802067D01*
X517284Y802201D01*
X517334Y802652D01*
X517393Y803128D01*
X517410Y803195D01*
X517435Y803387D01*
X517451Y803520D01*
X517501Y803854D01*
X517535Y804055D01*
X517568Y804272D01*
X517652Y804773D01*
X517668Y804856D01*
X517685Y804957D01*
X517718Y805124D01*
X517735Y805224D01*
X517769Y805391D01*
X517785Y805491D01*
X517869Y805908D01*
X517886Y805975D01*
X517936Y806226D01*
X517952Y806293D01*
X517986Y806460D01*
X518002Y806526D01*
X518036Y806693D01*
X518086Y806894D01*
X518103Y806977D01*
X518169Y807244D01*
X518186Y807328D01*
X518253Y807595D01*
X518270Y807679D01*
X518295Y807771D01*
X518328Y807904D01*
X518361Y808021D01*
X518411Y808222D01*
X518445Y808338D01*
X518478Y808472D01*
X518512Y808589D01*
X518529Y808656D01*
X518595Y808890D01*
X518645Y809057D01*
X518712Y809290D01*
X518762Y809457D01*
X518796Y809574D01*
X518862Y809791D01*
X519080Y810476D01*
X519188Y810785D01*
X519472Y811603D01*
X519572Y811871D01*
X519639Y812054D01*
X519840Y812589D01*
X520173Y813424D01*
X520608Y814426D01*
X520641Y814510D01*
X520984Y815253D01*
X521267Y815837D01*
X521785Y816856D01*
X521952Y817173D01*
X522036Y817324D01*
X522136Y817507D01*
X522219Y817658D01*
X522320Y817841D01*
X522403Y817992D01*
X522487Y818125D01*
X522587Y818309D01*
X522670Y818443D01*
X522754Y818593D01*
X522821Y818710D01*
X522904Y818843D01*
X522921Y818877D01*
X523004Y819010D01*
X523021Y819044D01*
X523088Y819144D01*
X523105Y819177D01*
X523188Y819311D01*
X523205Y819344D01*
X523271Y819445D01*
X523288Y819478D01*
X523405Y819662D01*
X523422Y819695D01*
X523505Y819812D01*
X523572Y819929D01*
X523656Y820046D01*
X523672Y820079D01*
X523739Y820180D01*
X523756Y820213D01*
X523839Y820330D01*
X523856Y820363D01*
X523940Y820480D01*
X524006Y820597D01*
X524040Y820630D01*
X524057Y820664D01*
X524140Y820781D01*
X524157Y820814D01*
X524324Y821048D01*
X524340Y821081D01*
X524507Y821315D01*
X524524Y821349D01*
X525100Y822142D01*
X525167Y822242D01*
X525192Y822267D01*
X525209Y822301D01*
X525259Y822351D01*
X525276Y822384D01*
X525309Y822418D01*
X525326Y822451D01*
X525359Y822484D01*
X525376Y822518D01*
X525409Y822551D01*
X525426Y822585D01*
X525459Y822618D01*
X525476Y822651D01*
X525509Y822685D01*
X525526Y822718D01*
X525560Y822751D01*
X525576Y822785D01*
X525626Y822835D01*
X525643Y822868D01*
X525676Y822902D01*
X525693Y822935D01*
X525727Y822969D01*
X525743Y823002D01*
X525777Y823035D01*
X525793Y823069D01*
X525844Y823119D01*
X525860Y823152D01*
X525910Y823202D01*
X525927Y823236D01*
X525977Y823286D01*
X525994Y823319D01*
X526044Y823369D01*
X526061Y823403D01*
X526111Y823453D01*
X526127Y823486D01*
X526177Y823537D01*
X526194Y823570D01*
X526244Y823620D01*
X526261Y823653D01*
X526311Y823704D01*
X526328Y823737D01*
X526378Y823787D01*
X526395Y823820D01*
X526461Y823887D01*
X526478Y823921D01*
X526545Y823987D01*
X526562Y824021D01*
X526645Y824104D01*
X526662Y824138D01*
X526729Y824204D01*
X526745Y824238D01*
X526812Y824305D01*
X526829Y824338D01*
X526896Y824405D01*
X526912Y824438D01*
X526979Y824505D01*
X526996Y824538D01*
X527079Y824622D01*
X527096Y824655D01*
X527213Y824772D01*
X527230Y824806D01*
X527330Y824906D01*
X527347Y824939D01*
X527463Y825056D01*
X527480Y825090D01*
X527597Y825207D01*
X527614Y825240D01*
X527714Y825340D01*
X527731Y825374D01*
X527931Y825574D01*
X527948Y825607D01*
X528132Y825791D01*
X528148Y825825D01*
X528349Y826025D01*
X528365Y826058D01*
X528850Y826543D01*
X528866Y826576D01*
X529443Y827152D01*
X529476Y827169D01*
X529960Y827653D01*
X529994Y827670D01*
X530194Y827870D01*
X530228Y827887D01*
X530428Y828087D01*
X530461Y828104D01*
X530645Y828288D01*
X530678Y828305D01*
X530795Y828421D01*
X530829Y828438D01*
X530929Y828538D01*
X530962Y828555D01*
X531079Y828672D01*
X531113Y828689D01*
X531213Y828789D01*
X531246Y828806D01*
X531363Y828923D01*
X531397Y828939D01*
X531480Y829023D01*
X531513Y829040D01*
X531580Y829106D01*
X531614Y829123D01*
X531680Y829190D01*
X531714Y829206D01*
X531781Y829273D01*
X531814Y829290D01*
X531898Y829373D01*
X531931Y829390D01*
X531998Y829457D01*
X532031Y829474D01*
X532098Y829540D01*
X532132Y829557D01*
X532198Y829624D01*
X532232Y829641D01*
X532282Y829691D01*
X532315Y829707D01*
X532365Y829758D01*
X532399Y829774D01*
X532449Y829824D01*
X532482Y829841D01*
X532532Y829891D01*
X532566Y829908D01*
X532616Y829958D01*
X532649Y829975D01*
X532699Y830025D01*
X532733Y830042D01*
X532783Y830092D01*
X532816Y830108D01*
X532866Y830158D01*
X532900Y830175D01*
X532950Y830225D01*
X532983Y830242D01*
X533017Y830275D01*
X533050Y830292D01*
X533083Y830325D01*
X533117Y830342D01*
X533167Y830392D01*
X533200Y830409D01*
X533234Y830442D01*
X533267Y830459D01*
X533301Y830492D01*
X533334Y830509D01*
X533367Y830543D01*
X533401Y830559D01*
X533434Y830593D01*
X533468Y830609D01*
X533501Y830643D01*
X533534Y830659D01*
X533568Y830693D01*
X533601Y830710D01*
X533651Y830760D01*
X533685Y830776D01*
X533718Y830810D01*
X533751Y830826D01*
X533785Y830860D01*
X533818Y830877D01*
X533852Y830910D01*
X533885Y830927D01*
X534562Y831419D01*
X534662Y831486D01*
X534837Y831611D01*
X534870Y831628D01*
X534987Y831712D01*
X535021Y831728D01*
X535054Y831762D01*
X535088Y831778D01*
X535205Y831862D01*
X535238Y831879D01*
X535472Y832046D01*
X535505Y832062D01*
X535605Y832129D01*
X535639Y832146D01*
X535756Y832229D01*
X535789Y832246D01*
X535906Y832330D01*
X536023Y832396D01*
X536140Y832480D01*
X536173Y832497D01*
X536273Y832563D01*
X536307Y832580D01*
X536407Y832647D01*
X536440Y832664D01*
X536624Y832781D01*
X536657Y832797D01*
X536841Y832914D01*
X536875Y832931D01*
X537058Y833048D01*
X537092Y833064D01*
X537225Y833148D01*
X537259Y833165D01*
X537376Y833231D01*
X537509Y833315D01*
X537660Y833398D01*
X537893Y833532D01*
X538027Y833616D01*
X538278Y833749D01*
X538461Y833849D01*
X538611Y833933D01*
X538795Y834033D01*
X539012Y834150D01*
X539497Y834400D01*
X540816Y835052D01*
X541033Y835152D01*
X541401Y835319D01*
X541618Y835419D01*
X542553Y835820D01*
X543638Y836254D01*
X543797Y836313D01*
X544465Y836563D01*
X545000Y836747D01*
X545743Y836989D01*
X546428Y837206D01*
X546778Y837307D01*
X546945Y837357D01*
X547413Y837490D01*
X547480Y837507D01*
X547597Y837540D01*
X547730Y837574D01*
X547847Y837607D01*
X548048Y837657D01*
X548164Y837691D01*
X548632Y837807D01*
X548741Y837833D01*
X548941Y837883D01*
X549025Y837899D01*
X549292Y837966D01*
X549459Y838000D01*
X549526Y838016D01*
X549693Y838050D01*
X549759Y838066D01*
X550010Y838117D01*
X550077Y838133D01*
X550244Y838167D01*
X550311Y838183D01*
X550411Y838200D01*
X550578Y838233D01*
X550678Y838250D01*
X550845Y838283D01*
X550945Y838300D01*
X551112Y838334D01*
X551213Y838350D01*
X551296Y838367D01*
X551496Y838400D01*
X551713Y838434D01*
X552014Y838484D01*
X552231Y838517D01*
X552332Y838534D01*
X552557Y838559D01*
X552624Y838576D01*
X552816Y838601D01*
X553292Y838659D01*
X553359Y838676D01*
X553601Y838701D01*
X554352Y838784D01*
X554536Y838801D01*
X554736Y838818D01*
X554920Y838835D01*
X555121Y838851D01*
X555304Y838868D01*
X555797Y838893D01*
X555914Y838910D01*
X556373Y838935D01*
X557258Y838968D01*
X558344Y838985D01*
X558586Y838993D01*
X558636Y838977D01*
X560089Y838960D01*
X560139Y838943D01*
X560757Y838926D01*
X560807Y838910D01*
X561275Y838893D01*
X561325Y838876D01*
X561734Y838851D01*
X562135Y838818D01*
X562636Y838768D01*
X563237Y838701D01*
X563772Y838634D01*
X563997Y838609D01*
X564064Y838593D01*
X564256Y838567D01*
X564473Y838534D01*
X564807Y838484D01*
X565008Y838450D01*
X565225Y838417D01*
X565308Y838400D01*
X565609Y838350D01*
X565692Y838334D01*
X565793Y838317D01*
X565876Y838300D01*
X565976Y838283D01*
X566143Y838250D01*
X566244Y838233D01*
X566327Y838217D01*
X566394Y838200D01*
X566895Y838100D01*
X566962Y838083D01*
X567212Y838033D01*
X567279Y838016D01*
X567362Y838000D01*
X567496Y837966D01*
X567579Y837950D01*
X567713Y837916D01*
X567797Y837899D01*
X568064Y837833D01*
X568147Y837816D01*
X568749Y837666D01*
X568840Y837641D01*
X568907Y837624D01*
X569024Y837590D01*
X569091Y837574D01*
X569208Y837540D01*
X569275Y837524D01*
X569392Y837490D01*
X569458Y837474D01*
X569575Y837440D01*
X569642Y837423D01*
X569876Y837357D01*
X570043Y837307D01*
X570260Y837240D01*
X570761Y837089D01*
X572022Y836664D01*
X572306Y836563D01*
X572774Y836396D01*
X572907Y836346D01*
X572991Y836313D01*
X573124Y836263D01*
X573208Y836229D01*
X573341Y836179D01*
X573425Y836146D01*
X573559Y836096D01*
X573976Y835929D01*
X574118Y835870D01*
X574202Y835837D01*
X574318Y835787D01*
X574485Y835720D01*
X574602Y835670D01*
X574669Y835636D01*
X574761Y835712D01*
X574803Y835753D01*
X574836Y835770D01*
X574936Y835870D01*
X574970Y835887D01*
X575053Y835970D01*
X575087Y835987D01*
X575154Y836054D01*
X575187Y836071D01*
X575254Y836137D01*
X575287Y836154D01*
X575354Y836221D01*
X575387Y836238D01*
X575454Y836304D01*
X575488Y836321D01*
X575554Y836388D01*
X575588Y836405D01*
X575638Y836455D01*
X575671Y836471D01*
X575721Y836522D01*
X575755Y836538D01*
X575805Y836588D01*
X575838Y836605D01*
X575888Y836655D01*
X575922Y836672D01*
X575972Y836722D01*
X576005Y836739D01*
X576055Y836789D01*
X576089Y836805D01*
X576122Y836839D01*
X576156Y836856D01*
X576206Y836906D01*
X576239Y836922D01*
X576289Y836973D01*
X576323Y836989D01*
X576356Y837023D01*
X576389Y837039D01*
X576423Y837073D01*
X576456Y837089D01*
X576490Y837123D01*
X576523Y837140D01*
X576556Y837173D01*
X576590Y837190D01*
X576623Y837223D01*
X576657Y837240D01*
X576690Y837273D01*
X576723Y837290D01*
X576757Y837323D01*
X576790Y837340D01*
X576824Y837373D01*
X576857Y837390D01*
X576890Y837423D01*
X576924Y837440D01*
X577625Y837941D01*
X577659Y837958D01*
X577776Y838041D01*
X577809Y838058D01*
X577842Y838091D01*
X577959Y838158D01*
X578076Y838242D01*
X578110Y838258D01*
X578210Y838325D01*
X578243Y838342D01*
X578343Y838409D01*
X578377Y838426D01*
X578477Y838492D01*
X578510Y838509D01*
X578611Y838576D01*
X578644Y838593D01*
X578778Y838676D01*
X578928Y838760D01*
X579162Y838893D01*
X579312Y838977D01*
X579529Y839093D01*
X580481Y839561D01*
X580631Y839628D01*
X580748Y839678D01*
X580832Y839712D01*
X580949Y839762D01*
X581116Y839828D01*
X581224Y839870D01*
X581308Y839903D01*
X581750Y840045D01*
X581917Y840096D01*
X582034Y840129D01*
X582235Y840179D01*
X582343Y840204D01*
X582677Y840271D01*
X582903Y840296D01*
X582970Y840313D01*
X583237Y840329D01*
X583354Y840346D01*
X584105Y840329D01*
D02*
G37*
%LPC*%
G36*
X583537Y839845D02*
X583487Y839828D01*
X583036Y839812D01*
X582986Y839795D01*
X582777Y839770D01*
X582694Y839753D01*
X582594Y839736D01*
X582427Y839703D01*
X582093Y839620D01*
X581951Y839578D01*
X581391Y839386D01*
X581308Y839352D01*
X581174Y839302D01*
X581091Y839269D01*
X580949Y839210D01*
X580832Y839160D01*
X580681Y839093D01*
X580498Y839010D01*
X579613Y838559D01*
X579312Y838392D01*
X579178Y838309D01*
X579028Y838225D01*
X578895Y838142D01*
X578861Y838125D01*
X578677Y838008D01*
X578644Y837991D01*
X578118Y837649D01*
X577817Y837448D01*
X577742Y837390D01*
X577709Y837373D01*
X577032Y836881D01*
X576974Y836839D01*
X576765Y836680D01*
X576707Y836638D01*
X576256Y836288D01*
X576164Y836213D01*
X576139Y836188D01*
X576105Y836171D01*
X576055Y836121D01*
X576022Y836104D01*
X575972Y836054D01*
X575938Y836037D01*
X575888Y835987D01*
X575855Y835970D01*
X575788Y835904D01*
X575755Y835887D01*
X575688Y835820D01*
X575654Y835803D01*
X575588Y835737D01*
X575554Y835720D01*
X575488Y835653D01*
X575454Y835636D01*
X575371Y835553D01*
X575337Y835536D01*
X575254Y835453D01*
X575220Y835436D01*
X575137Y835352D01*
X575103Y835336D01*
X575003Y835236D01*
X574970Y835219D01*
X574853Y835102D01*
X574819Y835085D01*
X574719Y834985D01*
X574686Y834968D01*
X574536Y834818D01*
X574502Y834801D01*
X574335Y834634D01*
X574302Y834618D01*
X574118Y834434D01*
X574085Y834417D01*
X573834Y834167D01*
X573801Y834150D01*
X573467Y833816D01*
X573433Y833799D01*
X571788Y832154D01*
X571772Y832121D01*
X571421Y831770D01*
X571404Y831737D01*
X571120Y831453D01*
X571104Y831419D01*
X570920Y831236D01*
X570903Y831202D01*
X570719Y831019D01*
X570703Y830985D01*
X570552Y830835D01*
X570536Y830801D01*
X570402Y830668D01*
X570385Y830634D01*
X570252Y830501D01*
X570235Y830467D01*
X570118Y830350D01*
X570101Y830317D01*
X569985Y830200D01*
X569968Y830167D01*
X569868Y830067D01*
X569851Y830033D01*
X569751Y829933D01*
X569734Y829900D01*
X569650Y829816D01*
X569634Y829783D01*
X569534Y829682D01*
X569517Y829649D01*
X569433Y829566D01*
X569417Y829532D01*
X569333Y829449D01*
X569316Y829415D01*
X569233Y829332D01*
X569216Y829298D01*
X569133Y829215D01*
X569116Y829181D01*
X569033Y829098D01*
X569016Y829064D01*
X568949Y828998D01*
X568932Y828964D01*
X568849Y828881D01*
X568832Y828847D01*
X568765Y828781D01*
X568749Y828747D01*
X568682Y828680D01*
X568665Y828647D01*
X568582Y828564D01*
X568565Y828530D01*
X568498Y828463D01*
X568481Y828430D01*
X568415Y828363D01*
X568398Y828330D01*
X568331Y828263D01*
X568314Y828230D01*
X568264Y828179D01*
X568248Y828146D01*
X568181Y828079D01*
X568164Y828046D01*
X568097Y827979D01*
X568081Y827945D01*
X568014Y827879D01*
X567997Y827845D01*
X567947Y827795D01*
X567930Y827762D01*
X567864Y827695D01*
X567847Y827662D01*
X567797Y827611D01*
X567780Y827578D01*
X567713Y827511D01*
X567696Y827478D01*
X567646Y827428D01*
X567630Y827394D01*
X567579Y827344D01*
X567563Y827311D01*
X567496Y827244D01*
X567479Y827211D01*
X567429Y827161D01*
X567412Y827127D01*
X567362Y827077D01*
X567346Y827044D01*
X567296Y826994D01*
X567279Y826960D01*
X567229Y826910D01*
X567212Y826877D01*
X567162Y826827D01*
X567145Y826793D01*
X567095Y826743D01*
X567079Y826710D01*
X567028Y826659D01*
X567012Y826626D01*
X566962Y826576D01*
X566945Y826543D01*
X566912Y826509D01*
X566895Y826476D01*
X566845Y826426D01*
X566828Y826392D01*
X566795Y826359D01*
X566778Y826326D01*
X566728Y826275D01*
X566711Y826242D01*
X566661Y826192D01*
X566644Y826159D01*
X566611Y826125D01*
X566594Y826092D01*
X566544Y826042D01*
X566527Y826008D01*
X566477Y825958D01*
X566461Y825925D01*
X566427Y825891D01*
X566410Y825858D01*
X566360Y825808D01*
X566344Y825774D01*
X566310Y825741D01*
X566294Y825708D01*
X566244Y825658D01*
X566227Y825624D01*
X566177Y825574D01*
X566160Y825541D01*
X566127Y825507D01*
X566110Y825474D01*
X566060Y825424D01*
X566043Y825390D01*
X566010Y825357D01*
X565993Y825323D01*
X565960Y825290D01*
X565943Y825257D01*
X565909Y825223D01*
X565893Y825190D01*
X565859Y825156D01*
X565843Y825123D01*
X565793Y825073D01*
X565776Y825040D01*
X565742Y825006D01*
X565726Y824973D01*
X565692Y824939D01*
X565676Y824906D01*
X565642Y824873D01*
X565625Y824839D01*
X565592Y824806D01*
X565575Y824772D01*
X565542Y824739D01*
X565525Y824706D01*
X565492Y824672D01*
X565475Y824639D01*
X565425Y824589D01*
X565408Y824555D01*
X565375Y824522D01*
X565358Y824488D01*
X565325Y824455D01*
X565308Y824422D01*
X565275Y824388D01*
X565258Y824355D01*
X565225Y824321D01*
X565208Y824288D01*
X565175Y824255D01*
X565158Y824221D01*
X565125Y824188D01*
X565108Y824154D01*
X565058Y824104D01*
X565041Y824071D01*
X564882Y823862D01*
X564841Y823804D01*
X564515Y823361D01*
X564473Y823303D01*
X564231Y822977D01*
X562770Y820931D01*
X562753Y820898D01*
X562719Y820864D01*
X562703Y820831D01*
X562536Y820597D01*
X562519Y820564D01*
X562486Y820530D01*
X562469Y820497D01*
X562302Y820263D01*
X562285Y820230D01*
X562118Y819996D01*
X562102Y819962D01*
X561935Y819729D01*
X561918Y819695D01*
X561751Y819461D01*
X561734Y819428D01*
X561651Y819311D01*
X561634Y819278D01*
X561550Y819161D01*
X561534Y819127D01*
X561450Y819010D01*
X561433Y818977D01*
X561350Y818860D01*
X561333Y818827D01*
X561250Y818710D01*
X561233Y818676D01*
X561150Y818559D01*
X561133Y818526D01*
X561049Y818409D01*
X561033Y818376D01*
X560949Y818259D01*
X560933Y818225D01*
X560849Y818109D01*
X560832Y818075D01*
X560749Y817958D01*
X560732Y817925D01*
X560507Y817582D01*
X560440Y817482D01*
X560356Y817349D01*
X560223Y817148D01*
X560139Y817015D01*
X560072Y816915D01*
X559955Y816731D01*
X559889Y816630D01*
X559805Y816497D01*
X559738Y816397D01*
X559655Y816263D01*
X559070Y815345D01*
X558987Y815211D01*
X558870Y815027D01*
X558703Y814760D01*
X558603Y814593D01*
X558486Y814409D01*
X558386Y814242D01*
X558219Y813975D01*
X557517Y812806D01*
X557183Y812238D01*
X556999Y811921D01*
X556732Y811453D01*
X555922Y809992D01*
X555905Y809958D01*
X555805Y809775D01*
X555688Y809558D01*
X555555Y809307D01*
X555237Y808706D01*
X554970Y808188D01*
X553918Y806067D01*
X553751Y805716D01*
X553617Y805433D01*
X553517Y805215D01*
X553400Y804965D01*
X553300Y804748D01*
X553217Y804564D01*
X553150Y804414D01*
X553066Y804230D01*
X552799Y803629D01*
X552749Y803512D01*
X552682Y803362D01*
X552482Y802894D01*
X552448Y802810D01*
X552348Y802577D01*
X552315Y802493D01*
X552265Y802376D01*
X552231Y802293D01*
X552181Y802176D01*
X552081Y801925D01*
X552031Y801808D01*
X551797Y801224D01*
X551755Y801115D01*
X551655Y800865D01*
X551605Y800731D01*
X551572Y800648D01*
X551471Y800380D01*
X551438Y800297D01*
X551388Y800163D01*
X551321Y799980D01*
X551271Y799846D01*
X551071Y799295D01*
X550970Y799011D01*
X550544Y797717D01*
X550461Y797449D01*
X550361Y797115D01*
X550327Y796998D01*
X550336Y796973D01*
X550469Y797307D01*
X550528Y797449D01*
X550578Y797566D01*
X550611Y797650D01*
X550661Y797767D01*
X550695Y797850D01*
X550745Y797967D01*
X550778Y798051D01*
X550828Y798167D01*
X550862Y798251D01*
X550912Y798368D01*
X550945Y798451D01*
X550995Y798568D01*
X551029Y798652D01*
X551179Y799003D01*
X551213Y799086D01*
X551613Y800021D01*
X551680Y800172D01*
X551780Y800405D01*
X551914Y800706D01*
X551964Y800823D01*
X552164Y801274D01*
X552248Y801458D01*
X552315Y801608D01*
X552565Y802159D01*
X552766Y802593D01*
X552899Y802877D01*
X553050Y803195D01*
X553250Y803612D01*
X554152Y805399D01*
X554302Y805683D01*
X554436Y805934D01*
X554553Y806151D01*
X555254Y807437D01*
X556006Y808789D01*
X556073Y808906D01*
X556156Y809057D01*
X556290Y809290D01*
X556373Y809441D01*
X556841Y810259D01*
X556924Y810393D01*
X557024Y810576D01*
X557091Y810693D01*
X557175Y810827D01*
X557275Y811011D01*
X557359Y811144D01*
X557375Y811178D01*
X557442Y811294D01*
X557525Y811428D01*
X557609Y811579D01*
X557692Y811712D01*
X557776Y811862D01*
X557859Y811996D01*
X557876Y812029D01*
X557960Y812163D01*
X557976Y812196D01*
X558043Y812313D01*
X558127Y812447D01*
X558143Y812480D01*
X558260Y812664D01*
X558277Y812697D01*
X558361Y812831D01*
X558377Y812864D01*
X558461Y812998D01*
X558477Y813031D01*
X558561Y813165D01*
X558578Y813198D01*
X558695Y813382D01*
X558711Y813416D01*
X558828Y813599D01*
X558845Y813633D01*
X558928Y813766D01*
X558945Y813800D01*
X559012Y813900D01*
X559029Y813933D01*
X559095Y814034D01*
X559112Y814067D01*
X559179Y814167D01*
X559196Y814201D01*
X559262Y814301D01*
X559279Y814334D01*
X559513Y814702D01*
X559530Y814735D01*
X559613Y814852D01*
X559680Y814969D01*
X559747Y815069D01*
X559763Y815102D01*
X559847Y815219D01*
X559914Y815336D01*
X559997Y815453D01*
X560064Y815570D01*
X560148Y815687D01*
X560164Y815720D01*
X560390Y816063D01*
X560457Y816163D01*
X560540Y816296D01*
X560807Y816697D01*
X560832Y816722D01*
X560849Y816756D01*
X560933Y816873D01*
X560949Y816906D01*
X561033Y817023D01*
X561049Y817056D01*
X561216Y817290D01*
X561233Y817324D01*
X561400Y817557D01*
X561417Y817591D01*
X562285Y818793D01*
X562444Y819002D01*
X562486Y819061D01*
X562644Y819269D01*
X562669Y819294D01*
X562686Y819328D01*
X562719Y819361D01*
X562736Y819395D01*
X562786Y819445D01*
X562803Y819478D01*
X562853Y819528D01*
X562870Y819562D01*
X562920Y819612D01*
X562937Y819645D01*
X562987Y819695D01*
X563003Y819729D01*
X563070Y819795D01*
X563087Y819829D01*
X563154Y819896D01*
X563171Y819929D01*
X563179Y819937D01*
X563187Y819912D01*
X563120Y819812D01*
X563003Y819595D01*
X562669Y819010D01*
X562586Y818860D01*
X562452Y818626D01*
X562369Y818476D01*
X562302Y818359D01*
X562219Y818209D01*
X562152Y818092D01*
X561400Y816739D01*
X561300Y816555D01*
X561216Y816405D01*
X561016Y816038D01*
X560933Y815887D01*
X560331Y814785D01*
X559864Y813917D01*
X559730Y813666D01*
X559613Y813449D01*
X559212Y812697D01*
X558912Y812130D01*
X558561Y811461D01*
X558143Y810660D01*
X557876Y810142D01*
X557559Y809524D01*
X557075Y808572D01*
X555839Y806084D01*
X555538Y805466D01*
X555171Y804698D01*
X555004Y804347D01*
X554887Y804096D01*
X554753Y803812D01*
X554519Y803311D01*
X554436Y803128D01*
X554336Y802911D01*
X554252Y802727D01*
X554152Y802510D01*
X554085Y802359D01*
X554002Y802176D01*
X553868Y801875D01*
X553784Y801691D01*
X553651Y801391D01*
X553601Y801274D01*
X553534Y801124D01*
X553434Y800890D01*
X553367Y800739D01*
X553317Y800623D01*
X553250Y800472D01*
X553217Y800389D01*
X553066Y800038D01*
X553033Y799955D01*
X552933Y799721D01*
X552899Y799637D01*
X552849Y799520D01*
X552816Y799437D01*
X552766Y799320D01*
X552632Y798986D01*
X552582Y798869D01*
X552382Y798368D01*
X552340Y798259D01*
X552240Y798009D01*
X552189Y797875D01*
X552156Y797792D01*
X551856Y796990D01*
X551789Y796806D01*
X551705Y796572D01*
X551588Y796238D01*
X551563Y796147D01*
X551572Y796138D01*
X551947Y796965D01*
X552048Y797182D01*
X552164Y797433D01*
X552365Y797867D01*
X552482Y798117D01*
X552582Y798335D01*
X552816Y798836D01*
X553083Y799403D01*
X553384Y800038D01*
X553551Y800389D01*
X553951Y801224D01*
X554553Y802460D01*
X556323Y805984D01*
X556573Y806468D01*
X556991Y807270D01*
X557175Y807620D01*
X557475Y808188D01*
X557743Y808689D01*
X557859Y808906D01*
X557960Y809090D01*
X558194Y809524D01*
X558594Y810259D01*
X558761Y810560D01*
X558862Y810743D01*
X559029Y811044D01*
X559095Y811161D01*
X559346Y811612D01*
X559479Y811846D01*
X559563Y811996D01*
X559697Y812230D01*
X559780Y812380D01*
X560114Y812965D01*
X560198Y813098D01*
X560298Y813282D01*
X560365Y813399D01*
X560448Y813532D01*
X560548Y813716D01*
X560632Y813850D01*
X560715Y814000D01*
X560799Y814134D01*
X560882Y814284D01*
X560966Y814418D01*
X561049Y814568D01*
X561133Y814702D01*
X561150Y814735D01*
X561158Y814743D01*
X561258Y814910D01*
X561425Y815194D01*
X561726Y815695D01*
X561809Y815829D01*
X561909Y815996D01*
X561993Y816130D01*
X562093Y816296D01*
X562177Y816430D01*
X562277Y816597D01*
X563028Y817800D01*
X563496Y818534D01*
X563563Y818635D01*
X563680Y818818D01*
X563814Y819019D01*
X563897Y819152D01*
X564097Y819453D01*
X564214Y819637D01*
X564749Y820438D01*
X564774Y820463D01*
X564790Y820497D01*
X564874Y820614D01*
X564891Y820647D01*
X564974Y820764D01*
X564991Y820798D01*
X565158Y821031D01*
X565175Y821065D01*
X565342Y821299D01*
X565358Y821332D01*
X565609Y821683D01*
X565625Y821716D01*
X565659Y821749D01*
X565676Y821783D01*
X565926Y822134D01*
X565943Y822167D01*
X565976Y822200D01*
X565993Y822234D01*
X566026Y822267D01*
X566043Y822301D01*
X566452Y822860D01*
X566519Y822960D01*
X566544Y822985D01*
X566561Y823019D01*
X566594Y823052D01*
X566611Y823085D01*
X566644Y823119D01*
X566661Y823152D01*
X566694Y823186D01*
X566711Y823219D01*
X566870Y823428D01*
X566912Y823486D01*
X567070Y823695D01*
X567112Y823754D01*
X567271Y823962D01*
X567312Y824021D01*
X567546Y824321D01*
X567705Y824530D01*
X567730Y824555D01*
X567747Y824589D01*
X567780Y824622D01*
X567797Y824655D01*
X567847Y824706D01*
X567864Y824739D01*
X567914Y824789D01*
X567930Y824822D01*
X567964Y824856D01*
X567980Y824889D01*
X568031Y824939D01*
X568047Y824973D01*
X568097Y825023D01*
X568114Y825056D01*
X568164Y825106D01*
X568181Y825140D01*
X568231Y825190D01*
X568248Y825223D01*
X568298Y825273D01*
X568314Y825307D01*
X568364Y825357D01*
X568381Y825390D01*
X568431Y825440D01*
X568448Y825474D01*
X568515Y825541D01*
X568531Y825574D01*
X568582Y825624D01*
X568598Y825658D01*
X568648Y825708D01*
X568665Y825741D01*
X568732Y825808D01*
X568749Y825841D01*
X568815Y825908D01*
X568832Y825941D01*
X568899Y826008D01*
X568916Y826042D01*
X568982Y826108D01*
X568999Y826142D01*
X569066Y826209D01*
X569083Y826242D01*
X569150Y826309D01*
X569166Y826342D01*
X569250Y826426D01*
X569266Y826459D01*
X569350Y826543D01*
X569367Y826576D01*
X569450Y826659D01*
X569467Y826693D01*
X569550Y826777D01*
X569567Y826810D01*
X569650Y826893D01*
X569667Y826927D01*
X569784Y827044D01*
X569801Y827077D01*
X569901Y827177D01*
X569918Y827211D01*
X570035Y827328D01*
X570051Y827361D01*
X570202Y827511D01*
X570218Y827545D01*
X570369Y827695D01*
X570385Y827728D01*
X570569Y827912D01*
X570586Y827945D01*
X570820Y828179D01*
X570836Y828213D01*
X571254Y828630D01*
X571270Y828664D01*
X571713Y829106D01*
X571746Y829123D01*
X572147Y829524D01*
X572181Y829540D01*
X572398Y829758D01*
X572431Y829774D01*
X572581Y829925D01*
X572615Y829941D01*
X572748Y830075D01*
X572782Y830092D01*
X572915Y830225D01*
X572949Y830242D01*
X573032Y830325D01*
X573066Y830342D01*
X573149Y830426D01*
X573183Y830442D01*
X573283Y830543D01*
X573316Y830559D01*
X573367Y830609D01*
X573400Y830626D01*
X573467Y830693D01*
X573500Y830710D01*
X573567Y830776D01*
X573600Y830793D01*
X573667Y830860D01*
X573700Y830877D01*
X573751Y830927D01*
X573784Y830943D01*
X573817Y830977D01*
X573851Y830993D01*
X573901Y831044D01*
X573934Y831060D01*
X573984Y831110D01*
X574018Y831127D01*
X574068Y831177D01*
X574101Y831194D01*
X574135Y831227D01*
X574168Y831244D01*
X574202Y831277D01*
X574235Y831294D01*
X574268Y831328D01*
X574302Y831344D01*
X574335Y831378D01*
X574369Y831394D01*
X574402Y831428D01*
X574435Y831444D01*
X574469Y831478D01*
X574502Y831495D01*
X574536Y831528D01*
X574569Y831545D01*
X575037Y831879D01*
X575070Y831895D01*
X575187Y831979D01*
X575220Y831995D01*
X575337Y832079D01*
X575371Y832096D01*
X575488Y832179D01*
X575638Y832263D01*
X575821Y832380D01*
X575855Y832396D01*
X575972Y832463D01*
X576105Y832547D01*
X576356Y832680D01*
X576640Y832831D01*
X577124Y833064D01*
X577275Y833131D01*
X577391Y833181D01*
X577475Y833215D01*
X577592Y833265D01*
X577700Y833307D01*
X577784Y833340D01*
X577968Y833407D01*
X578460Y833565D01*
X578577Y833599D01*
X578744Y833649D01*
X579078Y833733D01*
X579270Y833774D01*
X579370Y833791D01*
X579454Y833808D01*
X579654Y833841D01*
X579997Y833883D01*
X580114Y833900D01*
X580481Y833916D01*
X580598Y833933D01*
X581350Y833916D01*
X581400Y833900D01*
X581675Y833874D01*
X581892Y833841D01*
X582093Y833808D01*
X582260Y833774D01*
X582327Y833757D01*
X582410Y833741D01*
X582544Y833707D01*
X582636Y833682D01*
X582702Y833666D01*
X583212Y833490D01*
X583345Y833440D01*
X583596Y833340D01*
X584013Y833140D01*
X584347Y832956D01*
X584631Y832789D01*
X585032Y832522D01*
X585057Y832497D01*
X585091Y832480D01*
X585299Y832321D01*
X585358Y832280D01*
X585391Y832246D01*
X585425Y832229D01*
X585458Y832196D01*
X585491Y832179D01*
X585542Y832129D01*
X585575Y832113D01*
X585692Y831995D01*
X585725Y831979D01*
X585842Y831862D01*
X585876Y831845D01*
X586176Y831545D01*
X586210Y831528D01*
X586251Y831486D01*
X586268Y831453D01*
X586652Y831069D01*
X586669Y831035D01*
X586802Y830902D01*
X586819Y830868D01*
X586919Y830768D01*
X586936Y830735D01*
X587020Y830651D01*
X587036Y830618D01*
X587103Y830551D01*
X587120Y830518D01*
X587187Y830451D01*
X587203Y830417D01*
X587253Y830367D01*
X587270Y830334D01*
X587320Y830284D01*
X587337Y830250D01*
X587387Y830200D01*
X587404Y830167D01*
X587437Y830133D01*
X587454Y830100D01*
X587487Y830067D01*
X587504Y830033D01*
X587537Y830000D01*
X587554Y829966D01*
X587587Y829933D01*
X587604Y829900D01*
X587638Y829866D01*
X587654Y829833D01*
X587905Y829482D01*
X587921Y829449D01*
X588005Y829332D01*
X588022Y829298D01*
X588139Y829115D01*
X588155Y829081D01*
X588239Y828948D01*
X588280Y828872D01*
X588306Y828881D01*
X588331Y829390D01*
X588347Y829758D01*
X588364Y830209D01*
X588372Y831770D01*
X588356Y831820D01*
X588339Y832522D01*
X588322Y832572D01*
X588297Y832981D01*
X588280Y833148D01*
X588264Y833332D01*
X588230Y833632D01*
X588197Y833900D01*
X588147Y834233D01*
X588114Y834451D01*
X588097Y834534D01*
X588080Y834634D01*
X588063Y834718D01*
X588047Y834818D01*
X588030Y834902D01*
X588013Y834968D01*
X587963Y835219D01*
X587846Y835686D01*
X587821Y835778D01*
X587755Y836012D01*
X587562Y836572D01*
X587512Y836705D01*
X587412Y836956D01*
X587370Y837048D01*
X587320Y837165D01*
X587053Y837682D01*
X586986Y837799D01*
X586761Y838142D01*
X586719Y838200D01*
X586560Y838409D01*
X586535Y838434D01*
X586519Y838467D01*
X586402Y838584D01*
X586385Y838617D01*
X586076Y838926D01*
X586043Y838943D01*
X585976Y839010D01*
X585942Y839027D01*
X585876Y839093D01*
X585842Y839110D01*
X585809Y839144D01*
X585775Y839160D01*
X585558Y839311D01*
X585525Y839327D01*
X585391Y839411D01*
X585141Y839528D01*
X585024Y839578D01*
X584915Y839620D01*
X584723Y839678D01*
X584606Y839712D01*
X584406Y839762D01*
X584289Y839778D01*
X584222Y839795D01*
X583855Y839828D01*
X583537Y839845D01*
D02*
G37*
G36*
X550319Y796973D02*
X550311Y796965D01*
Y796948D01*
X550319Y796940D01*
X550327Y796965D01*
X550319Y796973D01*
D02*
G37*
G36*
X550302Y796923D02*
X550294Y796915D01*
X550302Y796907D01*
X550311Y796915D01*
X550302Y796923D01*
D02*
G37*
G36*
X551555Y796138D02*
X551547Y796113D01*
X551555Y796105D01*
X551563Y796130D01*
X551555Y796138D01*
D02*
G37*
G36*
X551538Y796088D02*
X551530Y796080D01*
X551538Y796071D01*
X551547Y796080D01*
X551538Y796088D01*
D02*
G37*
G36*
X548348Y795621D02*
X548290Y795479D01*
X548223Y795312D01*
X548181Y795203D01*
X548148Y795119D01*
X548098Y794986D01*
X548064Y794902D01*
X548014Y794769D01*
X547981Y794685D01*
X547956Y794594D01*
X548039Y794443D01*
X548123Y794309D01*
X548139Y794276D01*
X548206Y794176D01*
X548223Y794143D01*
X548307Y794009D01*
X548323Y793976D01*
X548390Y793875D01*
X548407Y793842D01*
X548490Y793708D01*
X548507Y793675D01*
X548574Y793575D01*
X548590Y793541D01*
X548674Y793408D01*
X548691Y793374D01*
X548716Y793316D01*
X548666Y793182D01*
X548599Y793015D01*
X548549Y792882D01*
X548515Y792798D01*
X548465Y792664D01*
X548432Y792581D01*
X548382Y792447D01*
X548315Y792280D01*
X548265Y792147D01*
X548231Y792063D01*
X548181Y791930D01*
X548148Y791846D01*
X548098Y791712D01*
X548064Y791629D01*
X548014Y791495D01*
X547947Y791328D01*
X547897Y791195D01*
X547864Y791111D01*
X547814Y790978D01*
X547780Y790894D01*
X547730Y790760D01*
X547705Y790702D01*
X547680Y790694D01*
X547630Y790744D01*
X547597Y790760D01*
X547530Y790827D01*
X547496Y790844D01*
X547430Y790911D01*
X547396Y790928D01*
X547329Y790994D01*
X547296Y791011D01*
X547246Y791061D01*
X547213Y791078D01*
X547146Y791145D01*
X547112Y791161D01*
X547046Y791228D01*
X547012Y791245D01*
X546962Y791295D01*
X546929Y791312D01*
X546862Y791378D01*
X546828Y791395D01*
X546762Y791462D01*
X546728Y791479D01*
X546678Y791529D01*
X546645Y791545D01*
X546578Y791612D01*
X546544Y791629D01*
X546478Y791696D01*
X546444Y791712D01*
X546377Y791779D01*
X546344Y791796D01*
X546294Y791846D01*
X546261Y791863D01*
X546194Y791930D01*
X546160Y791946D01*
X546094Y792013D01*
X546060Y792030D01*
X546010Y792080D01*
X545977Y792097D01*
X545910Y792163D01*
X545877Y792180D01*
X545810Y792247D01*
X545776Y792264D01*
X545709Y792330D01*
X545676Y792347D01*
X545626Y792397D01*
X545593Y792414D01*
X545526Y792481D01*
X545492Y792497D01*
X545426Y792564D01*
X545392Y792581D01*
X545342Y792631D01*
X545309Y792648D01*
X545242Y792715D01*
X545208Y792731D01*
X545142Y792798D01*
X545108Y792815D01*
X545058Y792865D01*
X545025Y792882D01*
X544958Y792948D01*
X544925Y792965D01*
X544858Y793032D01*
X544824Y793049D01*
X544757Y793115D01*
X544724Y793132D01*
X544674Y793182D01*
X544641Y793199D01*
X544574Y793266D01*
X544540Y793282D01*
X544474Y793349D01*
X544440Y793366D01*
X544390Y793416D01*
X544357Y793433D01*
X544290Y793500D01*
X544257Y793516D01*
X544190Y793583D01*
X544156Y793600D01*
X544090Y793667D01*
X544056Y793683D01*
X544006Y793733D01*
X543973Y793750D01*
X543906Y793817D01*
X543872Y793834D01*
X543806Y793900D01*
X543772Y793917D01*
X543722Y793967D01*
X543689Y793984D01*
X543622Y794051D01*
X543588Y794067D01*
X543522Y794134D01*
X543488Y794151D01*
X543455Y794184D01*
X543430Y794159D01*
X543413Y794092D01*
X543363Y793976D01*
X543321Y793867D01*
X543254Y793700D01*
X543204Y793566D01*
X543171Y793483D01*
X543121Y793349D01*
X543087Y793266D01*
X543037Y793132D01*
X542971Y792965D01*
X542945Y792890D01*
X542995Y792840D01*
X543012Y792806D01*
X543046Y792773D01*
X543062Y792740D01*
X543112Y792690D01*
X543129Y792656D01*
X543163Y792623D01*
X543179Y792589D01*
X543229Y792539D01*
X543246Y792506D01*
X543279Y792472D01*
X543296Y792439D01*
X543330Y792406D01*
X543346Y792372D01*
X543396Y792322D01*
X543413Y792289D01*
X543447Y792255D01*
X543463Y792222D01*
X543513Y792172D01*
X543530Y792138D01*
X543563Y792105D01*
X543580Y792072D01*
X543630Y792021D01*
X543647Y791988D01*
X543680Y791955D01*
X543697Y791921D01*
X543730Y791888D01*
X543747Y791854D01*
X543797Y791804D01*
X543814Y791771D01*
X543847Y791738D01*
X543864Y791704D01*
X543914Y791654D01*
X543931Y791621D01*
X543964Y791587D01*
X543981Y791554D01*
X544031Y791504D01*
X544048Y791470D01*
X544081Y791437D01*
X544098Y791404D01*
X544131Y791370D01*
X544148Y791337D01*
X544198Y791287D01*
X544215Y791253D01*
X544248Y791220D01*
X544265Y791186D01*
X544315Y791136D01*
X544332Y791103D01*
X544365Y791069D01*
X544382Y791036D01*
X544415Y791003D01*
X544432Y790969D01*
X544482Y790919D01*
X544499Y790886D01*
X544532Y790852D01*
X544549Y790819D01*
X544599Y790769D01*
X544616Y790735D01*
X544649Y790702D01*
X544666Y790669D01*
X544716Y790619D01*
X544733Y790585D01*
X544766Y790552D01*
X544783Y790518D01*
X544816Y790485D01*
X544833Y790452D01*
X544883Y790402D01*
X544899Y790368D01*
X544933Y790335D01*
X544950Y790301D01*
X545000Y790251D01*
X545016Y790218D01*
X545050Y790184D01*
X545066Y790151D01*
X545117Y790101D01*
X545133Y790068D01*
X545167Y790034D01*
X545183Y790001D01*
X545217Y789967D01*
X545233Y789934D01*
X545284Y789884D01*
X545300Y789850D01*
X545334Y789817D01*
X545350Y789783D01*
X545401Y789733D01*
X545417Y789700D01*
X545451Y789667D01*
X545467Y789633D01*
X545517Y789583D01*
X545534Y789550D01*
X545568Y789516D01*
X545584Y789483D01*
X545618Y789449D01*
X545634Y789416D01*
X545684Y789366D01*
X545701Y789333D01*
X545734Y789299D01*
X545751Y789266D01*
X545801Y789216D01*
X545818Y789182D01*
X545851Y789149D01*
X545868Y789116D01*
X545918Y789065D01*
X545935Y789032D01*
X545968Y788999D01*
X545985Y788965D01*
X546018Y788932D01*
X546035Y788898D01*
X546085Y788848D01*
X546102Y788815D01*
X546135Y788782D01*
X546152Y788748D01*
X546202Y788698D01*
X546219Y788665D01*
X546252Y788631D01*
X546269Y788598D01*
X546319Y788548D01*
X546336Y788514D01*
X546369Y788481D01*
X546386Y788447D01*
X546419Y788414D01*
X546436Y788381D01*
X546486Y788331D01*
X546503Y788297D01*
X546536Y788264D01*
X546553Y788230D01*
X546603Y788180D01*
X546620Y788147D01*
X546653Y788113D01*
X546687Y788047D01*
X546636Y787930D01*
X546595Y787821D01*
X546561Y787738D01*
X546511Y787604D01*
X546478Y787521D01*
X546428Y787387D01*
X546394Y787303D01*
X546344Y787170D01*
X546277Y787003D01*
X546227Y786869D01*
X546194Y786786D01*
X546144Y786652D01*
X546110Y786569D01*
X546060Y786435D01*
X546027Y786351D01*
X545977Y786218D01*
X545910Y786051D01*
X545860Y785917D01*
X545826Y785834D01*
X545776Y785700D01*
X545743Y785617D01*
X545693Y785483D01*
X545601Y785191D01*
X545584Y785124D01*
X545568Y784957D01*
X545593Y784815D01*
X545626Y784732D01*
X545709Y784598D01*
X545776Y784531D01*
X545810Y784514D01*
X545910Y784448D01*
X546027Y784397D01*
X546144Y784364D01*
X546277Y784331D01*
X546511Y784347D01*
X546695Y784448D01*
X546820Y784573D01*
X546837Y784606D01*
X546920Y784740D01*
X546954Y784823D01*
X547004Y784940D01*
X547046Y785049D01*
X547079Y785132D01*
X547129Y785266D01*
X547163Y785349D01*
X547213Y785483D01*
X547279Y785650D01*
X547329Y785784D01*
X547363Y785867D01*
X547413Y786001D01*
X547446Y786084D01*
X547496Y786218D01*
X547530Y786301D01*
X547580Y786435D01*
X547613Y786518D01*
X547663Y786652D01*
X547730Y786819D01*
X547780Y786953D01*
X547814Y787036D01*
X547864Y787170D01*
X547897Y787253D01*
X547947Y787387D01*
X548014Y787554D01*
X548156Y787579D01*
X548357Y787612D01*
X548440Y787629D01*
X548641Y787663D01*
X548724Y787679D01*
X548924Y787713D01*
X549008Y787729D01*
X549208Y787763D01*
X549292Y787779D01*
X549492Y787813D01*
X549576Y787830D01*
X549776Y787863D01*
X549860Y787880D01*
X550060Y787913D01*
X550144Y787930D01*
X550244Y787946D01*
X550327Y787963D01*
X550528Y787997D01*
X550611Y788013D01*
X550812Y788047D01*
X550895Y788063D01*
X551096Y788097D01*
X551179Y788113D01*
X551380Y788147D01*
X551463Y788164D01*
X551663Y788197D01*
X551747Y788214D01*
X551947Y788247D01*
X552031Y788264D01*
X552231Y788297D01*
X552315Y788314D01*
X552515Y788347D01*
X552599Y788364D01*
X552799Y788397D01*
X552883Y788414D01*
X552983Y788431D01*
X553066Y788447D01*
X553267Y788481D01*
X553350Y788498D01*
X553551Y788531D01*
X553634Y788548D01*
X553835Y788581D01*
X553918Y788598D01*
X554018Y788615D01*
X554102Y788798D01*
X554143Y788907D01*
X554177Y788990D01*
X554227Y789124D01*
X554260Y789207D01*
X554310Y789341D01*
X554377Y789508D01*
X554427Y789642D01*
X554461Y789725D01*
X554511Y789859D01*
X554519Y789901D01*
X554369Y789917D01*
X553300Y789967D01*
X552599Y790001D01*
X551530Y790051D01*
X550828Y790084D01*
X549759Y790134D01*
X549058Y790168D01*
X549025Y790184D01*
X549125Y790435D01*
X549167Y790544D01*
X549200Y790627D01*
X549250Y790760D01*
X549317Y790928D01*
X549367Y791061D01*
X549400Y791145D01*
X549450Y791278D01*
X549484Y791362D01*
X549534Y791495D01*
X549601Y791662D01*
X549651Y791796D01*
X549684Y791880D01*
X549709Y791971D01*
X549718Y791980D01*
X549776Y792122D01*
X549818Y792230D01*
X549885Y792397D01*
X549935Y792531D01*
X549968Y792614D01*
X550018Y792748D01*
X550043Y792806D01*
X550152Y792848D01*
X550219Y792865D01*
X550336Y792898D01*
X550503Y792948D01*
X550620Y792982D01*
X550787Y793032D01*
X550904Y793065D01*
X551071Y793115D01*
X551187Y793149D01*
X551354Y793199D01*
X551463Y793241D01*
X551530Y793391D01*
X551572Y793500D01*
X551605Y793583D01*
X551655Y793717D01*
X551688Y793800D01*
X551739Y793934D01*
X551805Y794101D01*
X551856Y794234D01*
X551864Y794259D01*
X551797Y794276D01*
X550060Y794410D01*
X549893Y794426D01*
X549851Y794468D01*
X549818Y794485D01*
X549768Y794535D01*
X549734Y794552D01*
X549701Y794585D01*
X549668Y794602D01*
X549618Y794652D01*
X549584Y794669D01*
X549551Y794702D01*
X549517Y794719D01*
X549467Y794769D01*
X549434Y794786D01*
X549400Y794819D01*
X549367Y794836D01*
X549317Y794886D01*
X549283Y794902D01*
X549250Y794936D01*
X549217Y794952D01*
X549167Y795003D01*
X549133Y795019D01*
X549100Y795053D01*
X549066Y795069D01*
X549016Y795119D01*
X548983Y795136D01*
X548950Y795170D01*
X548916Y795186D01*
X548866Y795237D01*
X548833Y795253D01*
X548799Y795286D01*
X548766Y795303D01*
X548716Y795353D01*
X548682Y795370D01*
X548649Y795404D01*
X548615Y795420D01*
X548565Y795470D01*
X548532Y795487D01*
X548498Y795520D01*
X548465Y795537D01*
X548415Y795587D01*
X548348Y795621D01*
D02*
G37*
G36*
X581450Y830760D02*
X581333Y830743D01*
X581057Y830701D01*
X580857Y830668D01*
X580790Y830651D01*
X580707Y830634D01*
X580640Y830618D01*
X580556Y830601D01*
X580356Y830551D01*
X580264Y830526D01*
X580197Y830509D01*
X580080Y830476D01*
X579471Y830267D01*
X579387Y830234D01*
X579120Y830133D01*
X578819Y830000D01*
X578736Y829966D01*
X578552Y829883D01*
X577976Y829591D01*
X577525Y829340D01*
X577391Y829257D01*
X577358Y829240D01*
X577174Y829123D01*
X577141Y829106D01*
X576957Y828989D01*
X576924Y828973D01*
X576807Y828889D01*
X576773Y828872D01*
X576657Y828789D01*
X576623Y828772D01*
X576389Y828605D01*
X576356Y828588D01*
X576239Y828505D01*
X576206Y828488D01*
X576172Y828455D01*
X576139Y828438D01*
X576105Y828405D01*
X576072Y828388D01*
X576039Y828355D01*
X576005Y828338D01*
X575797Y828179D01*
X575738Y828138D01*
X575705Y828104D01*
X575671Y828087D01*
X575638Y828054D01*
X575604Y828037D01*
X575571Y828004D01*
X575538Y827987D01*
X575488Y827937D01*
X575454Y827921D01*
X575404Y827870D01*
X575371Y827854D01*
X575321Y827804D01*
X575287Y827787D01*
X575237Y827737D01*
X575204Y827720D01*
X575137Y827653D01*
X575103Y827637D01*
X575037Y827570D01*
X575003Y827553D01*
X574936Y827486D01*
X574903Y827469D01*
X574836Y827403D01*
X574803Y827386D01*
X574703Y827286D01*
X574669Y827269D01*
X574569Y827169D01*
X574536Y827152D01*
X574419Y827035D01*
X574385Y827019D01*
X574218Y826852D01*
X574185Y826835D01*
X573968Y826618D01*
X573934Y826601D01*
X573433Y826100D01*
X573400Y826083D01*
X573325Y826008D01*
X573308Y825975D01*
X572874Y825541D01*
X572857Y825507D01*
X572607Y825257D01*
X572590Y825223D01*
X572440Y825073D01*
X572423Y825040D01*
X572289Y824906D01*
X572272Y824873D01*
X572156Y824756D01*
X572139Y824722D01*
X572039Y824622D01*
X572022Y824589D01*
X571922Y824488D01*
X571905Y824455D01*
X571805Y824355D01*
X571788Y824321D01*
X571721Y824255D01*
X571705Y824221D01*
X571621Y824138D01*
X571604Y824104D01*
X571538Y824037D01*
X571521Y824004D01*
X571454Y823937D01*
X571437Y823904D01*
X571371Y823837D01*
X571354Y823804D01*
X571304Y823754D01*
X571287Y823720D01*
X571237Y823670D01*
X571220Y823637D01*
X571154Y823570D01*
X571137Y823537D01*
X571087Y823486D01*
X571070Y823453D01*
X571020Y823403D01*
X571003Y823369D01*
X570953Y823319D01*
X570937Y823286D01*
X570886Y823236D01*
X570870Y823202D01*
X570836Y823169D01*
X570820Y823136D01*
X570769Y823085D01*
X570753Y823052D01*
X570719Y823019D01*
X570703Y822985D01*
X570653Y822935D01*
X570636Y822902D01*
X570586Y822852D01*
X570569Y822818D01*
X570536Y822785D01*
X570519Y822751D01*
X570485Y822718D01*
X570469Y822685D01*
X570435Y822651D01*
X570419Y822618D01*
X570385Y822585D01*
X570369Y822551D01*
X570335Y822518D01*
X570318Y822484D01*
X570285Y822451D01*
X570268Y822418D01*
X570218Y822367D01*
X570202Y822334D01*
X570168Y822301D01*
X570151Y822267D01*
X569993Y822058D01*
X569926Y821958D01*
X569901Y821933D01*
X569884Y821900D01*
X569851Y821866D01*
X569834Y821833D01*
X569250Y821015D01*
X569233Y820981D01*
X569150Y820864D01*
X569133Y820831D01*
X568966Y820597D01*
X568949Y820564D01*
X568866Y820447D01*
X568849Y820413D01*
X568765Y820296D01*
X568749Y820263D01*
X568665Y820146D01*
X568648Y820113D01*
X568565Y819996D01*
X568548Y819962D01*
X568465Y819846D01*
X568448Y819812D01*
X567864Y818894D01*
X567847Y818860D01*
X567730Y818676D01*
X567713Y818643D01*
X567646Y818543D01*
X567630Y818509D01*
X567513Y818326D01*
X567429Y818175D01*
X567346Y818042D01*
X567329Y818008D01*
X567245Y817875D01*
X567229Y817841D01*
X567145Y817708D01*
X567129Y817674D01*
X567062Y817557D01*
X566978Y817424D01*
X566895Y817273D01*
X566761Y817040D01*
X566678Y816906D01*
X566561Y816689D01*
X566477Y816539D01*
X566410Y816422D01*
X566160Y815971D01*
X566043Y815754D01*
X565843Y815386D01*
X565726Y815169D01*
X565392Y814535D01*
X565091Y813950D01*
X564206Y812163D01*
X564006Y811746D01*
X563872Y811461D01*
X563638Y810960D01*
X563538Y810743D01*
X563120Y809825D01*
X562920Y809374D01*
X562870Y809257D01*
X562803Y809107D01*
X562753Y808990D01*
X562686Y808839D01*
X562636Y808723D01*
X562569Y808572D01*
X562536Y808489D01*
X562235Y807787D01*
X562202Y807704D01*
X562102Y807470D01*
X562068Y807386D01*
X562018Y807270D01*
X561951Y807103D01*
X561901Y806986D01*
X561868Y806902D01*
X561818Y806785D01*
X561751Y806618D01*
X561701Y806501D01*
X561300Y805499D01*
X561250Y805382D01*
X561216Y805299D01*
X561175Y805190D01*
X561108Y805023D01*
X561058Y804890D01*
X560991Y804723D01*
X560941Y804589D01*
X560874Y804422D01*
X560824Y804288D01*
X560757Y804121D01*
X560607Y803721D01*
X560573Y803637D01*
X560323Y802969D01*
X560289Y802886D01*
X560156Y802518D01*
X560106Y802384D01*
X559905Y801833D01*
X559855Y801700D01*
X559789Y801516D01*
X559688Y801232D01*
X559354Y800297D01*
X559020Y799328D01*
X558753Y798543D01*
X557951Y796155D01*
X557617Y795186D01*
X557484Y794802D01*
X557383Y794518D01*
X557300Y794285D01*
X557200Y794001D01*
X557033Y793533D01*
X556899Y793166D01*
X556849Y793032D01*
X556716Y792664D01*
X556665Y792531D01*
X556599Y792347D01*
X556348Y791679D01*
X556315Y791596D01*
X556114Y791061D01*
X556048Y790894D01*
X555997Y790760D01*
X555964Y790677D01*
X555914Y790544D01*
X555847Y790376D01*
X555797Y790243D01*
X555730Y790076D01*
X555680Y789942D01*
X555179Y788690D01*
X555121Y788548D01*
X555087Y788464D01*
X555037Y788347D01*
X554970Y788180D01*
X554920Y788063D01*
X554853Y787896D01*
X554803Y787779D01*
X554770Y787696D01*
X554670Y787462D01*
X554636Y787379D01*
X554436Y786911D01*
X554402Y786827D01*
X554302Y786594D01*
X554235Y786443D01*
X554135Y786209D01*
X554068Y786059D01*
X554018Y785942D01*
X553951Y785792D01*
X553901Y785675D01*
X553835Y785525D01*
X553751Y785341D01*
X553684Y785191D01*
X553601Y785007D01*
X553467Y784706D01*
X553267Y784272D01*
X553150Y784022D01*
X553050Y783805D01*
X552933Y783554D01*
X552565Y782786D01*
X552181Y782001D01*
X551513Y780681D01*
X551146Y779980D01*
X550795Y779329D01*
X550695Y779145D01*
X550277Y778393D01*
X550144Y778160D01*
X550060Y778026D01*
X549960Y777842D01*
X549826Y777608D01*
X549743Y777475D01*
X549726Y777441D01*
X549643Y777308D01*
X549559Y777158D01*
X549476Y777024D01*
X549459Y776991D01*
X549375Y776857D01*
X549359Y776824D01*
X549275Y776690D01*
X549258Y776656D01*
X549192Y776556D01*
X549175Y776523D01*
X549091Y776389D01*
X549075Y776356D01*
X549008Y776256D01*
X548991Y776222D01*
X548874Y776039D01*
X548858Y776005D01*
X548774Y775888D01*
X548707Y775771D01*
X548248Y775061D01*
X548181Y774961D01*
X548098Y774828D01*
X547964Y774627D01*
X547939Y774602D01*
X547922Y774569D01*
X547839Y774452D01*
X547822Y774418D01*
X547739Y774302D01*
X547722Y774268D01*
X547639Y774151D01*
X547622Y774118D01*
X547588Y774084D01*
X547572Y774051D01*
X547405Y773817D01*
X547388Y773784D01*
X546728Y772874D01*
X546687Y772815D01*
X546528Y772607D01*
X546469Y772531D01*
X546453Y772498D01*
X546419Y772465D01*
X546403Y772431D01*
X546369Y772398D01*
X546353Y772364D01*
X546319Y772331D01*
X546302Y772298D01*
X546252Y772247D01*
X546236Y772214D01*
X546202Y772181D01*
X546185Y772147D01*
X546152Y772114D01*
X546135Y772080D01*
X546085Y772030D01*
X546069Y771997D01*
X546035Y771964D01*
X546018Y771930D01*
X545968Y771880D01*
X545952Y771847D01*
X545901Y771796D01*
X545885Y771763D01*
X545835Y771713D01*
X545818Y771680D01*
X545785Y771646D01*
X545768Y771613D01*
X545718Y771563D01*
X545701Y771529D01*
X545651Y771479D01*
X545634Y771446D01*
X545568Y771379D01*
X545551Y771346D01*
X545501Y771295D01*
X545484Y771262D01*
X545417Y771195D01*
X545401Y771162D01*
X545334Y771095D01*
X545317Y771062D01*
X545250Y770995D01*
X545233Y770961D01*
X545167Y770895D01*
X545150Y770861D01*
X545066Y770778D01*
X545050Y770744D01*
X544966Y770661D01*
X544950Y770627D01*
X544883Y770561D01*
X544866Y770527D01*
X544766Y770427D01*
X544749Y770394D01*
X544632Y770277D01*
X544616Y770243D01*
X544499Y770126D01*
X544482Y770093D01*
X544348Y769959D01*
X544332Y769926D01*
X544148Y769742D01*
X544131Y769709D01*
X543897Y769475D01*
X543881Y769442D01*
X542870Y768431D01*
X542837Y768415D01*
X542636Y768214D01*
X542603Y768197D01*
X542453Y768047D01*
X542419Y768030D01*
X542286Y767897D01*
X542252Y767880D01*
X542152Y767780D01*
X542119Y767763D01*
X542035Y767680D01*
X542002Y767663D01*
X541902Y767563D01*
X541868Y767546D01*
X541801Y767479D01*
X541768Y767462D01*
X541701Y767396D01*
X541668Y767379D01*
X541618Y767329D01*
X541584Y767312D01*
X541517Y767245D01*
X541484Y767229D01*
X541434Y767179D01*
X541401Y767162D01*
X541351Y767112D01*
X541317Y767095D01*
X541284Y767062D01*
X541250Y767045D01*
X541200Y766995D01*
X541167Y766978D01*
X541133Y766945D01*
X541100Y766928D01*
X541050Y766878D01*
X541017Y766861D01*
X540983Y766828D01*
X540950Y766811D01*
X540916Y766778D01*
X540883Y766761D01*
X540849Y766728D01*
X540816Y766711D01*
X540783Y766678D01*
X540749Y766661D01*
X540515Y766494D01*
X540482Y766477D01*
X540449Y766444D01*
X540415Y766427D01*
X540131Y766227D01*
X540098Y766210D01*
X539981Y766126D01*
X539948Y766110D01*
X539447Y765792D01*
X539263Y765692D01*
X539129Y765609D01*
X538912Y765492D01*
X537994Y765041D01*
X537843Y764974D01*
X537593Y764874D01*
X537476Y764824D01*
X537392Y764790D01*
X537083Y764682D01*
X536841Y764607D01*
X536724Y764573D01*
X536557Y764523D01*
X536090Y764406D01*
X535948Y764381D01*
X535781Y764348D01*
X535547Y764314D01*
X535589Y764273D01*
X535622Y764256D01*
X535739Y764172D01*
X535772Y764156D01*
X535806Y764122D01*
X535839Y764106D01*
X535956Y764022D01*
X535989Y764005D01*
X536090Y763939D01*
X536123Y763922D01*
X536240Y763838D01*
X536273Y763822D01*
X536390Y763738D01*
X536507Y763671D01*
X536607Y763605D01*
X536641Y763588D01*
X536741Y763521D01*
X536774Y763504D01*
X536875Y763438D01*
X536908Y763421D01*
X537008Y763354D01*
X537042Y763337D01*
X537175Y763254D01*
X537209Y763237D01*
X537392Y763120D01*
X537543Y763037D01*
X537676Y762953D01*
X537827Y762870D01*
X538411Y762536D01*
X538595Y762436D01*
X538745Y762352D01*
X538929Y762252D01*
X539079Y762168D01*
X539263Y762068D01*
X539346Y762035D01*
X539580Y762135D01*
X539730Y762202D01*
X539981Y762319D01*
X540565Y762619D01*
X540749Y762719D01*
X541100Y762920D01*
X541234Y763003D01*
X541267Y763020D01*
X541401Y763104D01*
X541434Y763120D01*
X541534Y763187D01*
X541568Y763204D01*
X541668Y763271D01*
X541701Y763287D01*
X541818Y763371D01*
X541852Y763388D01*
X541968Y763471D01*
X542002Y763488D01*
X542102Y763555D01*
X542135Y763571D01*
X542169Y763605D01*
X542202Y763621D01*
X542319Y763705D01*
X542353Y763721D01*
X543029Y764214D01*
X543087Y764256D01*
X543296Y764415D01*
X543355Y764456D01*
X543447Y764531D01*
X543505Y764573D01*
X543597Y764648D01*
X543655Y764690D01*
X543689Y764724D01*
X543722Y764740D01*
X543772Y764790D01*
X543806Y764807D01*
X543856Y764857D01*
X543889Y764874D01*
X543939Y764924D01*
X543973Y764941D01*
X544023Y764991D01*
X544056Y765007D01*
X544123Y765074D01*
X544156Y765091D01*
X544223Y765158D01*
X544257Y765174D01*
X544323Y765241D01*
X544357Y765258D01*
X544423Y765325D01*
X544457Y765341D01*
X544540Y765425D01*
X544574Y765442D01*
X544657Y765525D01*
X544691Y765542D01*
X544791Y765642D01*
X544824Y765659D01*
X544925Y765759D01*
X544958Y765776D01*
X545092Y765909D01*
X545125Y765926D01*
X545242Y766043D01*
X545275Y766060D01*
X545442Y766227D01*
X545476Y766243D01*
X545676Y766444D01*
X545709Y766460D01*
X545993Y766744D01*
X546027Y766761D01*
X547238Y767972D01*
X547254Y768005D01*
X547572Y768323D01*
X547588Y768356D01*
X547789Y768557D01*
X547805Y768590D01*
X547989Y768774D01*
X548006Y768807D01*
X548156Y768957D01*
X548173Y768991D01*
X548307Y769124D01*
X548323Y769158D01*
X548457Y769291D01*
X548474Y769325D01*
X548590Y769442D01*
X548607Y769475D01*
X548707Y769575D01*
X548724Y769609D01*
X548824Y769709D01*
X548841Y769742D01*
X548941Y769843D01*
X548958Y769876D01*
X549041Y769959D01*
X549058Y769993D01*
X549142Y770076D01*
X549158Y770110D01*
X549242Y770193D01*
X549258Y770227D01*
X549325Y770293D01*
X549342Y770327D01*
X549426Y770410D01*
X549442Y770444D01*
X549509Y770510D01*
X549526Y770544D01*
X549593Y770611D01*
X549609Y770644D01*
X549676Y770711D01*
X549693Y770744D01*
X549759Y770811D01*
X549776Y770844D01*
X549843Y770911D01*
X549860Y770945D01*
X549926Y771012D01*
X549943Y771045D01*
X549993Y771095D01*
X550010Y771128D01*
X550060Y771179D01*
X550077Y771212D01*
X550127Y771262D01*
X550144Y771295D01*
X550210Y771362D01*
X550227Y771396D01*
X550277Y771446D01*
X550294Y771479D01*
X550344Y771529D01*
X550361Y771563D01*
X550411Y771613D01*
X550428Y771646D01*
X550478Y771696D01*
X550494Y771730D01*
X550544Y771780D01*
X550561Y771813D01*
X550594Y771847D01*
X550611Y771880D01*
X550661Y771930D01*
X550678Y771964D01*
X550728Y772014D01*
X550745Y772047D01*
X550778Y772080D01*
X550795Y772114D01*
X550845Y772164D01*
X550862Y772197D01*
X550912Y772247D01*
X550929Y772281D01*
X550962Y772314D01*
X550979Y772348D01*
X551012Y772381D01*
X551029Y772414D01*
X551079Y772465D01*
X551096Y772498D01*
X551129Y772531D01*
X551146Y772565D01*
X551179Y772598D01*
X551196Y772632D01*
X551246Y772682D01*
X551263Y772715D01*
X551296Y772748D01*
X551313Y772782D01*
X551346Y772815D01*
X551363Y772849D01*
X551396Y772882D01*
X551413Y772915D01*
X551463Y772965D01*
X551480Y772999D01*
X551513Y773032D01*
X551530Y773066D01*
X551688Y773275D01*
X551730Y773333D01*
X551889Y773542D01*
X551947Y773617D01*
X551964Y773650D01*
X551997Y773684D01*
X552014Y773717D01*
X552256Y774043D01*
X552323Y774143D01*
X552348Y774168D01*
X552365Y774201D01*
X552398Y774235D01*
X552415Y774268D01*
X552999Y775087D01*
X553016Y775120D01*
X553050Y775153D01*
X553066Y775187D01*
X553233Y775421D01*
X553250Y775454D01*
X553501Y775805D01*
X553517Y775838D01*
X553601Y775955D01*
X553617Y775988D01*
X553701Y776105D01*
X553718Y776139D01*
X553751Y776172D01*
X553768Y776206D01*
X553851Y776322D01*
X553868Y776356D01*
X553951Y776473D01*
X553968Y776506D01*
X554135Y776740D01*
X554152Y776773D01*
X554235Y776890D01*
X554252Y776924D01*
X554419Y777158D01*
X554436Y777191D01*
X554519Y777308D01*
X554536Y777341D01*
X554703Y777575D01*
X554720Y777608D01*
X554803Y777725D01*
X554820Y777759D01*
X554853Y777792D01*
X554870Y777826D01*
X554953Y777943D01*
X554970Y777976D01*
X555054Y778093D01*
X555070Y778126D01*
X555104Y778160D01*
X555121Y778193D01*
X555204Y778310D01*
X555221Y778343D01*
X555304Y778460D01*
X555321Y778494D01*
X555663Y779020D01*
X555747Y779153D01*
X555814Y779253D01*
X555897Y779387D01*
X555964Y779487D01*
X556048Y779621D01*
X556114Y779721D01*
X556231Y779905D01*
X556298Y780005D01*
X556381Y780139D01*
X556448Y780239D01*
X556615Y780506D01*
X556716Y780673D01*
X556933Y781024D01*
X557033Y781191D01*
X557250Y781542D01*
X557350Y781709D01*
X557567Y782059D01*
X557743Y782352D01*
X557759Y782385D01*
X557843Y782519D01*
X557859Y782552D01*
X557943Y782686D01*
X558027Y782836D01*
X558110Y782970D01*
X558127Y783003D01*
X558194Y783120D01*
X558277Y783253D01*
X558294Y783287D01*
X558427Y783521D01*
X558511Y783654D01*
X558611Y783838D01*
X558695Y783972D01*
X558778Y784122D01*
X558912Y784356D01*
X558995Y784506D01*
X559129Y784740D01*
X559212Y784890D01*
X559346Y785124D01*
X559930Y786176D01*
X560047Y786393D01*
X560448Y787128D01*
X560715Y787629D01*
X560832Y787846D01*
X561166Y788481D01*
X561350Y788832D01*
X561601Y789316D01*
X561884Y789867D01*
X563271Y792656D01*
X563688Y793525D01*
X563839Y793842D01*
X564106Y794410D01*
X564339Y794911D01*
X564440Y795128D01*
X564941Y796230D01*
X565074Y796531D01*
X565158Y796714D01*
X565291Y797015D01*
X565342Y797132D01*
X565408Y797282D01*
X565458Y797399D01*
X565525Y797550D01*
X565876Y798368D01*
X565909Y798451D01*
X565985Y798627D01*
X565993Y798568D01*
X565960Y798485D01*
X565943Y798418D01*
X565859Y798151D01*
X565467Y796990D01*
X565350Y796656D01*
X565266Y796422D01*
X565066Y795871D01*
X564815Y795203D01*
X564782Y795119D01*
X564732Y794986D01*
X564665Y794819D01*
X564615Y794685D01*
X564515Y794435D01*
X564465Y794301D01*
X564231Y793717D01*
X564173Y793575D01*
X564106Y793408D01*
X564056Y793291D01*
X563989Y793124D01*
X563889Y792890D01*
X563855Y792806D01*
X563805Y792690D01*
X563772Y792606D01*
X563521Y792021D01*
X563454Y791871D01*
X563354Y791637D01*
X563020Y790886D01*
X562686Y790151D01*
X562586Y789934D01*
X562352Y789433D01*
X562219Y789149D01*
X562052Y788798D01*
X561818Y788314D01*
X560582Y785859D01*
X560231Y785191D01*
X560098Y784940D01*
X559981Y784723D01*
X559880Y784539D01*
X559646Y784105D01*
X559546Y783922D01*
X559045Y783020D01*
X558912Y782786D01*
X558828Y782635D01*
X558361Y781817D01*
X558277Y781684D01*
X558260Y781650D01*
X558194Y781533D01*
X558110Y781400D01*
X558093Y781366D01*
X558027Y781249D01*
X557943Y781116D01*
X557926Y781082D01*
X557859Y780965D01*
X557776Y780832D01*
X557759Y780798D01*
X557676Y780665D01*
X557659Y780631D01*
X557576Y780498D01*
X557559Y780464D01*
X557475Y780331D01*
X557459Y780297D01*
X557375Y780164D01*
X557359Y780130D01*
X557242Y779947D01*
X557225Y779913D01*
X557141Y779780D01*
X557125Y779746D01*
X557041Y779613D01*
X557024Y779579D01*
X556908Y779396D01*
X556891Y779362D01*
X556824Y779262D01*
X556807Y779229D01*
X556740Y779128D01*
X556724Y779095D01*
X556657Y778995D01*
X556640Y778961D01*
X556573Y778861D01*
X556557Y778828D01*
X556490Y778727D01*
X556473Y778694D01*
X556407Y778594D01*
X556390Y778560D01*
X556323Y778460D01*
X556306Y778427D01*
X556240Y778327D01*
X556223Y778293D01*
X556139Y778176D01*
X556123Y778143D01*
X555663Y777433D01*
X555580Y777299D01*
X555513Y777199D01*
X555429Y777066D01*
X554895Y776264D01*
X554778Y776080D01*
X554645Y775880D01*
X554619Y775855D01*
X554603Y775821D01*
X554519Y775704D01*
X554503Y775671D01*
X554336Y775437D01*
X554319Y775404D01*
X554235Y775287D01*
X554219Y775254D01*
X554052Y775020D01*
X554035Y774986D01*
X553951Y774870D01*
X553935Y774836D01*
X553901Y774803D01*
X553885Y774769D01*
X553801Y774652D01*
X553784Y774619D01*
X553751Y774585D01*
X553734Y774552D01*
X553567Y774318D01*
X553551Y774285D01*
X553300Y773934D01*
X553283Y773901D01*
X553250Y773867D01*
X553233Y773834D01*
X553150Y773717D01*
X553133Y773684D01*
X553100Y773650D01*
X553083Y773617D01*
X551839Y771888D01*
X551772Y771788D01*
X551747Y771763D01*
X551730Y771730D01*
X551572Y771521D01*
X551530Y771462D01*
X551288Y771137D01*
X551221Y771037D01*
X551196Y771012D01*
X551179Y770978D01*
X551146Y770945D01*
X551129Y770911D01*
X551096Y770878D01*
X551079Y770844D01*
X551045Y770811D01*
X551029Y770778D01*
X550995Y770744D01*
X550979Y770711D01*
X550904Y770619D01*
X550862Y770561D01*
X550703Y770352D01*
X550645Y770277D01*
X550628Y770243D01*
X550594Y770210D01*
X550578Y770176D01*
X550544Y770143D01*
X550528Y770110D01*
X550494Y770076D01*
X550478Y770043D01*
X550444Y770010D01*
X550428Y769976D01*
X550394Y769943D01*
X550377Y769909D01*
X550344Y769876D01*
X550327Y769843D01*
X550294Y769809D01*
X550277Y769776D01*
X550244Y769742D01*
X550227Y769709D01*
X550177Y769659D01*
X550160Y769625D01*
X550127Y769592D01*
X550110Y769558D01*
X550077Y769525D01*
X550060Y769492D01*
X550010Y769442D01*
X549993Y769408D01*
X549960Y769375D01*
X549943Y769341D01*
X549910Y769308D01*
X549893Y769275D01*
X549843Y769224D01*
X549826Y769191D01*
X549793Y769158D01*
X549776Y769124D01*
X549743Y769091D01*
X549726Y769057D01*
X549676Y769007D01*
X549659Y768974D01*
X549626Y768941D01*
X549609Y768907D01*
X549576Y768874D01*
X549559Y768840D01*
X549509Y768790D01*
X549492Y768757D01*
X549459Y768724D01*
X549442Y768690D01*
X549392Y768640D01*
X549375Y768607D01*
X549325Y768557D01*
X549309Y768523D01*
X549258Y768473D01*
X549242Y768440D01*
X549208Y768406D01*
X549192Y768373D01*
X549142Y768323D01*
X549125Y768289D01*
X549075Y768239D01*
X549058Y768206D01*
X549008Y768156D01*
X548991Y768122D01*
X548958Y768089D01*
X548941Y768055D01*
X548891Y768005D01*
X548874Y767972D01*
X548824Y767922D01*
X548807Y767888D01*
X548757Y767838D01*
X548741Y767805D01*
X548691Y767755D01*
X548674Y767721D01*
X548624Y767671D01*
X548607Y767638D01*
X548557Y767588D01*
X548540Y767554D01*
X548490Y767504D01*
X548474Y767471D01*
X548407Y767404D01*
X548390Y767371D01*
X548340Y767321D01*
X548323Y767287D01*
X548273Y767237D01*
X548256Y767204D01*
X548206Y767154D01*
X548190Y767120D01*
X548139Y767070D01*
X548123Y767037D01*
X548056Y766970D01*
X548039Y766936D01*
X547989Y766886D01*
X547972Y766853D01*
X547906Y766786D01*
X547889Y766753D01*
X547822Y766686D01*
X547805Y766653D01*
X547739Y766586D01*
X547722Y766552D01*
X547655Y766486D01*
X547639Y766452D01*
X547572Y766385D01*
X547555Y766352D01*
X547505Y766302D01*
X547488Y766268D01*
X547421Y766202D01*
X547405Y766168D01*
X547338Y766101D01*
X547321Y766068D01*
X547238Y765984D01*
X547221Y765951D01*
X547154Y765884D01*
X547137Y765851D01*
X547054Y765767D01*
X547037Y765734D01*
X546954Y765650D01*
X546937Y765617D01*
X546853Y765534D01*
X546837Y765500D01*
X546770Y765433D01*
X546753Y765400D01*
X546670Y765316D01*
X546653Y765283D01*
X546570Y765200D01*
X546553Y765166D01*
X546453Y765066D01*
X546436Y765033D01*
X546336Y764932D01*
X546319Y764899D01*
X546219Y764799D01*
X546202Y764765D01*
X546102Y764665D01*
X546085Y764632D01*
X545968Y764515D01*
X545952Y764481D01*
X545835Y764364D01*
X545818Y764331D01*
X545701Y764214D01*
X545684Y764181D01*
X545551Y764047D01*
X545534Y764014D01*
X545384Y763863D01*
X545367Y763830D01*
X545200Y763663D01*
X545183Y763630D01*
X545000Y763446D01*
X544983Y763412D01*
X544783Y763212D01*
X544766Y763179D01*
X544499Y762912D01*
X544482Y762878D01*
X544131Y762527D01*
X544114Y762494D01*
X542854Y761233D01*
X542820Y761216D01*
X542469Y760866D01*
X542436Y760849D01*
X542211Y760623D01*
X542294Y760590D01*
X542787Y760381D01*
X543138Y760231D01*
X543555Y760064D01*
X543664Y760022D01*
X544081Y759855D01*
X544215Y759805D01*
X544398Y759738D01*
X544532Y759688D01*
X544716Y759621D01*
X544849Y759571D01*
X545033Y759504D01*
X545918Y759204D01*
X546110Y759145D01*
X546478Y759028D01*
X546912Y758895D01*
X547079Y758845D01*
X547313Y758778D01*
X547480Y758728D01*
X547597Y758695D01*
X547663Y758678D01*
X547897Y758611D01*
X547964Y758594D01*
X548081Y758561D01*
X548281Y758511D01*
X548398Y758477D01*
X549200Y758277D01*
X549309Y758252D01*
X549442Y758219D01*
X549526Y758202D01*
X549659Y758168D01*
X549743Y758152D01*
X549810Y758135D01*
X549893Y758118D01*
X549960Y758102D01*
X550127Y758068D01*
X550194Y758052D01*
X551112Y757868D01*
X551213Y757851D01*
X551296Y757834D01*
X551496Y757801D01*
X551580Y757784D01*
X552281Y757667D01*
X552499Y757634D01*
X553192Y757542D01*
X553258Y757525D01*
X553484Y757500D01*
X553885Y757450D01*
X554185Y757417D01*
X554853Y757350D01*
X555054Y757333D01*
X555237Y757317D01*
X555471Y757300D01*
X555688Y757283D01*
X556181Y757258D01*
X556298Y757242D01*
X556941Y757216D01*
X557509Y757200D01*
X559338Y757191D01*
X559388Y757208D01*
X560289Y757225D01*
X560340Y757242D01*
X560899Y757266D01*
X561433Y757300D01*
X561617Y757317D01*
X562018Y757350D01*
X562202Y757367D01*
X562402Y757383D01*
X563304Y757484D01*
X563571Y757517D01*
X563914Y757559D01*
X563980Y757576D01*
X564173Y757600D01*
X564306Y757617D01*
X564523Y757651D01*
X564824Y757701D01*
X565041Y757734D01*
X565442Y757801D01*
X565609Y757834D01*
X565709Y757851D01*
X565876Y757885D01*
X565976Y757901D01*
X566143Y757935D01*
X566244Y757951D01*
X566494Y758001D01*
X566561Y758018D01*
X566728Y758052D01*
X566795Y758068D01*
X567045Y758118D01*
X567112Y758135D01*
X567279Y758168D01*
X567412Y758202D01*
X567496Y758219D01*
X567763Y758285D01*
X567847Y758302D01*
X568114Y758369D01*
X568198Y758385D01*
X568331Y758419D01*
X568423Y758444D01*
X568623Y758494D01*
X568740Y758528D01*
X568874Y758561D01*
X568991Y758594D01*
X569191Y758644D01*
X569308Y758678D01*
X569475Y758728D01*
X569709Y758795D01*
X569876Y758845D01*
X570110Y758912D01*
X570327Y758978D01*
X571062Y759212D01*
X571270Y759287D01*
X571805Y759471D01*
X572139Y759588D01*
X572540Y759738D01*
X572724Y759805D01*
X572991Y759905D01*
X573993Y760306D01*
X574878Y760690D01*
X575337Y760899D01*
X575554Y760999D01*
X575872Y761150D01*
X576523Y761467D01*
X577041Y761734D01*
X577458Y761951D01*
X577642Y762051D01*
X577792Y762135D01*
X577976Y762235D01*
X578051Y762277D01*
X578060Y762285D01*
X578310Y762419D01*
X578427Y762486D01*
X578560Y762569D01*
X578711Y762653D01*
X578828Y762719D01*
X578961Y762803D01*
X579145Y762903D01*
X579329Y763020D01*
X579362Y763037D01*
X579546Y763154D01*
X579579Y763170D01*
X579763Y763287D01*
X579796Y763304D01*
X579980Y763421D01*
X580014Y763438D01*
X580130Y763521D01*
X580247Y763588D01*
X580364Y763671D01*
X580398Y763688D01*
X580498Y763755D01*
X580531Y763772D01*
X580648Y763855D01*
X580681Y763872D01*
X580798Y763955D01*
X580832Y763972D01*
X580949Y764055D01*
X580982Y764072D01*
X581099Y764156D01*
X581133Y764172D01*
X581166Y764206D01*
X581199Y764222D01*
X581316Y764306D01*
X581350Y764323D01*
X581583Y764490D01*
X581617Y764506D01*
X582410Y765083D01*
X582510Y765149D01*
X582535Y765174D01*
X582569Y765191D01*
X582619Y765241D01*
X582652Y765258D01*
X582686Y765291D01*
X582719Y765308D01*
X582752Y765341D01*
X582786Y765358D01*
X582819Y765392D01*
X582853Y765408D01*
X582886Y765442D01*
X582920Y765458D01*
X582953Y765492D01*
X582986Y765508D01*
X583020Y765542D01*
X583053Y765559D01*
X583103Y765609D01*
X583137Y765625D01*
X583170Y765659D01*
X583203Y765676D01*
X583237Y765709D01*
X583270Y765726D01*
X583320Y765776D01*
X583354Y765792D01*
X583404Y765843D01*
X583437Y765859D01*
X583487Y765909D01*
X583521Y765926D01*
X583571Y765976D01*
X583604Y765993D01*
X583654Y766043D01*
X583688Y766060D01*
X583738Y766110D01*
X583771Y766126D01*
X583821Y766177D01*
X583855Y766193D01*
X583905Y766243D01*
X583938Y766260D01*
X583988Y766310D01*
X584022Y766327D01*
X584072Y766377D01*
X584105Y766394D01*
X584189Y766477D01*
X584222Y766494D01*
X584289Y766561D01*
X584322Y766577D01*
X584389Y766644D01*
X584423Y766661D01*
X584489Y766728D01*
X584523Y766744D01*
X584606Y766828D01*
X584640Y766845D01*
X584706Y766911D01*
X584740Y766928D01*
X584823Y767012D01*
X584857Y767028D01*
X584957Y767129D01*
X584990Y767145D01*
X585107Y767262D01*
X585141Y767279D01*
X585258Y767396D01*
X585291Y767412D01*
X585391Y767513D01*
X585425Y767529D01*
X585542Y767646D01*
X585575Y767663D01*
X585775Y767863D01*
X585809Y767880D01*
X586009Y768081D01*
X586043Y768097D01*
X586243Y768298D01*
X586276Y768314D01*
X586861Y768899D01*
X586894Y768915D01*
X587120Y769141D01*
X587136Y769174D01*
X587721Y769759D01*
X587738Y769792D01*
X587938Y769993D01*
X587955Y770026D01*
X588155Y770227D01*
X588172Y770260D01*
X588372Y770460D01*
X588389Y770494D01*
X588506Y770611D01*
X588523Y770644D01*
X588623Y770744D01*
X588640Y770778D01*
X588756Y770895D01*
X588773Y770928D01*
X588873Y771028D01*
X588890Y771062D01*
X589007Y771179D01*
X589024Y771212D01*
X589107Y771295D01*
X589124Y771329D01*
X589191Y771396D01*
X589207Y771429D01*
X589274Y771496D01*
X589291Y771529D01*
X589358Y771596D01*
X589375Y771629D01*
X589458Y771713D01*
X589475Y771746D01*
X589542Y771813D01*
X589558Y771847D01*
X589625Y771913D01*
X589642Y771947D01*
X589709Y772014D01*
X589725Y772047D01*
X589775Y772097D01*
X589792Y772131D01*
X589842Y772181D01*
X589859Y772214D01*
X589909Y772264D01*
X589926Y772298D01*
X589976Y772348D01*
X589992Y772381D01*
X590042Y772431D01*
X590059Y772465D01*
X590109Y772515D01*
X590126Y772548D01*
X590176Y772598D01*
X590193Y772632D01*
X590243Y772682D01*
X590260Y772715D01*
X590310Y772765D01*
X590326Y772798D01*
X590360Y772832D01*
X590377Y772865D01*
X590410Y772899D01*
X590427Y772932D01*
X590460Y772965D01*
X590477Y772999D01*
X590510Y773032D01*
X590527Y773066D01*
X590577Y773116D01*
X590594Y773149D01*
X590627Y773183D01*
X590644Y773216D01*
X590677Y773250D01*
X590694Y773283D01*
X590727Y773316D01*
X590744Y773350D01*
X590777Y773383D01*
X590794Y773417D01*
X590827Y773450D01*
X590844Y773483D01*
X590894Y773533D01*
X590911Y773567D01*
X591320Y774126D01*
X591387Y774227D01*
X591412Y774251D01*
X591429Y774285D01*
X591596Y774519D01*
X591612Y774552D01*
X591779Y774786D01*
X591796Y774819D01*
X591963Y775053D01*
X591980Y775087D01*
X592063Y775203D01*
X592080Y775237D01*
X592164Y775354D01*
X592180Y775387D01*
X592406Y775730D01*
X592489Y775863D01*
X592556Y775963D01*
X592723Y776231D01*
X592823Y776398D01*
X592907Y776531D01*
X593182Y776991D01*
X593199Y777024D01*
X593283Y777158D01*
X593366Y777308D01*
X593500Y777542D01*
X593583Y777675D01*
X593717Y777926D01*
X593800Y778076D01*
X593900Y778260D01*
X593984Y778410D01*
X594118Y778661D01*
X594351Y779111D01*
X594986Y780397D01*
X595086Y780615D01*
X595170Y780798D01*
X595270Y781015D01*
X595354Y781199D01*
X595754Y782134D01*
X596122Y783053D01*
X596163Y783162D01*
X596264Y783429D01*
X596330Y783613D01*
X596431Y783880D01*
X596531Y784164D01*
X596698Y784648D01*
X596840Y785090D01*
X597074Y785825D01*
X597107Y785942D01*
X597157Y786109D01*
X597257Y786460D01*
X597308Y786627D01*
X597374Y786861D01*
X597424Y787061D01*
X597458Y787178D01*
X597491Y787312D01*
X597525Y787429D01*
X597575Y787629D01*
X597608Y787746D01*
X597625Y787813D01*
X597650Y787921D01*
X597700Y788122D01*
X597717Y788205D01*
X597784Y788473D01*
X597800Y788556D01*
X597834Y788690D01*
X597850Y788773D01*
X597867Y788840D01*
X597900Y789007D01*
X597917Y789074D01*
X597967Y789324D01*
X597984Y789391D01*
X598017Y789558D01*
X598034Y789625D01*
X598051Y789708D01*
X598067Y789809D01*
X598101Y789976D01*
X598117Y790076D01*
X598151Y790243D01*
X598168Y790343D01*
X598201Y790510D01*
X598318Y791211D01*
X598351Y791429D01*
X598385Y791629D01*
X598443Y792105D01*
X598460Y792172D01*
X598485Y792364D01*
X598502Y792497D01*
X598527Y792723D01*
X598543Y792840D01*
X598627Y793658D01*
X598644Y793725D01*
X598669Y794067D01*
X598685Y794268D01*
X598702Y794452D01*
X598719Y794685D01*
X598769Y795487D01*
X598786Y795888D01*
X598802Y796322D01*
X598819Y797157D01*
X598827Y798000D01*
X598811Y798051D01*
X598794Y799270D01*
X598777Y799320D01*
X598760Y799938D01*
X598744Y799988D01*
X598719Y800481D01*
X598702Y800698D01*
X598669Y801098D01*
X598652Y801282D01*
X598635Y801483D01*
X598619Y801650D01*
X598493Y802777D01*
X598477Y802844D01*
X598451Y803036D01*
X598427Y803261D01*
X598410Y803328D01*
X598385Y803520D01*
X598351Y803737D01*
X598301Y804038D01*
X598268Y804255D01*
X598218Y804556D01*
X598201Y804639D01*
X598184Y804739D01*
X598151Y804906D01*
X598134Y805007D01*
X598101Y805174D01*
X598084Y805274D01*
X597984Y805775D01*
X597967Y805842D01*
X597934Y806009D01*
X597917Y806076D01*
X597884Y806243D01*
X597867Y806309D01*
X597834Y806476D01*
X597784Y806677D01*
X597767Y806760D01*
X597700Y807027D01*
X597683Y807111D01*
X597533Y807712D01*
X597508Y807804D01*
X597458Y808004D01*
X597424Y808121D01*
X597391Y808255D01*
X597358Y808372D01*
X597341Y808439D01*
X597291Y808606D01*
X597224Y808839D01*
X597174Y809007D01*
X597107Y809240D01*
X597040Y809457D01*
X596823Y810142D01*
X596715Y810451D01*
X596548Y810936D01*
X596431Y811270D01*
X596364Y811453D01*
X596163Y811988D01*
X596097Y812171D01*
X595729Y813090D01*
X595345Y813975D01*
X595312Y814059D01*
X594969Y814802D01*
X594702Y815353D01*
X594151Y816439D01*
X594001Y816722D01*
X593917Y816873D01*
X593817Y817056D01*
X593733Y817207D01*
X593633Y817390D01*
X593500Y817624D01*
X593416Y817758D01*
X593333Y817908D01*
X593199Y818142D01*
X593116Y818276D01*
X593049Y818392D01*
X592965Y818526D01*
X592948Y818559D01*
X592882Y818660D01*
X592865Y818693D01*
X592748Y818877D01*
X592731Y818910D01*
X592615Y819094D01*
X592598Y819127D01*
X592531Y819228D01*
X592514Y819261D01*
X592431Y819378D01*
X592414Y819411D01*
X592331Y819528D01*
X592264Y819645D01*
X592180Y819762D01*
X592164Y819795D01*
X592097Y819896D01*
X592080Y819929D01*
X591996Y820046D01*
X591980Y820079D01*
X591813Y820313D01*
X591796Y820347D01*
X591629Y820580D01*
X591612Y820614D01*
X591445Y820848D01*
X591429Y820881D01*
X591395Y820914D01*
X591379Y820948D01*
X590969Y821507D01*
X590903Y821608D01*
X590878Y821633D01*
X590861Y821666D01*
X590827Y821699D01*
X590811Y821733D01*
X590777Y821766D01*
X590761Y821799D01*
X590711Y821850D01*
X590694Y821883D01*
X590661Y821916D01*
X590644Y821950D01*
X590610Y821983D01*
X590594Y822017D01*
X590560Y822050D01*
X590544Y822083D01*
X590510Y822117D01*
X590493Y822150D01*
X590460Y822184D01*
X590443Y822217D01*
X590410Y822251D01*
X590393Y822284D01*
X590343Y822334D01*
X590326Y822367D01*
X590293Y822401D01*
X590276Y822434D01*
X590226Y822484D01*
X590210Y822518D01*
X590159Y822568D01*
X590143Y822601D01*
X590093Y822651D01*
X590076Y822685D01*
X590026Y822735D01*
X590009Y822768D01*
X589959Y822818D01*
X589942Y822852D01*
X589892Y822902D01*
X589875Y822935D01*
X589825Y822985D01*
X589809Y823019D01*
X589759Y823069D01*
X589742Y823102D01*
X589692Y823152D01*
X589675Y823186D01*
X589608Y823252D01*
X589592Y823286D01*
X589525Y823353D01*
X589508Y823386D01*
X589441Y823453D01*
X589425Y823486D01*
X589358Y823553D01*
X589341Y823587D01*
X589258Y823670D01*
X589241Y823704D01*
X589174Y823770D01*
X589157Y823804D01*
X589090Y823870D01*
X589074Y823904D01*
X588990Y823987D01*
X588974Y824021D01*
X588857Y824138D01*
X588840Y824171D01*
X588723Y824288D01*
X588706Y824321D01*
X588606Y824422D01*
X588590Y824455D01*
X588473Y824572D01*
X588456Y824605D01*
X588339Y824722D01*
X588322Y824756D01*
X588122Y824956D01*
X588105Y824989D01*
X587905Y825190D01*
X587888Y825223D01*
X587654Y825457D01*
X587638Y825490D01*
X586326Y826802D01*
X586293Y826818D01*
X586093Y827019D01*
X586059Y827035D01*
X585842Y827252D01*
X585809Y827269D01*
X585625Y827453D01*
X585592Y827469D01*
X585475Y827587D01*
X585441Y827603D01*
X585325Y827720D01*
X585291Y827737D01*
X585174Y827854D01*
X585141Y827870D01*
X585024Y827987D01*
X584990Y828004D01*
X584907Y828087D01*
X584874Y828104D01*
X584790Y828188D01*
X584757Y828204D01*
X584690Y828271D01*
X584656Y828288D01*
X584573Y828371D01*
X584539Y828388D01*
X584456Y828472D01*
X584423Y828488D01*
X584356Y828555D01*
X584322Y828572D01*
X584256Y828639D01*
X584222Y828655D01*
X584172Y828705D01*
X584139Y828722D01*
X584072Y828789D01*
X584039Y828806D01*
X583988Y828856D01*
X583955Y828872D01*
X583905Y828923D01*
X583871Y828939D01*
X583805Y829006D01*
X583771Y829023D01*
X583721Y829073D01*
X583688Y829090D01*
X583621Y829156D01*
X583587Y829173D01*
X583554Y829206D01*
X583521Y829223D01*
X583471Y829273D01*
X583437Y829290D01*
X583404Y829323D01*
X583370Y829340D01*
X583337Y829373D01*
X583304Y829390D01*
X583254Y829440D01*
X583220Y829457D01*
X583187Y829490D01*
X583153Y829507D01*
X583103Y829557D01*
X583070Y829574D01*
X583036Y829607D01*
X583003Y829624D01*
X582953Y829674D01*
X582920Y829691D01*
X582886Y829724D01*
X582853Y829741D01*
X582819Y829774D01*
X582786Y829791D01*
X582752Y829824D01*
X582719Y829841D01*
X582686Y829874D01*
X582652Y829891D01*
X582444Y830050D01*
X581450Y830760D01*
D02*
G37*
%LPD*%
G36*
X571137Y811378D02*
X571120Y811328D01*
X571104Y810844D01*
X571087Y810794D01*
X571062Y810468D01*
X571012Y810017D01*
X570995Y809883D01*
X570970Y809658D01*
X570953Y809591D01*
X570895Y809199D01*
X570845Y808898D01*
X570828Y808814D01*
X570811Y808714D01*
X570794Y808631D01*
X570778Y808531D01*
X570711Y808196D01*
X570694Y808130D01*
X570661Y807963D01*
X570644Y807896D01*
X570628Y807812D01*
X570611Y807746D01*
X570594Y807662D01*
X570544Y807462D01*
X570527Y807378D01*
X570461Y807111D01*
X570435Y807019D01*
X570402Y806886D01*
X570369Y806768D01*
X570335Y806635D01*
X570302Y806518D01*
X570252Y806351D01*
X570218Y806234D01*
X570168Y806067D01*
X570101Y805850D01*
X569859Y805140D01*
X569759Y804856D01*
X569709Y804723D01*
X569642Y804539D01*
X569575Y804372D01*
X569525Y804238D01*
X569425Y803988D01*
X569367Y803846D01*
X569333Y803762D01*
X569283Y803645D01*
X569216Y803495D01*
X569166Y803378D01*
X569133Y803295D01*
X569208Y803203D01*
X569233Y803178D01*
X569250Y803144D01*
X569333Y803027D01*
X569350Y802994D01*
X569467Y802744D01*
X569534Y802526D01*
X569567Y802326D01*
X569584Y802159D01*
X569567Y801608D01*
X569550Y801558D01*
X569525Y801399D01*
X569492Y801232D01*
X569442Y801032D01*
X569383Y800840D01*
X569308Y800631D01*
X569208Y800364D01*
X569174Y800280D01*
X569133Y800188D01*
X569066Y800038D01*
X568782Y799487D01*
X568715Y799370D01*
X568632Y799236D01*
X568615Y799203D01*
X568548Y799119D01*
X568531Y799286D01*
X568507Y799512D01*
X568473Y799729D01*
X568456Y799812D01*
X568423Y799946D01*
X568356Y800130D01*
X568323Y800213D01*
X568223Y800380D01*
X568181Y800439D01*
X568022Y800598D01*
X567989Y800614D01*
X567888Y800681D01*
X567621Y800815D01*
X567555Y800748D01*
X567521Y800731D01*
X567287Y800497D01*
X567254Y800481D01*
X567120Y800347D01*
X567070Y800364D01*
X566970Y800431D01*
X566853Y800481D01*
X566786Y800497D01*
X566477Y799904D01*
X566419Y799829D01*
X566410Y799904D01*
X566427Y799955D01*
X566452Y800063D01*
X566486Y800197D01*
X566511Y800288D01*
X566603Y800581D01*
X566385Y800648D01*
X566319Y800664D01*
X566260Y800673D01*
X566244Y800739D01*
X566218Y801149D01*
X566202Y801366D01*
X566152Y801382D01*
X566035Y801416D01*
X565968Y801433D01*
X565851Y801466D01*
X565684Y801483D01*
X565450Y801466D01*
X565400Y801449D01*
X565241Y801391D01*
X564982Y801249D01*
X564866Y801165D01*
X564832Y801149D01*
X564799Y801115D01*
X564765Y801098D01*
X564732Y801065D01*
X564699Y801048D01*
X564632Y800982D01*
X564598Y800965D01*
X564482Y800848D01*
X564448Y800831D01*
X564365Y800748D01*
X564356Y800790D01*
X564373Y800840D01*
X564431Y801115D01*
X564448Y801199D01*
X564482Y801332D01*
X564506Y801424D01*
X564523Y801491D01*
X564557Y801608D01*
X564732Y802117D01*
X564866Y802451D01*
X565058Y802844D01*
X565141Y802994D01*
X565225Y803128D01*
X565241Y803161D01*
X565484Y803487D01*
X565542Y803545D01*
X565559Y803579D01*
X565734Y803754D01*
X565768Y803771D01*
X565851Y803854D01*
X565884Y803871D01*
X566001Y803954D01*
X566035Y803971D01*
X566168Y804055D01*
X566235Y804071D01*
X566385Y804138D01*
X566586Y804188D01*
X566703Y804205D01*
X566770Y804222D01*
X566795Y804247D01*
X566820Y804339D01*
X566870Y804472D01*
X566970Y804756D01*
X567120Y805157D01*
X567321Y805658D01*
X567379Y805800D01*
X567529Y806151D01*
X567596Y806301D01*
X567680Y806485D01*
X567780Y806702D01*
X568431Y807988D01*
X568598Y808288D01*
X568799Y808639D01*
X568882Y808773D01*
X568899Y808806D01*
X568982Y808940D01*
X568999Y808973D01*
X569116Y809157D01*
X569133Y809190D01*
X569199Y809290D01*
X569216Y809324D01*
X569300Y809441D01*
X569316Y809491D01*
X569325Y809499D01*
X569350Y809524D01*
X569367Y809558D01*
X569450Y809675D01*
X569467Y809708D01*
X569550Y809825D01*
X569567Y809858D01*
X569650Y809975D01*
X569667Y810009D01*
X569834Y810242D01*
X569851Y810276D01*
X569884Y810309D01*
X569901Y810343D01*
X570143Y810668D01*
X570185Y810727D01*
X570344Y810936D01*
X570369Y810960D01*
X570385Y810994D01*
X570419Y811027D01*
X570435Y811061D01*
X570485Y811111D01*
X570502Y811144D01*
X570536Y811178D01*
X570552Y811211D01*
X570619Y811278D01*
X570636Y811311D01*
X570686Y811361D01*
X570703Y811395D01*
X570769Y811461D01*
X570786Y811495D01*
X570870Y811579D01*
X570886Y811612D01*
X570970Y811695D01*
X570987Y811729D01*
X571129Y811871D01*
X571137Y811378D01*
D02*
G37*
G36*
X566010Y798635D02*
X566001Y798627D01*
X565993Y798652D01*
X566001Y798660D01*
X566010Y798635D01*
D02*
G37*
D10*
X830983Y673443D02*
G03*
X830983Y675443I0J1000D01*
G01*
D02*
G03*
X830983Y673443I0J-1000D01*
G01*
X810111Y637447D02*
G03*
X810111Y635447I0J-1000D01*
G01*
D02*
G03*
X810111Y637447I0J1000D01*
G01*
X831110Y997646D02*
G03*
X831110Y995646I0J-1000D01*
G01*
D02*
G03*
X831110Y997646I0J1000D01*
G01*
X810238Y957900D02*
G03*
X810238Y959900I0J1000D01*
G01*
D02*
G03*
X810238Y957900I0J-1000D01*
G01*
X848793Y846972D02*
X868915D01*
X848793Y863972D02*
X868915D01*
X879923Y882120D02*
Y911120D01*
Y882120D02*
X882837D01*
Y911120D01*
X879923D02*
X882837D01*
X804244Y831992D02*
X814244D01*
X804244Y817882D02*
X814244D01*
X778540Y845814D02*
X814040D01*
X778540Y876814D02*
X814040D01*
X734897Y816905D02*
X752019D01*
X734897Y832063D02*
X752019D01*
X893806Y1032719D02*
Y1041191D01*
X912388Y1032719D02*
Y1041191D01*
X831441Y919362D02*
X851563D01*
X831441Y936362D02*
X851563D01*
X825914Y742588D02*
X845914D01*
X825914Y792588D02*
X845914D01*
Y742588D02*
Y792588D01*
X825914Y742588D02*
Y792588D01*
X735720Y865731D02*
Y885853D01*
X752720Y865731D02*
Y885853D01*
X737498Y770227D02*
Y790349D01*
X754498Y770227D02*
Y790349D01*
X794122Y757273D02*
Y777395D01*
X777122Y757273D02*
Y777395D01*
X827004Y737272D02*
Y728109D01*
X828837Y726276D01*
X832503D01*
X834335Y728109D01*
Y737272D01*
X838001Y735440D02*
X839834Y737272D01*
X843499D01*
X845332Y735440D01*
Y733607D01*
X843499Y731774D01*
X841666D01*
X843499D01*
X845332Y729941D01*
Y728109D01*
X843499Y726276D01*
X839834D01*
X838001Y728109D01*
X915326Y906165D02*
X906162D01*
X904330Y904332D01*
Y900666D01*
X906162Y898834D01*
X915326D01*
X904330Y887837D02*
Y895168D01*
X911661Y887837D01*
X913493D01*
X915326Y889670D01*
Y893335D01*
X913493Y895168D01*
X787277Y896522D02*
Y886525D01*
X789276Y884526D01*
X793275D01*
X795274Y886525D01*
Y896522D01*
X799273Y884526D02*
X803271D01*
X801272D01*
Y896522D01*
X799273Y894523D01*
X796081Y816534D02*
X786085D01*
Y821533D01*
X787751Y823199D01*
X791083D01*
X792749Y821533D01*
Y816534D01*
Y819867D02*
X796081Y823199D01*
Y833196D02*
Y826531D01*
X789417Y833196D01*
X787751D01*
X786085Y831529D01*
Y828197D01*
X787751Y826531D01*
X726612Y817820D02*
X716616D01*
Y822818D01*
X718282Y824484D01*
X721614D01*
X723280Y822818D01*
Y817820D01*
Y821152D02*
X726612Y824484D01*
Y827816D02*
Y831149D01*
Y829482D01*
X716616D01*
X718282Y827816D01*
X920085Y1029701D02*
X918419Y1028035D01*
Y1024703D01*
X920085Y1023036D01*
X926749D01*
X928415Y1024703D01*
Y1028035D01*
X926749Y1029701D01*
X918419Y1039698D02*
X920085Y1036365D01*
X923417Y1033033D01*
X926749D01*
X928415Y1034699D01*
Y1038031D01*
X926749Y1039698D01*
X925083D01*
X923417Y1038031D01*
Y1033033D01*
X839923Y911461D02*
X838091Y913294D01*
X834425D01*
X832592Y911461D01*
Y904130D01*
X834425Y902298D01*
X838091D01*
X839923Y904130D01*
X850920Y913294D02*
X843589D01*
Y907796D01*
X847254Y909629D01*
X849087D01*
X850920Y907796D01*
Y904130D01*
X849087Y902298D01*
X845422D01*
X843589Y904130D01*
X783535Y792336D02*
X781702Y794168D01*
X778037D01*
X776204Y792336D01*
Y785005D01*
X778037Y783172D01*
X781702D01*
X783535Y785005D01*
X787201Y792336D02*
X789034Y794168D01*
X792699D01*
X794532Y792336D01*
Y790503D01*
X792699Y788670D01*
X790866D01*
X792699D01*
X794532Y786837D01*
Y785005D01*
X792699Y783172D01*
X789034D01*
X787201Y785005D01*
X742133Y761348D02*
X740301Y763180D01*
X736635D01*
X734802Y761348D01*
Y754016D01*
X736635Y752184D01*
X740301D01*
X742133Y754016D01*
X753130Y752184D02*
X745799D01*
X753130Y759515D01*
Y761348D01*
X751297Y763180D01*
X747632D01*
X745799Y761348D01*
D11*
X861777Y906120D02*
G03*
X861777Y906120I-1250J0D01*
G01*
X840040Y851564D02*
G03*
X840040Y851564I-1250J0D01*
G01*
X813664Y795138D02*
G03*
X813664Y795138I-1250J0D01*
G01*
X518247Y867489D02*
Y874154D01*
X521579Y877486D01*
X524911Y874154D01*
Y867489D01*
Y872488D01*
X518247D01*
X528244Y874154D02*
Y867489D01*
Y870822D01*
X529910Y872488D01*
X531576Y874154D01*
X533242D01*
X538241Y867489D02*
X541573D01*
X539907D01*
Y874154D01*
X538241D01*
X546571Y867489D02*
X551570D01*
X553236Y869155D01*
X551570Y870822D01*
X548237D01*
X546571Y872488D01*
X548237Y874154D01*
X553236D01*
X558234Y875820D02*
Y874154D01*
X556568D01*
X559900D01*
X558234D01*
Y869155D01*
X559900Y867489D01*
X566565D02*
X569897D01*
X571563Y869155D01*
Y872488D01*
X569897Y874154D01*
X566565D01*
X564899Y872488D01*
Y869155D01*
X566565Y867489D01*
X576562Y875820D02*
Y874154D01*
X574895D01*
X578228D01*
X576562D01*
Y869155D01*
X578228Y867489D01*
X583226D02*
X586558D01*
X584892D01*
Y877486D01*
X583226D01*
X596555Y867489D02*
X593223D01*
X591557Y869155D01*
Y872488D01*
X593223Y874154D01*
X596555D01*
X598221Y872488D01*
Y870822D01*
X591557D01*
X618215Y875820D02*
X616549Y877486D01*
X613216D01*
X611550Y875820D01*
Y874154D01*
X613216Y872488D01*
X616549D01*
X618215Y870822D01*
Y869155D01*
X616549Y867489D01*
X613216D01*
X611550Y869155D01*
X621547Y864157D02*
Y874154D01*
X626545D01*
X628212Y872488D01*
Y869155D01*
X626545Y867489D01*
X621547D01*
X633210Y874154D02*
X636542D01*
X638208Y872488D01*
Y867489D01*
X633210D01*
X631544Y869155D01*
X633210Y870822D01*
X638208D01*
X648205Y874154D02*
X643207D01*
X641541Y872488D01*
Y869155D01*
X643207Y867489D01*
X648205D01*
X656536D02*
X653204D01*
X651537Y869155D01*
Y872488D01*
X653204Y874154D01*
X656536D01*
X658202Y872488D01*
Y870822D01*
X651537D01*
X678195Y867489D02*
X676529Y869155D01*
X674863Y867489D01*
X673197D01*
X671531Y869155D01*
Y870822D01*
X673197Y872488D01*
X671531Y874154D01*
Y875820D01*
X673197Y877486D01*
X674863D01*
X676529Y875820D01*
Y874154D01*
X674863Y872488D01*
X676529Y870822D01*
Y869155D01*
X678195Y872488D02*
X676529Y870822D01*
X673197Y872488D02*
X674863D01*
X518247Y846161D02*
Y852825D01*
X521579Y856158D01*
X524911Y852825D01*
Y846161D01*
Y851159D01*
X518247D01*
X533242Y846161D02*
X529910D01*
X528244Y847827D01*
Y851159D01*
X529910Y852825D01*
X533242D01*
X534908Y851159D01*
Y849493D01*
X528244D01*
X538241Y852825D02*
Y846161D01*
Y849493D01*
X539907Y851159D01*
X541573Y852825D01*
X543239D01*
X549903Y846161D02*
X553236D01*
X554902Y847827D01*
Y851159D01*
X553236Y852825D01*
X549903D01*
X548237Y851159D01*
Y847827D01*
X549903Y846161D01*
X558234D02*
Y852825D01*
X563232D01*
X564899Y851159D01*
Y846161D01*
X569897Y852825D02*
X573229D01*
X574895Y851159D01*
Y846161D01*
X569897D01*
X568231Y847827D01*
X569897Y849493D01*
X574895D01*
X578228Y852825D02*
Y847827D01*
X579894Y846161D01*
X584892D01*
Y852825D01*
X589891Y854492D02*
Y852825D01*
X588224D01*
X591557D01*
X589891D01*
Y847827D01*
X591557Y846161D01*
X596555D02*
X599887D01*
X598221D01*
Y852825D01*
X596555D01*
X611550D02*
X606552D01*
X604886Y851159D01*
Y847827D01*
X606552Y846161D01*
X611550D01*
X614883D02*
X619881D01*
X621547Y847827D01*
X619881Y849493D01*
X616549D01*
X614883Y851159D01*
X616549Y852825D01*
X621547D01*
X634876Y856158D02*
X641541D01*
X638208D01*
Y846161D01*
X649871D02*
X646539D01*
X644873Y847827D01*
Y851159D01*
X646539Y852825D01*
X649871D01*
X651537Y851159D01*
Y849493D01*
X644873D01*
X656536Y852825D02*
X659868D01*
X661534Y851159D01*
Y846161D01*
X656536D01*
X654870Y847827D01*
X656536Y849493D01*
X661534D01*
X664866Y846161D02*
Y852825D01*
X666533D01*
X668199Y851159D01*
Y846161D01*
Y851159D01*
X669865Y852825D01*
X671531Y851159D01*
Y846161D01*
D12*
X835914Y784588D02*
G03*
X835914Y784588I-2000J0D01*
G01*
D13*
X840533Y630943D02*
X899433D01*
X840533Y679943D02*
X899433D01*
X741661Y679947D02*
X800561D01*
X741661Y630947D02*
X800561D01*
X840660Y1002146D02*
X899560D01*
X840660Y953146D02*
X899560D01*
X741788Y953400D02*
X800688D01*
X741788Y1002400D02*
X800688D01*
D14*
X870078Y610741D02*
Y620897D01*
X867539Y623437D01*
X862460D01*
X859921Y620897D01*
Y610741D01*
X862460Y608201D01*
X867539D01*
X864999Y613280D02*
X870078Y608201D01*
X867539D02*
X870078Y610741D01*
X882774Y608201D02*
Y623437D01*
X875156Y615819D01*
X885313D01*
X766286Y611507D02*
Y621663D01*
X763747Y624202D01*
X758668D01*
X756129Y621663D01*
Y611507D01*
X758668Y608968D01*
X763747D01*
X761207Y614046D02*
X766286Y608968D01*
X763747D02*
X766286Y611507D01*
X771364Y621663D02*
X773903Y624202D01*
X778982D01*
X781521Y621663D01*
Y619124D01*
X778982Y616585D01*
X776442D01*
X778982D01*
X781521Y614046D01*
Y611507D01*
X778982Y608968D01*
X773903D01*
X771364Y611507D01*
X516128Y747644D02*
Y732409D01*
X523745D01*
X526285Y734948D01*
Y737487D01*
X523745Y740026D01*
X516128D01*
X523745D01*
X526285Y742566D01*
Y745105D01*
X523745Y747644D01*
X516128D01*
X531363Y732409D02*
Y742566D01*
X536441Y747644D01*
X541520Y742566D01*
Y732409D01*
Y740026D01*
X531363D01*
X546598Y747644D02*
X556755D01*
X551676D01*
Y732409D01*
X587225D02*
X577068D01*
X587225Y742566D01*
Y745105D01*
X584686Y747644D01*
X579608D01*
X577068Y745105D01*
X607538Y740026D02*
X617695D01*
X612617Y745105D02*
Y734948D01*
X518922Y905251D02*
Y890016D01*
X526539D01*
X529079Y892555D01*
Y895094D01*
X526539Y897634D01*
X518922D01*
X526539D01*
X529079Y900173D01*
Y902712D01*
X526539Y905251D01*
X518922D01*
X534157Y890016D02*
Y900173D01*
X539235Y905251D01*
X544314Y900173D01*
Y890016D01*
Y897634D01*
X534157D01*
X549392Y905251D02*
X559549D01*
X554470D01*
Y890016D01*
X579862D02*
X584941D01*
X582402D01*
Y905251D01*
X579862Y902712D01*
X607793Y897634D02*
X617950D01*
X612872Y902712D02*
Y892555D01*
X1047244Y596651D02*
X1052323D01*
X1054862Y599190D01*
Y609347D01*
X1052323Y611886D01*
X1047244D01*
X1044705Y609347D01*
Y599190D01*
X1047244Y596651D01*
X1039627D02*
Y609347D01*
X1037088Y611886D01*
X1032009D01*
X1029470Y609347D01*
Y596651D01*
X1024392D02*
X1014235D01*
X1019314D01*
Y611886D01*
X993922Y604268D02*
X983765D01*
X988843Y599190D02*
Y609347D01*
X998472Y1033775D02*
X993393D01*
X990854Y1031236D01*
Y1021079D01*
X993393Y1018540D01*
X998472D01*
X1001011Y1021079D01*
Y1031236D01*
X998472Y1033775D01*
X1006089D02*
Y1021079D01*
X1008628Y1018540D01*
X1013707D01*
X1016246Y1021079D01*
Y1033775D01*
X1021324D02*
X1031481D01*
X1026403D01*
Y1018540D01*
X1051794Y1026158D02*
X1061951D01*
X1056873Y1031236D02*
Y1021079D01*
X771746Y1018796D02*
Y1028952D01*
X769207Y1031491D01*
X764128D01*
X761589Y1028952D01*
Y1018796D01*
X764128Y1016256D01*
X769207D01*
X766668Y1021335D02*
X771746Y1016256D01*
X769207D02*
X771746Y1018796D01*
X776824Y1016256D02*
X781903D01*
X779364D01*
Y1031491D01*
X776824Y1028952D01*
X868126Y1015494D02*
Y1025650D01*
X865587Y1028189D01*
X860508D01*
X857969Y1025650D01*
Y1015494D01*
X860508Y1012954D01*
X865587D01*
X863047Y1018033D02*
X868126Y1012954D01*
X865587D02*
X868126Y1015494D01*
X883361Y1012954D02*
X873204D01*
X883361Y1023111D01*
Y1025650D01*
X880822Y1028189D01*
X875743D01*
X873204Y1025650D01*
X717298Y875538D02*
X714759Y872999D01*
Y867921D01*
X717298Y865381D01*
X727454D01*
X729994Y867921D01*
Y872999D01*
X727454Y875538D01*
X729994Y880616D02*
Y885695D01*
Y883156D01*
X714759D01*
X717298Y880616D01*
D15*
X843325Y697408D02*
X833329D01*
Y702407D01*
X834995Y704073D01*
X838327D01*
X839993Y702407D01*
Y697408D01*
Y700741D02*
X843325Y704073D01*
X834995Y707405D02*
X833329Y709071D01*
Y712403D01*
X834995Y714070D01*
X836661D01*
X838327Y712403D01*
Y710737D01*
Y712403D01*
X839993Y714070D01*
X841659D01*
X843325Y712403D01*
Y709071D01*
X841659Y707405D01*
X856934Y840770D02*
X855268Y842436D01*
X851936D01*
X850269Y840770D01*
Y834106D01*
X851936Y832440D01*
X855268D01*
X856934Y834106D01*
X865265Y832440D02*
Y842436D01*
X860266Y837438D01*
X866931D01*
X716961Y943759D02*
Y946092D01*
Y944925D01*
X723958D01*
Y943759D01*
Y946092D01*
Y949591D02*
X719293D01*
Y953089D01*
X720460Y954256D01*
X723958D01*
X726291Y956588D02*
X719293D01*
Y960087D01*
X720460Y961253D01*
X722792D01*
X723958Y960087D01*
Y956588D01*
X719293Y963586D02*
X722792D01*
X723958Y964752D01*
Y968251D01*
X719293D01*
X718127Y971750D02*
X719293D01*
Y970584D01*
Y972916D01*
Y971750D01*
X722792D01*
X723958Y972916D01*
X719293Y976415D02*
Y977581D01*
X720460D01*
Y976415D01*
X719293D01*
X722792D02*
Y977581D01*
X723958D01*
Y976415D01*
X722792D01*
X718127Y989244D02*
X716961Y990411D01*
Y992743D01*
X718127Y993910D01*
X719293D01*
X720460Y992743D01*
Y991577D01*
Y992743D01*
X721626Y993910D01*
X722792D01*
X723958Y992743D01*
Y990411D01*
X722792Y989244D01*
X723958Y996242D02*
Y999741D01*
X722792Y1000907D01*
X721626Y999741D01*
Y997408D01*
X720460Y996242D01*
X719293Y997408D01*
Y1000907D01*
X716961Y1010238D02*
X723958D01*
Y1014903D01*
Y1017235D02*
Y1019568D01*
Y1018402D01*
X719293D01*
Y1017235D01*
X726291Y1023067D02*
X719293D01*
Y1026566D01*
X720460Y1027732D01*
X722792D01*
X723958Y1026566D01*
Y1023067D01*
Y1031231D02*
Y1033564D01*
X722792Y1034730D01*
X720460D01*
X719293Y1033564D01*
Y1031231D01*
X720460Y1030065D01*
X722792D01*
X723958Y1031231D01*
M02*
