G04*
G04 #@! TF.GenerationSoftware,Altium Limited,Altium Designer,24.9.1 (31)*
G04*
G04 Layer_Physical_Order=4*
G04 Layer_Color=16711680*
%FSLAX44Y44*%
%MOMM*%
G71*
G04*
G04 #@! TF.SameCoordinates,1B91A79F-B01D-42E7-BC63-43C39E7C3ECD*
G04*
G04*
G04 #@! TF.FilePolarity,Positive*
G04*
G01*
G75*
%AMCUSTOMSHAPE42*
4,1,4,-12.3952,28.1432,21.5646,28.1432,21.5646,-33.8328,-12.3952,-33.8328,-12.3952,28.1432,0.0*%
%ADD42CUSTOMSHAPE42*%

%AMCUSTOMSHAPE43*
4,1,4,-19.8120,13.1572,20.5740,13.1572,20.5740,-13.2588,-19.8374,-13.2588,-19.8120,13.1572,0.0*%
%ADD43CUSTOMSHAPE43*%

%ADD44C,0.4860*%
%ADD49C,0.6096*%
%ADD53C,0.4860*%
%ADD54C,0.6000*%
%ADD55C,0.7000*%
%ADD56C,0.6100*%
%ADD57C,0.8000*%
%ADD58C,1.8000*%
%ADD59C,0.4500*%
G36*
X1269492Y404876D02*
X283464D01*
Y1115314D01*
X1269492D01*
Y404876D01*
D02*
G37*
%LPC*%
G36*
X813054Y1012807D02*
X812514Y1012700D01*
X811942D01*
X811414Y1012481D01*
X810874Y1012374D01*
X810416Y1012068D01*
X809887Y1011849D01*
X809483Y1011445D01*
X809025Y1011139D01*
X808719Y1010681D01*
X808315Y1010276D01*
X808096Y1009748D01*
X807790Y1009290D01*
X807683Y1008750D01*
X807464Y1008222D01*
Y1007650D01*
X807356Y1007110D01*
X807464Y1006570D01*
Y1005998D01*
X807683Y1005470D01*
X807790Y1004930D01*
X808096Y1004472D01*
X808315Y1003943D01*
X808719Y1003539D01*
X809025Y1003081D01*
X822850Y989256D01*
Y958342D01*
X823284Y956162D01*
X824519Y954313D01*
X845347Y933485D01*
X847196Y932250D01*
X849376Y931816D01*
X865886D01*
X866426Y931924D01*
X866998D01*
X867526Y932143D01*
X868066Y932250D01*
X868524Y932556D01*
X869053Y932775D01*
X869457Y933179D01*
X869915Y933485D01*
X870221Y933943D01*
X870625Y934348D01*
X870844Y934875D01*
X871150Y935334D01*
X871257Y935874D01*
X871476Y936402D01*
Y936974D01*
X871583Y937514D01*
X871476Y938054D01*
Y938626D01*
X871257Y939154D01*
X871150Y939694D01*
X870844Y940153D01*
X870625Y940680D01*
X870221Y941085D01*
X869915Y941543D01*
X869457Y941849D01*
X869053Y942253D01*
X868524Y942472D01*
X868066Y942778D01*
X867526Y942885D01*
X866998Y943104D01*
X866426D01*
X865886Y943212D01*
X851736D01*
X834246Y960702D01*
Y991616D01*
X833812Y993796D01*
X832577Y995645D01*
X817083Y1011139D01*
X816625Y1011445D01*
X816220Y1011849D01*
X815692Y1012068D01*
X815234Y1012374D01*
X814694Y1012481D01*
X814166Y1012700D01*
X813594D01*
X813054Y1012807D01*
D02*
G37*
G36*
X891794Y922007D02*
X891304Y921910D01*
X890805D01*
X890344Y921719D01*
X889855Y921622D01*
X889440Y921344D01*
X888979Y921153D01*
X888626Y920800D01*
X888211Y920523D01*
X887934Y920108D01*
X887581Y919755D01*
X887390Y919294D01*
X887112Y918879D01*
X887015Y918390D01*
X886824Y917929D01*
Y917430D01*
X886727Y916940D01*
X886824Y916451D01*
Y915951D01*
X887015Y915490D01*
X887112Y915001D01*
X887390Y914586D01*
X887581Y914125D01*
X887934Y913772D01*
X888211Y913357D01*
X899173Y902395D01*
Y896366D01*
X899270Y895876D01*
Y895377D01*
X899461Y894916D01*
X899558Y894427D01*
X899836Y894012D01*
X900027Y893551D01*
X900380Y893198D01*
X900657Y892783D01*
X901072Y892506D01*
X901425Y892153D01*
X901886Y891962D01*
X902301Y891684D01*
X902790Y891587D01*
X903251Y891396D01*
X903751D01*
X904240Y891299D01*
X904730Y891396D01*
X905229D01*
X905690Y891587D01*
X906179Y891684D01*
X906594Y891962D01*
X907055Y892153D01*
X907408Y892506D01*
X907823Y892783D01*
X908100Y893198D01*
X908453Y893551D01*
X908644Y894012D01*
X908922Y894427D01*
X909019Y894916D01*
X909210Y895377D01*
Y895876D01*
X909307Y896366D01*
Y904494D01*
X908922Y906433D01*
X907823Y908077D01*
X895377Y920523D01*
X894962Y920800D01*
X894609Y921153D01*
X894148Y921344D01*
X893733Y921622D01*
X893244Y921719D01*
X892783Y921910D01*
X892283D01*
X891794Y922007D01*
D02*
G37*
G36*
X853440Y889241D02*
X852951Y889144D01*
X852451D01*
X851990Y888953D01*
X851501Y888856D01*
X851086Y888578D01*
X850625Y888387D01*
X850272Y888034D01*
X849857Y887757D01*
X849580Y887342D01*
X849227Y886989D01*
X849036Y886528D01*
X848758Y886113D01*
X848661Y885624D01*
X848470Y885163D01*
Y884663D01*
X848373Y884174D01*
Y847919D01*
X844229Y843775D01*
X825500D01*
X825011Y843678D01*
X824511D01*
X824050Y843487D01*
X823561Y843390D01*
X823146Y843112D01*
X822685Y842921D01*
X822332Y842568D01*
X821917Y842291D01*
X821640Y841876D01*
X821287Y841523D01*
X821096Y841062D01*
X820818Y840647D01*
X820721Y840158D01*
X820530Y839697D01*
Y839197D01*
X820433Y838708D01*
X820530Y838219D01*
Y837719D01*
X820721Y837258D01*
X820818Y836769D01*
X821096Y836354D01*
X821287Y835893D01*
X821640Y835540D01*
X821917Y835125D01*
X822332Y834848D01*
X822685Y834495D01*
X823146Y834304D01*
X823561Y834026D01*
X824050Y833929D01*
X824511Y833738D01*
X825011D01*
X825500Y833641D01*
X846328D01*
X848267Y834026D01*
X849911Y835125D01*
X857023Y842237D01*
X858122Y843881D01*
X858507Y845820D01*
Y884174D01*
X858410Y884663D01*
Y885163D01*
X858219Y885624D01*
X858122Y886113D01*
X857844Y886528D01*
X857653Y886989D01*
X857300Y887342D01*
X857023Y887757D01*
X856608Y888034D01*
X856255Y888387D01*
X855794Y888578D01*
X855379Y888856D01*
X854890Y888953D01*
X854429Y889144D01*
X853930D01*
X853440Y889241D01*
D02*
G37*
G36*
X814070Y590659D02*
X813530Y590552D01*
X812958D01*
X812430Y590333D01*
X811890Y590226D01*
X811432Y589920D01*
X810903Y589701D01*
X810499Y589297D01*
X810041Y588991D01*
X809735Y588533D01*
X809331Y588129D01*
X809112Y587600D01*
X808806Y587142D01*
X808699Y586602D01*
X808480Y586074D01*
Y585502D01*
X808372Y584962D01*
X808480Y584422D01*
Y583850D01*
X808699Y583322D01*
X808806Y582782D01*
X809112Y582324D01*
X809331Y581796D01*
X809735Y581391D01*
X810041Y580933D01*
X823359Y567616D01*
Y517398D01*
X823466Y516858D01*
Y516286D01*
X823685Y515758D01*
X823792Y515218D01*
X824098Y514759D01*
X824317Y514231D01*
X824721Y513827D01*
X825027Y513369D01*
X825485Y513063D01*
X825890Y512659D01*
X826417Y512440D01*
X826876Y512134D01*
X827416Y512027D01*
X827944Y511808D01*
X828516D01*
X829056Y511701D01*
X829596Y511808D01*
X830168D01*
X830696Y512027D01*
X831236Y512134D01*
X831694Y512440D01*
X832223Y512659D01*
X832627Y513063D01*
X833085Y513369D01*
X833391Y513827D01*
X833795Y514231D01*
X834014Y514759D01*
X834320Y515218D01*
X834427Y515758D01*
X834646Y516286D01*
Y516858D01*
X834753Y517398D01*
Y569976D01*
X834320Y572156D01*
X833085Y574005D01*
X818099Y588991D01*
X817641Y589297D01*
X817236Y589701D01*
X816708Y589920D01*
X816250Y590226D01*
X815710Y590333D01*
X815182Y590552D01*
X814610D01*
X814070Y590659D01*
D02*
G37*
%LPD*%
D42*
X1051306Y791210D02*
D03*
D43*
X483870Y546608D02*
D03*
Y978408D02*
D03*
D44*
X904240Y896366D02*
Y904494D01*
X891794Y916940D02*
X904240Y904494D01*
X853440Y845820D02*
Y884174D01*
X846328Y838708D02*
X853440Y845820D01*
X825500Y838708D02*
X846328D01*
D49*
X813054Y1007110D02*
X828548Y991616D01*
Y958342D02*
Y991616D01*
X829056Y517398D02*
Y569976D01*
X814070Y584962D02*
X829056Y569976D01*
X849376Y937514D02*
X865886D01*
X828548Y958342D02*
X849376Y937514D01*
D53*
X904240Y896366D02*
D03*
X853440Y884174D02*
D03*
X891794Y916940D02*
D03*
X825500Y838708D02*
D03*
X853694Y896620D02*
D03*
D54*
X797560Y740410D02*
D03*
X785622Y750062D02*
D03*
X745998Y801878D02*
D03*
D55*
X744220Y894842D02*
D03*
D56*
X813054Y1007110D02*
D03*
X829056Y517398D02*
D03*
X814070Y584962D02*
D03*
X865886Y937514D02*
D03*
D57*
X899922Y855472D02*
D03*
X821690Y927862D02*
D03*
D58*
X879856Y1046988D02*
D03*
D59*
X823976Y824992D02*
D03*
X840645Y875697D02*
D03*
M02*
