G04*
G04 #@! TF.GenerationSoftware,Altium Limited,Altium Designer,24.9.1 (31)*
G04*
G04 Layer_Color=8421504*
%FSLAX44Y44*%
%MOMM*%
G71*
G04*
G04 #@! TF.SameCoordinates,1B91A79F-B01D-42E7-BC63-43C39E7C3ECD*
G04*
G04*
G04 #@! TF.FilePolarity,Positive*
G04*
G01*
G75*
%ADD15R,1.2700X0.6100*%
%ADD16R,0.7100X0.6100*%
%ADD17R,3.8100X3.9100*%
%ADD18R,0.3200X0.2550*%
%ADD19R,1.8582X1.5055*%
%ADD20R,0.8121X0.7581*%
%ADD21R,0.7581X0.8121*%
%ADD22O,1.9000X0.6000*%
%ADD23R,0.5000X0.6000*%
%ADD24R,0.7596X0.7158*%
G04:AMPARAMS|DCode=25|XSize=1.5mm|YSize=0.45mm|CornerRadius=0.0495mm|HoleSize=0mm|Usage=FLASHONLY|Rotation=180.000|XOffset=0mm|YOffset=0mm|HoleType=Round|Shape=RoundedRectangle|*
%AMROUNDEDRECTD25*
21,1,1.5000,0.3510,0,0,180.0*
21,1,1.4010,0.4500,0,0,180.0*
1,1,0.0990,-0.7005,0.1755*
1,1,0.0990,0.7005,0.1755*
1,1,0.0990,0.7005,-0.1755*
1,1,0.0990,-0.7005,-0.1755*
%
%ADD25ROUNDEDRECTD25*%
G04:AMPARAMS|DCode=26|XSize=0.9397mm|YSize=0.4858mm|CornerRadius=0.2429mm|HoleSize=0mm|Usage=FLASHONLY|Rotation=0.000|XOffset=0mm|YOffset=0mm|HoleType=Round|Shape=RoundedRectangle|*
%AMROUNDEDRECTD26*
21,1,0.9397,0.0000,0,0,0.0*
21,1,0.4539,0.4858,0,0,0.0*
1,1,0.4858,0.2269,0.0000*
1,1,0.4858,-0.2269,0.0000*
1,1,0.4858,-0.2269,0.0000*
1,1,0.4858,0.2269,0.0000*
%
%ADD26ROUNDEDRECTD26*%
%ADD27R,0.9397X0.4858*%
%ADD28R,0.5500X0.5000*%
G36*
X692150Y845820D02*
X288036D01*
X288290Y1109980D01*
X692150D01*
Y845820D01*
D02*
G37*
G36*
X1266952Y452882D02*
X927354D01*
Y1072642D01*
X1266952D01*
Y452882D01*
D02*
G37*
G36*
X692150Y410972D02*
X288036D01*
X288290Y675132D01*
X692150D01*
Y410972D01*
D02*
G37*
D15*
X799338Y958850D02*
D03*
Y971550D02*
D03*
Y984250D02*
D03*
Y996950D02*
D03*
X842010Y996696D02*
D03*
Y983996D02*
D03*
Y971296D02*
D03*
Y958596D02*
D03*
Y565400D02*
D03*
Y552700D02*
D03*
Y540000D02*
D03*
Y527300D02*
D03*
X799340Y527304D02*
D03*
Y540004D02*
D03*
Y552704D02*
D03*
Y565404D02*
D03*
D16*
X743138Y996950D02*
D03*
Y984250D02*
D03*
Y971550D02*
D03*
Y958850D02*
D03*
X898210Y958596D02*
D03*
Y971296D02*
D03*
Y983996D02*
D03*
Y996696D02*
D03*
Y527300D02*
D03*
Y540000D02*
D03*
Y552700D02*
D03*
Y565400D02*
D03*
X743140Y565404D02*
D03*
Y552704D02*
D03*
Y540004D02*
D03*
Y527304D02*
D03*
D17*
X765738Y977900D02*
D03*
X875610Y977646D02*
D03*
Y546350D02*
D03*
X765740Y546354D02*
D03*
D18*
X748238Y957070D02*
D03*
Y998730D02*
D03*
X893110Y998476D02*
D03*
Y956816D02*
D03*
Y567180D02*
D03*
Y525520D02*
D03*
X748240Y525524D02*
D03*
Y567184D02*
D03*
D19*
X910844Y1046004D02*
D03*
Y1016476D02*
D03*
D20*
X745998Y786558D02*
D03*
Y774018D02*
D03*
X785622Y761064D02*
D03*
Y773604D02*
D03*
X744220Y882062D02*
D03*
Y869522D02*
D03*
D21*
X886380Y855472D02*
D03*
X873840D02*
D03*
X835232Y927862D02*
D03*
X847772D02*
D03*
D22*
X859414Y748538D02*
D03*
Y761238D02*
D03*
Y773938D02*
D03*
Y786638D02*
D03*
X812414Y748538D02*
D03*
Y761238D02*
D03*
Y773938D02*
D03*
Y786638D02*
D03*
D23*
X804244Y824992D02*
D03*
X814244D02*
D03*
D24*
X738696Y824484D02*
D03*
X748221D02*
D03*
D25*
X825290Y851564D02*
D03*
Y858064D02*
D03*
Y864564D02*
D03*
Y871064D02*
D03*
X767290D02*
D03*
Y864564D02*
D03*
Y858064D02*
D03*
Y851564D02*
D03*
D26*
X892535Y906120D02*
D03*
Y896620D02*
D03*
Y887120D02*
D03*
X870225D02*
D03*
Y896620D02*
D03*
D27*
Y906120D02*
D03*
D28*
X834958Y582168D02*
D03*
X842458D02*
D03*
M02*
